<?xml version="1.0" encoding="utf-8" standalone="no"?>
<!DOCTYPE svg PUBLIC "-//W3C//DTD SVG 1.1//EN"
  "http://www.w3.org/Graphics/SVG/1.1/DTD/svg11.dtd">
<svg xmlns:xlink="http://www.w3.org/1999/xlink" width="599.434pt" height="313.922406pt" viewBox="0 0 599.434 313.922406" xmlns="http://www.w3.org/2000/svg" version="1.1">
 <metadata>
  <rdf:RDF xmlns:dc="http://purl.org/dc/elements/1.1/" xmlns:cc="http://creativecommons.org/ns#" xmlns:rdf="http://www.w3.org/1999/02/22-rdf-syntax-ns#">
   <cc:Work>
    <dc:type rdf:resource="http://purl.org/dc/dcmitype/StillImage"/>
    <dc:date>2026-07-04T22:00:06.418553</dc:date>
    <dc:format>image/svg+xml</dc:format>
    <dc:creator>
     <cc:Agent>
      <dc:title>Matplotlib v3.10.9, https://matplotlib.org/</dc:title>
     </cc:Agent>
    </dc:creator>
   </cc:Work>
  </rdf:RDF>
 </metadata>
 <defs>
  <style type="text/css">*{stroke-linejoin: round; stroke-linecap: butt}</style>
 </defs>
 <g id="figure_1">
  <g id="patch_1">
   <path d="M -0 313.922406 
L 599.434 313.922406 
L 599.434 0 
L -0 0 
z
" style="fill: #ffffff"/>
  </g>
  <g id="axes_1">
   <g id="patch_2">
    <path d="M 52.09 273.782406 
L 531.97 273.782406 
L 531.97 29.846406 
L 52.09 29.846406 
z
" style="fill: #ffffff"/>
   </g>
   <g id="matplotlib.axis_1">
    <g id="xtick_1">
     <g id="line2d_1">
      <path d="M 67.843636 273.782406 
L 67.843636 29.846406 
" clip-path="url(#pc16ccf9ee7)" style="fill: none; stroke: #eef1f6; stroke-linecap: square"/>
     </g>
     <g id="line2d_2">
      <defs>
       <path id="m75c315b9c7" d="M 0 0 
L 0 3.5 
" style="stroke: #5b6577; stroke-width: 0.8"/>
      </defs>
      <g>
       <use xlink:href="#m75c315b9c7" x="67.843636" y="273.782406" style="fill: #5b6577; stroke: #5b6577; stroke-width: 0.8"/>
      </g>
     </g>
     <g id="text_1">
      <!-- 0 -->
      <g style="fill: #5b6577" transform="translate(65.068636 288.741781) scale(0.1 -0.1)">
       <defs>
        <path id="NotoSansCJKsc-Regular-30" d="M 1779 -83 
C 2669 -83 3238 723 3238 2362 
C 3238 3987 2669 4774 1779 4774 
C 883 4774 320 3987 320 2362 
C 320 723 883 -83 1779 -83 
z
M 1779 390 
C 1248 390 883 986 883 2362 
C 883 3731 1248 4314 1779 4314 
C 2310 4314 2675 3731 2675 2362 
C 2675 986 2310 390 1779 390 
z
" transform="scale(0.015625)"/>
       </defs>
       <use xlink:href="#NotoSansCJKsc-Regular-30"/>
      </g>
     </g>
    </g>
    <g id="xtick_2">
     <g id="line2d_3">
      <path d="M 128.434545 273.782406 
L 128.434545 29.846406 
" clip-path="url(#pc16ccf9ee7)" style="fill: none; stroke: #eef1f6; stroke-linecap: square"/>
     </g>
     <g id="line2d_4">
      <g>
       <use xlink:href="#m75c315b9c7" x="128.434545" y="273.782406" style="fill: #5b6577; stroke: #5b6577; stroke-width: 0.8"/>
      </g>
     </g>
     <g id="text_2">
      <!-- 10 -->
      <g style="fill: #5b6577" transform="translate(122.884545 288.741781) scale(0.1 -0.1)">
       <defs>
        <path id="NotoSansCJKsc-Regular-31" d="M 563 0 
L 3136 0 
L 3136 486 
L 2195 486 
L 2195 4691 
L 1747 4691 
C 1491 4544 1190 4435 774 4358 
L 774 3987 
L 1613 3987 
L 1613 486 
L 563 486 
L 563 0 
z
" transform="scale(0.015625)"/>
       </defs>
       <use xlink:href="#NotoSansCJKsc-Regular-31"/>
       <use xlink:href="#NotoSansCJKsc-Regular-30" transform="translate(55.499985 0)"/>
      </g>
     </g>
    </g>
    <g id="xtick_3">
     <g id="line2d_5">
      <path d="M 189.025455 273.782406 
L 189.025455 29.846406 
" clip-path="url(#pc16ccf9ee7)" style="fill: none; stroke: #eef1f6; stroke-linecap: square"/>
     </g>
     <g id="line2d_6">
      <g>
       <use xlink:href="#m75c315b9c7" x="189.025455" y="273.782406" style="fill: #5b6577; stroke: #5b6577; stroke-width: 0.8"/>
      </g>
     </g>
     <g id="text_3">
      <!-- 20 -->
      <g style="fill: #5b6577" transform="translate(183.475455 288.741781) scale(0.1 -0.1)">
       <defs>
        <path id="NotoSansCJKsc-Regular-32" d="M 282 0 
L 3232 0 
L 3232 506 
L 1933 506 
C 1696 506 1408 480 1165 461 
C 2266 1504 3008 2458 3008 3398 
C 3008 4230 2477 4774 1638 4774 
C 1043 4774 634 4506 256 4090 
L 595 3757 
C 858 4070 1184 4301 1568 4301 
C 2150 4301 2432 3910 2432 3373 
C 2432 2566 1754 1632 282 346 
L 282 0 
z
" transform="scale(0.015625)"/>
       </defs>
       <use xlink:href="#NotoSansCJKsc-Regular-32"/>
       <use xlink:href="#NotoSansCJKsc-Regular-30" transform="translate(55.499985 0)"/>
      </g>
     </g>
    </g>
    <g id="xtick_4">
     <g id="line2d_7">
      <path d="M 249.616364 273.782406 
L 249.616364 29.846406 
" clip-path="url(#pc16ccf9ee7)" style="fill: none; stroke: #eef1f6; stroke-linecap: square"/>
     </g>
     <g id="line2d_8">
      <g>
       <use xlink:href="#m75c315b9c7" x="249.616364" y="273.782406" style="fill: #5b6577; stroke: #5b6577; stroke-width: 0.8"/>
      </g>
     </g>
     <g id="text_4">
      <!-- 30 -->
      <g style="fill: #5b6577" transform="translate(244.066364 288.741781) scale(0.1 -0.1)">
       <defs>
        <path id="NotoSansCJKsc-Regular-33" d="M 1683 -83 
C 2522 -83 3194 416 3194 1254 
C 3194 1901 2752 2310 2202 2445 
L 2202 2477 
C 2701 2650 3034 3034 3034 3603 
C 3034 4346 2458 4774 1664 4774 
C 1126 4774 710 4538 358 4218 
L 672 3846 
C 941 4115 1267 4301 1645 4301 
C 2138 4301 2438 4006 2438 3558 
C 2438 3053 2112 2662 1139 2662 
L 1139 2214 
C 2227 2214 2598 1843 2598 1274 
C 2598 736 2208 403 1645 403 
C 1114 403 762 659 486 941 
L 186 563 
C 493 224 954 -83 1683 -83 
z
" transform="scale(0.015625)"/>
       </defs>
       <use xlink:href="#NotoSansCJKsc-Regular-33"/>
       <use xlink:href="#NotoSansCJKsc-Regular-30" transform="translate(55.499985 0)"/>
      </g>
     </g>
    </g>
    <g id="xtick_5">
     <g id="line2d_9">
      <path d="M 310.207273 273.782406 
L 310.207273 29.846406 
" clip-path="url(#pc16ccf9ee7)" style="fill: none; stroke: #eef1f6; stroke-linecap: square"/>
     </g>
     <g id="line2d_10">
      <g>
       <use xlink:href="#m75c315b9c7" x="310.207273" y="273.782406" style="fill: #5b6577; stroke: #5b6577; stroke-width: 0.8"/>
      </g>
     </g>
     <g id="text_5">
      <!-- 40 -->
      <g style="fill: #5b6577" transform="translate(304.657273 288.741781) scale(0.1 -0.1)">
       <defs>
        <path id="NotoSansCJKsc-Regular-34" d="M 2176 0 
L 2726 0 
L 2726 1293 
L 3354 1293 
L 3354 1760 
L 2726 1760 
L 2726 4691 
L 2080 4691 
L 128 1677 
L 128 1293 
L 2176 1293 
L 2176 0 
z
M 2176 1760 
L 736 1760 
L 1805 3360 
C 1939 3590 2067 3827 2182 4051 
L 2208 4051 
C 2195 3814 2176 3430 2176 3200 
L 2176 1760 
z
" transform="scale(0.015625)"/>
       </defs>
       <use xlink:href="#NotoSansCJKsc-Regular-34"/>
       <use xlink:href="#NotoSansCJKsc-Regular-30" transform="translate(55.499985 0)"/>
      </g>
     </g>
    </g>
    <g id="xtick_6">
     <g id="line2d_11">
      <path d="M 370.798182 273.782406 
L 370.798182 29.846406 
" clip-path="url(#pc16ccf9ee7)" style="fill: none; stroke: #eef1f6; stroke-linecap: square"/>
     </g>
     <g id="line2d_12">
      <g>
       <use xlink:href="#m75c315b9c7" x="370.798182" y="273.782406" style="fill: #5b6577; stroke: #5b6577; stroke-width: 0.8"/>
      </g>
     </g>
     <g id="text_6">
      <!-- 50 -->
      <g style="fill: #5b6577" transform="translate(365.248182 288.741781) scale(0.1 -0.1)">
       <defs>
        <path id="NotoSansCJKsc-Regular-35" d="M 1677 -83 
C 2464 -83 3213 499 3213 1523 
C 3213 2560 2573 3021 1798 3021 
C 1517 3021 1306 2950 1094 2835 
L 1216 4192 
L 2982 4192 
L 2982 4691 
L 704 4691 
L 550 2502 
L 864 2304 
C 1133 2483 1331 2579 1645 2579 
C 2234 2579 2618 2182 2618 1510 
C 2618 826 2176 403 1619 403 
C 1075 403 730 653 467 922 
L 173 538 
C 493 224 941 -83 1677 -83 
z
" transform="scale(0.015625)"/>
       </defs>
       <use xlink:href="#NotoSansCJKsc-Regular-35"/>
       <use xlink:href="#NotoSansCJKsc-Regular-30" transform="translate(55.499985 0)"/>
      </g>
     </g>
    </g>
    <g id="xtick_7">
     <g id="line2d_13">
      <path d="M 431.389091 273.782406 
L 431.389091 29.846406 
" clip-path="url(#pc16ccf9ee7)" style="fill: none; stroke: #eef1f6; stroke-linecap: square"/>
     </g>
     <g id="line2d_14">
      <g>
       <use xlink:href="#m75c315b9c7" x="431.389091" y="273.782406" style="fill: #5b6577; stroke: #5b6577; stroke-width: 0.8"/>
      </g>
     </g>
     <g id="text_7">
      <!-- 60 -->
      <g style="fill: #5b6577" transform="translate(425.839091 288.741781) scale(0.1 -0.1)">
       <defs>
        <path id="NotoSansCJKsc-Regular-36" d="M 1926 -83 
C 2656 -83 3277 531 3277 1440 
C 3277 2426 2765 2912 1971 2912 
C 1606 2912 1197 2701 909 2349 
C 934 3802 1466 4294 2118 4294 
C 2400 4294 2682 4154 2861 3936 
L 3194 4294 
C 2931 4576 2579 4774 2093 4774 
C 1184 4774 358 4077 358 2240 
C 358 691 1030 -83 1926 -83 
z
M 922 1882 
C 1229 2317 1587 2477 1875 2477 
C 2445 2477 2720 2074 2720 1440 
C 2720 800 2374 378 1926 378 
C 1338 378 986 909 922 1882 
z
" transform="scale(0.015625)"/>
       </defs>
       <use xlink:href="#NotoSansCJKsc-Regular-36"/>
       <use xlink:href="#NotoSansCJKsc-Regular-30" transform="translate(55.499985 0)"/>
      </g>
     </g>
    </g>
    <g id="xtick_8">
     <g id="line2d_15">
      <path d="M 491.98 273.782406 
L 491.98 29.846406 
" clip-path="url(#pc16ccf9ee7)" style="fill: none; stroke: #eef1f6; stroke-linecap: square"/>
     </g>
     <g id="line2d_16">
      <g>
       <use xlink:href="#m75c315b9c7" x="491.98" y="273.782406" style="fill: #5b6577; stroke: #5b6577; stroke-width: 0.8"/>
      </g>
     </g>
     <g id="text_8">
      <!-- 70 -->
      <g style="fill: #5b6577" transform="translate(486.43 288.741781) scale(0.1 -0.1)">
       <defs>
        <path id="NotoSansCJKsc-Regular-37" d="M 1267 0 
L 1875 0 
C 1952 1837 2150 2931 3251 4339 
L 3251 4691 
L 314 4691 
L 314 4192 
L 2592 4192 
C 1670 2912 1350 1779 1267 0 
z
" transform="scale(0.015625)"/>
       </defs>
       <use xlink:href="#NotoSansCJKsc-Regular-37"/>
       <use xlink:href="#NotoSansCJKsc-Regular-30" transform="translate(55.499985 0)"/>
      </g>
     </g>
    </g>
    <g id="text_9">
     <!-- epoch -->
     <g style="fill: #1b2432" transform="translate(277.544844 302.991781) scale(0.1 -0.1)">
      <defs>
       <path id="NotoSansCJKsc-Regular-65" d="M 1997 -83 
C 2464 -83 2835 70 3136 269 
L 2931 659 
C 2669 486 2400 384 2061 384 
C 1402 384 947 858 909 1600 
L 3251 1600 
C 3264 1690 3277 1805 3277 1933 
C 3277 2925 2778 3565 1888 3565 
C 1094 3565 333 2867 333 1734 
C 333 589 1069 -83 1997 -83 
z
M 902 2016 
C 973 2707 1408 3098 1901 3098 
C 2445 3098 2765 2720 2765 2016 
L 902 2016 
z
" transform="scale(0.015625)"/>
       <path id="NotoSansCJKsc-Regular-70" d="M 589 -1466 
L 1178 -1466 
L 1178 -288 
L 1158 320 
C 1472 58 1805 -83 2118 -83 
C 2912 -83 3629 602 3629 1792 
C 3629 2867 3142 3565 2246 3565 
C 1843 3565 1453 3334 1139 3072 
L 1126 3072 
L 1069 3475 
L 589 3475 
L 589 -1466 
z
M 2022 410 
C 1792 410 1485 499 1178 768 
L 1178 2598 
C 1510 2906 1811 3072 2099 3072 
C 2765 3072 3021 2560 3021 1786 
C 3021 928 2598 410 2022 410 
z
" transform="scale(0.015625)"/>
       <path id="NotoSansCJKsc-Regular-6f" d="M 1939 -83 
C 2790 -83 3546 582 3546 1734 
C 3546 2893 2790 3565 1939 3565 
C 1088 3565 333 2893 333 1734 
C 333 582 1088 -83 1939 -83 
z
M 1939 403 
C 1338 403 934 934 934 1734 
C 934 2534 1338 3072 1939 3072 
C 2541 3072 2950 2534 2950 1734 
C 2950 934 2541 403 1939 403 
z
" transform="scale(0.015625)"/>
       <path id="NotoSansCJKsc-Regular-63" d="M 1958 -83 
C 2374 -83 2771 83 3085 352 
L 2829 749 
C 2611 557 2330 403 2010 403 
C 1370 403 934 934 934 1734 
C 934 2534 1395 3072 2029 3072 
C 2298 3072 2522 2950 2720 2771 
L 3014 3155 
C 2771 3373 2458 3565 2003 3565 
C 1107 3565 333 2893 333 1734 
C 333 582 1037 -83 1958 -83 
z
" transform="scale(0.015625)"/>
       <path id="NotoSansCJKsc-Regular-68" d="M 589 0 
L 1178 0 
L 1178 2522 
C 1523 2874 1766 3053 2125 3053 
C 2586 3053 2784 2778 2784 2125 
L 2784 0 
L 3366 0 
L 3366 2202 
C 3366 3085 3034 3565 2304 3565 
C 1830 3565 1472 3302 1152 2982 
L 1178 3699 
L 1178 5094 
L 589 5094 
L 589 0 
z
" transform="scale(0.015625)"/>
      </defs>
      <use xlink:href="#NotoSansCJKsc-Regular-65"/>
      <use xlink:href="#NotoSansCJKsc-Regular-70" transform="translate(55.399994 0)"/>
      <use xlink:href="#NotoSansCJKsc-Regular-6f" transform="translate(117.399979 0)"/>
      <use xlink:href="#NotoSansCJKsc-Regular-63" transform="translate(177.999969 0)"/>
      <use xlink:href="#NotoSansCJKsc-Regular-68" transform="translate(228.999954 0)"/>
     </g>
    </g>
   </g>
   <g id="matplotlib.axis_2">
    <g id="ytick_1">
     <g id="line2d_17">
      <path d="M 52.09 255.80443 
L 531.97 255.80443 
" clip-path="url(#pc16ccf9ee7)" style="fill: none; stroke: #eef1f6; stroke-linecap: square"/>
     </g>
     <g id="line2d_18">
      <defs>
       <path id="m5ae23419a4" d="M 0 0 
L -3.5 0 
" style="stroke: #5b6577; stroke-width: 0.8"/>
      </defs>
      <g>
       <use xlink:href="#m5ae23419a4" x="52.09" y="255.80443" style="fill: #5b6577; stroke: #5b6577; stroke-width: 0.8"/>
      </g>
     </g>
     <g id="text_10">
      <!-- 400 -->
      <g style="fill: #5b6577" transform="translate(28.44 259.784117) scale(0.1 -0.1)">
       <use xlink:href="#NotoSansCJKsc-Regular-34"/>
       <use xlink:href="#NotoSansCJKsc-Regular-30" transform="translate(55.499985 0)"/>
       <use xlink:href="#NotoSansCJKsc-Regular-30" transform="translate(110.999969 0)"/>
      </g>
     </g>
    </g>
    <g id="ytick_2">
     <g id="line2d_19">
      <path d="M 52.09 221.870926 
L 531.97 221.870926 
" clip-path="url(#pc16ccf9ee7)" style="fill: none; stroke: #eef1f6; stroke-linecap: square"/>
     </g>
     <g id="line2d_20">
      <g>
       <use xlink:href="#m5ae23419a4" x="52.09" y="221.870926" style="fill: #5b6577; stroke: #5b6577; stroke-width: 0.8"/>
      </g>
     </g>
     <g id="text_11">
      <!-- 600 -->
      <g style="fill: #5b6577" transform="translate(28.44 225.850613) scale(0.1 -0.1)">
       <use xlink:href="#NotoSansCJKsc-Regular-36"/>
       <use xlink:href="#NotoSansCJKsc-Regular-30" transform="translate(55.499985 0)"/>
       <use xlink:href="#NotoSansCJKsc-Regular-30" transform="translate(110.999969 0)"/>
      </g>
     </g>
    </g>
    <g id="ytick_3">
     <g id="line2d_21">
      <path d="M 52.09 187.937422 
L 531.97 187.937422 
" clip-path="url(#pc16ccf9ee7)" style="fill: none; stroke: #eef1f6; stroke-linecap: square"/>
     </g>
     <g id="line2d_22">
      <g>
       <use xlink:href="#m5ae23419a4" x="52.09" y="187.937422" style="fill: #5b6577; stroke: #5b6577; stroke-width: 0.8"/>
      </g>
     </g>
     <g id="text_12">
      <!-- 800 -->
      <g style="fill: #5b6577" transform="translate(28.44 191.917109) scale(0.1 -0.1)">
       <defs>
        <path id="NotoSansCJKsc-Regular-38" d="M 1792 -83 
C 2669 -83 3258 448 3258 1126 
C 3258 1773 2880 2125 2470 2362 
L 2470 2394 
C 2746 2611 3091 3034 3091 3526 
C 3091 4250 2605 4762 1805 4762 
C 1075 4762 518 4282 518 3571 
C 518 3078 813 2726 1152 2490 
L 1152 2464 
C 723 2234 294 1792 294 1165 
C 294 442 922 -83 1792 -83 
z
M 2112 2547 
C 1555 2765 1050 3014 1050 3571 
C 1050 4026 1363 4326 1798 4326 
C 2298 4326 2592 3962 2592 3494 
C 2592 3149 2426 2829 2112 2547 
z
M 1798 352 
C 1235 352 813 717 813 1216 
C 813 1664 1082 2035 1459 2278 
C 2125 2010 2701 1779 2701 1146 
C 2701 678 2342 352 1798 352 
z
" transform="scale(0.015625)"/>
       </defs>
       <use xlink:href="#NotoSansCJKsc-Regular-38"/>
       <use xlink:href="#NotoSansCJKsc-Regular-30" transform="translate(55.499985 0)"/>
       <use xlink:href="#NotoSansCJKsc-Regular-30" transform="translate(110.999969 0)"/>
      </g>
     </g>
    </g>
    <g id="ytick_4">
     <g id="line2d_23">
      <path d="M 52.09 154.003918 
L 531.97 154.003918 
" clip-path="url(#pc16ccf9ee7)" style="fill: none; stroke: #eef1f6; stroke-linecap: square"/>
     </g>
     <g id="line2d_24">
      <g>
       <use xlink:href="#m5ae23419a4" x="52.09" y="154.003918" style="fill: #5b6577; stroke: #5b6577; stroke-width: 0.8"/>
      </g>
     </g>
     <g id="text_13">
      <!-- 1000 -->
      <g style="fill: #5b6577" transform="translate(22.89 157.983605) scale(0.1 -0.1)">
       <use xlink:href="#NotoSansCJKsc-Regular-31"/>
       <use xlink:href="#NotoSansCJKsc-Regular-30" transform="translate(55.499985 0)"/>
       <use xlink:href="#NotoSansCJKsc-Regular-30" transform="translate(110.999969 0)"/>
       <use xlink:href="#NotoSansCJKsc-Regular-30" transform="translate(166.499954 0)"/>
      </g>
     </g>
    </g>
    <g id="ytick_5">
     <g id="line2d_25">
      <path d="M 52.09 120.070414 
L 531.97 120.070414 
" clip-path="url(#pc16ccf9ee7)" style="fill: none; stroke: #eef1f6; stroke-linecap: square"/>
     </g>
     <g id="line2d_26">
      <g>
       <use xlink:href="#m5ae23419a4" x="52.09" y="120.070414" style="fill: #5b6577; stroke: #5b6577; stroke-width: 0.8"/>
      </g>
     </g>
     <g id="text_14">
      <!-- 1200 -->
      <g style="fill: #5b6577" transform="translate(22.89 124.050101) scale(0.1 -0.1)">
       <use xlink:href="#NotoSansCJKsc-Regular-31"/>
       <use xlink:href="#NotoSansCJKsc-Regular-32" transform="translate(55.499985 0)"/>
       <use xlink:href="#NotoSansCJKsc-Regular-30" transform="translate(110.999969 0)"/>
       <use xlink:href="#NotoSansCJKsc-Regular-30" transform="translate(166.499954 0)"/>
      </g>
     </g>
    </g>
    <g id="ytick_6">
     <g id="line2d_27">
      <path d="M 52.09 86.13691 
L 531.97 86.13691 
" clip-path="url(#pc16ccf9ee7)" style="fill: none; stroke: #eef1f6; stroke-linecap: square"/>
     </g>
     <g id="line2d_28">
      <g>
       <use xlink:href="#m5ae23419a4" x="52.09" y="86.13691" style="fill: #5b6577; stroke: #5b6577; stroke-width: 0.8"/>
      </g>
     </g>
     <g id="text_15">
      <!-- 1400 -->
      <g style="fill: #5b6577" transform="translate(22.89 90.116597) scale(0.1 -0.1)">
       <use xlink:href="#NotoSansCJKsc-Regular-31"/>
       <use xlink:href="#NotoSansCJKsc-Regular-34" transform="translate(55.499985 0)"/>
       <use xlink:href="#NotoSansCJKsc-Regular-30" transform="translate(110.999969 0)"/>
       <use xlink:href="#NotoSansCJKsc-Regular-30" transform="translate(166.499954 0)"/>
      </g>
     </g>
    </g>
    <g id="ytick_7">
     <g id="line2d_29">
      <path d="M 52.09 52.203406 
L 531.97 52.203406 
" clip-path="url(#pc16ccf9ee7)" style="fill: none; stroke: #eef1f6; stroke-linecap: square"/>
     </g>
     <g id="line2d_30">
      <g>
       <use xlink:href="#m5ae23419a4" x="52.09" y="52.203406" style="fill: #5b6577; stroke: #5b6577; stroke-width: 0.8"/>
      </g>
     </g>
     <g id="text_16">
      <!-- 1600 -->
      <g style="fill: #5b6577" transform="translate(22.89 56.183093) scale(0.1 -0.1)">
       <use xlink:href="#NotoSansCJKsc-Regular-31"/>
       <use xlink:href="#NotoSansCJKsc-Regular-36" transform="translate(55.499985 0)"/>
       <use xlink:href="#NotoSansCJKsc-Regular-30" transform="translate(110.999969 0)"/>
       <use xlink:href="#NotoSansCJKsc-Regular-30" transform="translate(166.499954 0)"/>
      </g>
     </g>
    </g>
    <g id="text_17">
     <!-- 损失（每细胞） -->
     <g style="fill: #1b2432" transform="translate(16.599375 186.814406) rotate(-90) scale(0.1 -0.1)">
      <defs>
       <path id="NotoSansCJKsc-Regular-635f" d="M 3245 4762 
L 5037 4762 
L 5037 3942 
L 3245 3942 
L 3245 4762 
z
M 2778 5133 
L 2778 3571 
L 5523 3571 
L 5523 5133 
L 2778 5133 
z
M 3917 2259 
L 3917 1632 
C 3917 1120 3776 403 2035 -70 
C 2144 -173 2278 -358 2336 -474 
C 4154 102 4390 954 4390 1619 
L 4390 2259 
L 3917 2259 
z
M 4390 467 
C 4883 160 5542 -275 5869 -538 
L 6170 -179 
C 5830 77 5158 486 4678 781 
L 4390 467 
z
M 2598 3098 
L 2598 781 
L 3053 781 
L 3053 2707 
L 5261 2707 
L 5261 794 
L 5728 794 
L 5728 3098 
L 2598 3098 
z
M 1075 5370 
L 1075 4083 
L 269 4083 
L 269 3635 
L 1075 3635 
L 1075 2150 
C 742 2048 435 1958 186 1894 
L 275 1427 
L 1075 1683 
L 1075 102 
C 1075 6 1043 -19 966 -19 
C 883 -19 627 -19 346 -13 
C 410 -154 474 -365 493 -486 
C 909 -493 1165 -474 1325 -390 
C 1491 -314 1555 -173 1555 102 
L 1555 1837 
L 2342 2093 
L 2278 2528 
L 1555 2298 
L 1555 3635 
L 2285 3635 
L 2285 4083 
L 1555 4083 
L 1555 5370 
L 1075 5370 
z
" transform="scale(0.015625)"/>
       <path id="NotoSansCJKsc-Regular-5931" d="M 2918 5376 
L 2918 4256 
L 1690 4256 
C 1811 4550 1920 4864 2010 5184 
L 1510 5286 
C 1280 4416 883 3558 384 3014 
C 506 2963 742 2835 845 2765 
C 1069 3040 1280 3386 1472 3770 
L 2918 3770 
L 2918 3386 
C 2918 3091 2906 2790 2854 2496 
L 346 2496 
L 346 2016 
L 2746 2016 
C 2477 1184 1824 422 269 -102 
C 371 -198 512 -403 570 -518 
C 2208 45 2918 883 3213 1805 
C 3712 614 4557 -166 5894 -512 
C 5965 -384 6106 -179 6214 -77 
C 4909 218 4064 934 3622 2016 
L 6061 2016 
L 6061 2496 
L 3366 2496 
C 3405 2790 3418 3091 3418 3386 
L 3418 3770 
L 5523 3770 
L 5523 4256 
L 3418 4256 
L 3418 5376 
L 2918 5376 
z
" transform="scale(0.015625)"/>
       <path id="NotoSansCJKsc-Regular-ff08" d="M 4448 2432 
C 4448 1184 4954 166 5722 -614 
L 6106 -416 
C 5370 346 4915 1293 4915 2432 
C 4915 3571 5370 4518 6106 5280 
L 5722 5478 
C 4954 4698 4448 3680 4448 2432 
z
" transform="scale(0.015625)"/>
       <path id="NotoSansCJKsc-Regular-6bcf" d="M 2502 2931 
C 2906 2746 3386 2445 3635 2208 
L 1722 2208 
L 1856 3219 
L 4800 3219 
L 4762 2208 
L 3674 2208 
L 3942 2490 
C 3693 2726 3187 3021 2778 3200 
L 2502 2931 
z
M 275 2221 
L 275 1786 
L 1184 1786 
C 1101 1242 1018 723 934 333 
L 1197 333 
L 4608 326 
C 4570 128 4531 13 4480 -45 
C 4422 -122 4365 -141 4250 -141 
C 4122 -141 3827 -134 3507 -109 
C 3571 -218 3616 -384 3622 -493 
C 3936 -512 4262 -518 4448 -506 
C 4646 -486 4781 -435 4902 -269 
C 4979 -173 5037 6 5088 326 
L 5914 326 
L 5914 755 
L 5139 755 
C 5171 1030 5190 1370 5216 1786 
L 6138 1786 
L 6138 2221 
L 5235 2221 
L 5280 3411 
C 5280 3475 5286 3648 5286 3648 
L 1427 3648 
C 1382 3219 1318 2720 1248 2221 
L 275 2221 
z
M 4666 755 
L 3610 755 
L 3834 998 
C 3571 1254 3059 1581 2618 1792 
L 4742 1792 
C 4723 1363 4698 1018 4666 755 
z
M 2336 1523 
C 2746 1325 3219 1011 3488 755 
L 1504 755 
L 1664 1792 
L 2598 1792 
L 2336 1523 
z
M 1734 5414 
C 1395 4602 845 3776 250 3264 
C 371 3194 582 3053 678 2976 
C 1024 3322 1382 3789 1696 4294 
L 5920 4294 
L 5920 4730 
L 1946 4730 
C 2042 4909 2131 5088 2214 5274 
L 1734 5414 
z
" transform="scale(0.015625)"/>
       <path id="NotoSansCJKsc-Regular-7ec6" d="M 237 339 
L 320 -134 
C 947 -6 1798 154 2624 320 
L 2592 755 
C 1728 595 832 429 237 339 
z
M 371 2714 
C 474 2765 634 2797 1555 2906 
C 1222 2490 922 2150 787 2029 
C 563 1805 397 1658 256 1626 
C 314 1504 384 1274 410 1178 
C 550 1254 781 1306 2611 1600 
C 2592 1696 2586 1882 2586 2010 
L 1139 1805 
C 1683 2342 2227 3008 2701 3686 
L 2285 3942 
C 2163 3738 2022 3533 1882 3341 
L 902 3251 
C 1318 3802 1741 4506 2074 5203 
L 1606 5402 
C 1286 4621 774 3795 608 3584 
C 448 3360 333 3213 211 3187 
C 262 3059 346 2816 371 2714 
z
M 4141 448 
L 3219 448 
L 3219 2259 
L 4141 2259 
L 4141 448 
z
M 4582 448 
L 4582 2259 
L 5491 2259 
L 5491 448 
L 4582 448 
z
M 2771 5043 
L 2771 -416 
L 3219 -416 
L 3219 0 
L 5491 0 
L 5491 -365 
L 5952 -365 
L 5952 5043 
L 2771 5043 
z
M 4141 2714 
L 3219 2714 
L 3219 4563 
L 4141 4563 
L 4141 2714 
z
M 4582 2714 
L 4582 4563 
L 5491 4563 
L 5491 2714 
L 4582 2714 
z
" transform="scale(0.015625)"/>
       <path id="NotoSansCJKsc-Regular-80de" d="M 640 5075 
L 640 2790 
C 640 1856 608 582 205 -320 
C 314 -358 499 -461 582 -531 
C 845 64 966 845 1018 1587 
L 1875 1587 
L 1875 38 
C 1875 -51 1843 -77 1760 -77 
C 1683 -77 1446 -83 1165 -70 
C 1229 -198 1286 -403 1299 -518 
C 1709 -518 1939 -512 2099 -429 
C 2253 -352 2304 -218 2304 32 
L 2304 3162 
C 2426 3091 2586 2976 2662 2912 
C 2733 2995 2803 3091 2874 3187 
L 2874 326 
C 2874 -294 3085 -442 3795 -442 
C 3949 -442 5133 -442 5306 -442 
C 5946 -442 6093 -186 6170 710 
C 6035 736 5850 813 5741 890 
C 5696 122 5638 -26 5280 -26 
C 5024 -26 4013 -26 3827 -26 
C 3405 -26 3328 38 3328 326 
L 3328 1651 
L 4774 1651 
L 4774 3456 
L 3046 3456 
C 3162 3642 3270 3846 3373 4058 
L 5453 4058 
C 5402 2278 5357 1645 5242 1491 
C 5190 1421 5133 1408 5043 1408 
C 4934 1408 4685 1408 4410 1434 
C 4480 1318 4531 1126 4544 992 
C 4819 973 5088 973 5248 992 
C 5427 1011 5542 1056 5645 1210 
C 5811 1427 5862 2150 5914 4269 
C 5914 4339 5914 4493 5914 4493 
L 3565 4493 
C 3667 4742 3757 5005 3834 5267 
L 3347 5382 
C 3130 4589 2758 3795 2304 3270 
L 2304 5075 
L 640 5075 
z
M 3328 3034 
L 4326 3034 
L 4326 2074 
L 3328 2074 
L 3328 3034 
z
M 1056 4634 
L 1875 4634 
L 1875 3571 
L 1056 3571 
L 1056 4634 
z
M 1056 3130 
L 1875 3130 
L 1875 2035 
L 1043 2035 
C 1050 2304 1056 2560 1056 2790 
L 1056 3130 
z
" transform="scale(0.015625)"/>
       <path id="NotoSansCJKsc-Regular-ff09" d="M 1952 2432 
C 1952 3680 1446 4698 678 5478 
L 294 5280 
C 1030 4518 1485 3571 1485 2432 
C 1485 1293 1030 346 294 -416 
L 678 -614 
C 1446 166 1952 1184 1952 2432 
z
" transform="scale(0.015625)"/>
      </defs>
      <use xlink:href="#NotoSansCJKsc-Regular-635f"/>
      <use xlink:href="#NotoSansCJKsc-Regular-5931" transform="translate(99.999985 0)"/>
      <use xlink:href="#NotoSansCJKsc-Regular-ff08" transform="translate(199.999969 0)"/>
      <use xlink:href="#NotoSansCJKsc-Regular-6bcf" transform="translate(299.999954 0)"/>
      <use xlink:href="#NotoSansCJKsc-Regular-7ec6" transform="translate(399.999939 0)"/>
      <use xlink:href="#NotoSansCJKsc-Regular-80de" transform="translate(499.999924 0)"/>
      <use xlink:href="#NotoSansCJKsc-Regular-ff09" transform="translate(599.999908 0)"/>
     </g>
    </g>
   </g>
   <g id="line2d_31">
    <path d="M 73.902727 40.934406 
L 79.961818 52.591905 
L 86.020909 64.577366 
L 92.08 77.104602 
L 98.139091 85.132892 
L 104.198182 95.320776 
L 110.257273 105.516535 
L 116.316364 113.075544 
L 122.375455 121.522544 
L 128.434545 129.375563 
L 134.493636 137.006157 
L 140.552727 143.440163 
L 146.611818 151.331098 
L 152.670909 156.975273 
L 158.73 163.190906 
L 164.789091 167.661989 
L 170.848182 173.50075 
L 176.907273 178.82283 
L 182.966364 184.034776 
L 189.025455 187.958635 
L 195.084545 191.904677 
L 201.143636 196.180861 
L 207.202727 198.353781 
L 213.261818 202.212334 
L 219.320909 209.369436 
L 225.38 211.721438 
L 231.439091 212.991847 
L 237.498182 216.095146 
L 243.557273 218.144041 
L 249.616364 220.68959 
L 255.675455 221.165176 
L 261.734545 226.732026 
L 267.793636 228.138818 
L 273.852727 227.711585 
L 279.911818 231.058141 
L 285.970909 232.861458 
L 292.03 235.779985 
L 298.089091 238.560391 
L 304.148182 238.248807 
L 310.207273 239.760483 
L 316.266364 242.49315 
L 322.325455 243.235827 
L 328.384545 243.838664 
L 334.443636 245.884376 
L 340.502727 246.115846 
L 346.561818 246.951137 
L 352.620909 247.987239 
L 358.68 249.459671 
L 364.739091 249.209204 
L 370.798182 249.727144 
L 376.857273 251.082385 
L 382.916364 252.973031 
L 388.975455 252.085035 
L 395.034545 253.991061 
L 401.093636 253.19936 
L 407.152727 255.764191 
L 413.211818 254.287794 
L 419.270909 255.753402 
L 425.33 257.488761 
L 431.389091 256.993511 
L 437.448182 257.048689 
L 443.507273 257.230657 
L 449.566364 258.888952 
L 455.625455 259.374502 
L 461.684545 258.380711 
L 467.743636 259.375461 
L 473.802727 258.95777 
L 479.861818 258.703333 
L 485.920909 261.416775 
L 491.98 259.724774 
L 498.039091 258.967012 
L 504.098182 260.731896 
L 510.157273 261.455833 
" clip-path="url(#pc16ccf9ee7)" style="fill: none; stroke: #2f6fd0; stroke-width: 2.2; stroke-linecap: square"/>
   </g>
   <g id="line2d_32">
    <path d="M 73.902727 40.934639 
L 79.961818 52.592835 
L 86.020909 64.579457 
L 92.08 77.108321 
L 98.139091 85.138702 
L 104.198182 95.329143 
L 110.257273 105.527924 
L 116.316364 113.090419 
L 122.375455 121.541371 
L 128.434545 129.398805 
L 134.493636 137.03428 
L 140.552727 143.473631 
L 146.611818 151.370377 
L 152.670909 157.020828 
L 158.73 163.243201 
L 164.789091 167.721489 
L 170.848182 173.567919 
L 176.907273 178.898134 
L 182.966364 184.11868 
L 189.025455 188.051603 
L 195.084545 192.007174 
L 201.143636 196.293353 
L 207.202727 198.476732 
L 213.261818 202.346209 
L 219.320909 209.514699 
L 225.38 211.878555 
L 231.439091 213.161283 
L 237.498182 216.277364 
L 243.557273 218.339508 
L 249.616364 220.898769 
L 255.675455 221.388533 
L 261.734545 226.970026 
L 267.793636 228.391925 
L 273.852727 227.980264 
L 279.911818 231.342857 
L 285.970909 233.162676 
L 292.03 236.09817 
L 298.089091 238.896007 
L 304.148182 238.60232 
L 310.207273 240.132357 
L 316.266364 242.88385 
L 322.325455 243.645819 
L 328.384545 244.268411 
L 334.443636 246.334344 
L 340.502727 246.586499 
L 346.561818 247.442941 
L 352.620909 248.500658 
L 358.68 249.99517 
L 364.739091 249.767247 
L 370.798182 250.308197 
L 376.857273 251.686913 
L 382.916364 253.601498 
L 388.975455 252.737906 
L 395.034545 254.668802 
L 401.093636 253.902434 
L 407.152727 256.493064 
L 413.211818 255.042931 
L 419.270909 256.535267 
L 425.33 258.297819 
L 431.389091 257.830227 
L 437.448182 257.913528 
L 443.507273 258.124084 
L 449.566364 259.811432 
L 455.625455 260.3265 
L 461.684545 259.362691 
L 467.743636 260.387888 
L 473.802727 260.001109 
L 479.861818 259.778048 
L 485.920909 262.523332 
L 491.98 260.863638 
L 498.039091 260.138648 
L 504.098182 261.936768 
L 510.157273 262.694406 
" clip-path="url(#pc16ccf9ee7)" style="fill: none; stroke-dasharray: 6.66,2.88; stroke-dashoffset: 0; stroke: #2f8f52; stroke-width: 1.8"/>
   </g>
   <g id="patch_3">
    <path d="M 52.09 273.782406 
L 52.09 29.846406 
" style="fill: none; stroke: #c4ccd8; stroke-linejoin: miter; stroke-linecap: square"/>
   </g>
   <g id="patch_4">
    <path d="M 52.09 273.782406 
L 531.97 273.782406 
" style="fill: none; stroke: #c4ccd8; stroke-linejoin: miter; stroke-linecap: square"/>
   </g>
   <g id="text_18">
    <!-- 训练损失曲线（示意，约 73 epoch） -->
    <g style="fill: #1b2432" transform="translate(183.791797 19.846406) scale(0.13 -0.13)">
     <defs>
      <path id="NotoSansCJKsc-Bold-8bad" d="M 3949 4909 
L 3949 294 
L 4659 294 
L 4659 4909 
L 3949 4909 
z
M 5229 5280 
L 5229 -493 
L 6003 -493 
L 6003 5280 
L 5229 5280 
z
M 467 4864 
C 864 4557 1382 4109 1619 3827 
L 2125 4403 
C 1869 4678 1325 5094 941 5376 
L 467 4864 
z
M 205 3462 
L 205 2726 
L 954 2726 
L 954 704 
C 954 358 774 122 634 0 
C 755 -102 960 -378 1024 -531 
C 1133 -371 1331 -179 2374 755 
C 2272 448 2138 147 1952 -134 
C 2176 -218 2528 -422 2707 -557 
C 3334 474 3398 1773 3398 3002 
L 3398 5242 
L 2630 5242 
L 2630 3008 
C 2630 2272 2605 1542 2406 864 
C 2317 1018 2208 1280 2144 1466 
L 1690 1069 
L 1690 3462 
L 205 3462 
z
" transform="scale(0.015625)"/>
      <path id="NotoSansCJKsc-Bold-7ec3" d="M 211 480 
L 390 -269 
C 934 -26 1600 288 2240 589 
L 2112 1158 
C 1395 896 678 634 211 480 
z
M 4902 1190 
C 5139 730 5440 122 5574 -243 
L 6221 90 
C 6067 442 5747 1037 5504 1466 
L 4902 1190 
z
M 2906 1478 
C 2739 1043 2394 474 2042 115 
C 2195 19 2438 -166 2573 -294 
C 2963 109 3341 730 3603 1280 
L 2906 1478 
z
M 390 2643 
C 480 2688 621 2726 1088 2784 
C 909 2483 749 2253 666 2150 
C 493 1920 365 1779 211 1741 
C 282 1568 390 1267 435 1114 
L 435 1082 
L 442 1088 
C 595 1178 845 1267 2240 1568 
C 2227 1722 2227 2016 2246 2214 
L 1376 2048 
C 1741 2554 2093 3142 2368 3706 
L 1741 4070 
C 1651 3853 1549 3635 1440 3424 
L 1011 3392 
C 1331 3923 1632 4582 1830 5184 
L 1120 5504 
C 954 4749 602 3930 480 3725 
C 365 3514 269 3373 141 3341 
C 224 3142 346 2790 384 2643 
L 390 2662 
L 390 2643 
z
M 2470 3635 
L 2470 2931 
L 2835 2931 
L 2803 2848 
C 2675 2522 2573 2323 2432 2278 
C 2509 2099 2630 1766 2662 1632 
C 2720 1696 2989 1734 3264 1734 
L 3955 1734 
L 3955 243 
C 3955 160 3930 134 3840 134 
C 3757 134 3462 128 3200 141 
C 3290 -58 3386 -352 3411 -550 
C 3853 -550 4179 -538 4403 -429 
C 4634 -314 4698 -128 4698 230 
L 4698 1734 
L 5894 1734 
L 5894 2426 
L 4698 2426 
L 4698 3635 
L 3782 3635 
L 3917 4083 
L 5984 4083 
L 5984 4787 
L 4102 4787 
L 4237 5376 
L 3488 5472 
C 3456 5248 3411 5018 3360 4787 
L 2368 4787 
L 2368 4083 
L 3194 4083 
L 3066 3635 
L 2470 3635 
z
M 3341 2426 
L 3539 2931 
L 3955 2931 
L 3955 2426 
L 3341 2426 
z
" transform="scale(0.015625)"/>
      <path id="NotoSansCJKsc-Bold-635f" d="M 3482 4646 
L 4851 4646 
L 4851 4058 
L 3482 4058 
L 3482 4646 
z
M 2726 5197 
L 2726 3507 
L 5638 3507 
L 5638 5197 
L 2726 5197 
z
M 3808 2189 
L 3808 1542 
C 3808 1101 3635 486 1920 90 
C 2093 -70 2298 -365 2394 -550 
C 4237 -19 4563 819 4563 1523 
L 4563 2189 
L 3808 2189 
z
M 4416 371 
C 4851 77 5498 -346 5798 -608 
L 6266 -51 
C 5952 198 5293 595 4864 864 
L 4416 371 
z
M 2547 3162 
L 2547 794 
L 3277 794 
L 3277 2566 
L 5075 2566 
L 5075 832 
L 5830 832 
L 5830 3162 
L 2547 3162 
z
M 922 5434 
L 922 4224 
L 230 4224 
L 230 3520 
L 922 3520 
L 922 2240 
L 147 2054 
L 262 1312 
L 922 1498 
L 922 352 
C 922 262 896 237 813 237 
C 730 237 486 237 250 243 
C 346 26 442 -320 461 -525 
C 902 -531 1197 -499 1414 -371 
C 1626 -243 1683 -32 1683 346 
L 1683 1715 
L 2406 1926 
L 2310 2618 
L 1683 2445 
L 1683 3520 
L 2342 3520 
L 2342 4224 
L 1683 4224 
L 1683 5434 
L 922 5434 
z
" transform="scale(0.015625)"/>
      <path id="NotoSansCJKsc-Bold-5931" d="M 2765 5440 
L 2765 4422 
L 1875 4422 
C 1965 4672 2048 4928 2118 5190 
L 1306 5363 
C 1101 4544 730 3712 262 3213 
C 467 3123 838 2931 1005 2803 
C 1190 3034 1363 3322 1530 3642 
L 2765 3642 
L 2765 3405 
C 2765 3149 2752 2893 2714 2630 
L 307 2630 
L 307 1850 
L 2496 1850 
C 2189 1146 1530 512 186 115 
C 352 -45 589 -371 678 -563 
C 2125 -115 2861 608 3226 1427 
C 3744 416 4518 -250 5773 -576 
C 5882 -352 6112 -13 6291 154 
C 5094 403 4307 986 3853 1850 
L 6093 1850 
L 6093 2630 
L 3533 2630 
C 3565 2886 3571 3149 3571 3398 
L 3571 3642 
L 5542 3642 
L 5542 4422 
L 3571 4422 
L 3571 5440 
L 2765 5440 
z
" transform="scale(0.015625)"/>
      <path id="NotoSansCJKsc-Bold-66f2" d="M 3565 5376 
L 3565 4173 
L 2790 4173 
L 2790 5376 
L 2035 5376 
L 2035 4173 
L 544 4173 
L 544 -557 
L 1267 -557 
L 1267 -198 
L 5133 -198 
L 5133 -550 
L 5888 -550 
L 5888 4173 
L 4320 4173 
L 4320 5376 
L 3565 5376 
z
M 1267 550 
L 1267 1619 
L 2035 1619 
L 2035 550 
L 1267 550 
z
M 5133 550 
L 4320 550 
L 4320 1619 
L 5133 1619 
L 5133 550 
z
M 2790 550 
L 2790 1619 
L 3565 1619 
L 3565 550 
L 2790 550 
z
M 1267 2349 
L 1267 3424 
L 2035 3424 
L 2035 2349 
L 1267 2349 
z
M 5133 2349 
L 4320 2349 
L 4320 3424 
L 5133 3424 
L 5133 2349 
z
M 2790 2349 
L 2790 3424 
L 3565 3424 
L 3565 2349 
L 2790 2349 
z
" transform="scale(0.015625)"/>
      <path id="NotoSansCJKsc-Bold-7ebf" d="M 307 454 
L 461 -275 
C 1088 -64 1869 211 2605 474 
L 2483 1107 
C 1683 851 845 595 307 454 
z
M 4525 4979 
C 4787 4800 5139 4538 5318 4371 
L 5779 4819 
C 5594 4979 5229 5229 4973 5376 
L 4525 4979 
z
M 474 2643 
C 576 2694 730 2733 1293 2803 
C 1082 2502 896 2272 794 2170 
C 595 1933 448 1792 282 1754 
C 365 1568 480 1222 518 1082 
C 685 1178 947 1254 2509 1555 
C 2496 1709 2509 2003 2528 2195 
L 1517 2029 
C 1958 2547 2381 3149 2726 3750 
L 2106 4141 
C 1990 3910 1862 3680 1728 3462 
L 1184 3424 
C 1542 3910 1894 4512 2144 5082 
L 1427 5427 
C 1197 4698 755 3923 614 3725 
C 474 3520 365 3392 230 3354 
C 314 3155 435 2790 474 2643 
z
M 5517 2246 
C 5325 1939 5082 1664 4800 1414 
C 4742 1664 4685 1946 4634 2246 
L 6112 2522 
L 5984 3187 
L 4544 2925 
L 4486 3526 
L 5946 3757 
L 5818 4429 
L 4442 4218 
C 4422 4627 4416 5043 4422 5459 
L 3654 5459 
C 3654 5011 3667 4550 3693 4102 
L 2765 3962 
L 2886 3270 
L 3738 3405 
L 3802 2790 
L 2624 2579 
L 2752 1894 
L 3891 2106 
C 3962 1677 4051 1280 4154 928 
C 3629 595 3027 339 2400 154 
C 2573 -26 2765 -288 2861 -486 
C 3411 -288 3936 -45 4410 256 
C 4659 -256 4986 -570 5395 -570 
C 5907 -570 6112 -365 6234 429 
C 6067 512 5843 672 5696 851 
C 5664 333 5606 173 5485 173 
C 5325 173 5165 365 5030 698 
C 5472 1062 5856 1478 6163 1958 
L 5517 2246 
z
" transform="scale(0.015625)"/>
      <path id="NotoSansCJKsc-Bold-ff08" d="M 4243 2432 
C 4243 1062 4813 38 5504 -640 
L 6112 -371 
C 5472 320 4966 1203 4966 2432 
C 4966 3661 5472 4544 6112 5235 
L 5504 5504 
C 4813 4826 4243 3802 4243 2432 
z
" transform="scale(0.015625)"/>
      <path id="NotoSansCJKsc-Bold-793a" d="M 1261 2253 
C 1030 1587 608 902 141 480 
C 339 378 691 154 851 19 
C 1306 499 1786 1274 2074 2042 
L 1261 2253 
z
M 4294 1978 
C 4710 1350 5146 525 5286 0 
L 6086 346 
C 5907 896 5440 1683 5018 2272 
L 4294 1978 
z
M 928 5024 
L 928 4262 
L 5466 4262 
L 5466 5024 
L 928 5024 
z
M 346 3482 
L 346 2720 
L 2803 2720 
L 2803 346 
C 2803 256 2758 224 2643 224 
C 2522 218 2061 224 1696 243 
C 1811 13 1933 -339 1971 -576 
C 2528 -576 2950 -563 3251 -442 
C 3552 -320 3642 -102 3642 326 
L 3642 2720 
L 6067 2720 
L 6067 3482 
L 346 3482 
z
" transform="scale(0.015625)"/>
      <path id="NotoSansCJKsc-Bold-610f" d="M 1830 966 
L 1830 288 
C 1830 -320 2022 -506 2835 -506 
C 3002 -506 3699 -506 3878 -506 
C 4474 -506 4678 -326 4762 397 
C 4563 435 4262 531 4109 634 
C 4077 179 4038 109 3802 109 
C 3622 109 3053 109 2925 109 
C 2630 109 2573 128 2573 301 
L 2573 966 
L 1830 966 
z
M 4659 845 
C 4960 486 5280 -6 5395 -326 
L 6061 -26 
C 5920 307 5581 774 5274 1114 
L 4659 845 
z
M 1043 1056 
C 877 672 576 237 250 -38 
L 883 -416 
C 1222 -102 1485 365 1683 774 
L 1043 1056 
z
M 1882 2003 
L 4538 2003 
L 4538 1728 
L 1882 1728 
L 1882 2003 
z
M 1882 2726 
L 4538 2726 
L 4538 2458 
L 1882 2458 
L 1882 2726 
z
M 1152 3206 
L 1152 1248 
L 2790 1248 
L 2522 992 
C 2880 826 3322 550 3533 358 
L 4000 832 
C 3840 960 3584 1120 3322 1248 
L 5299 1248 
L 5299 3206 
L 1152 3206 
z
M 2368 4486 
L 4032 4486 
C 3994 4352 3923 4186 3859 4038 
L 2547 4038 
C 2509 4173 2438 4346 2368 4486 
z
M 2714 5376 
L 2822 5082 
L 736 5082 
L 736 4486 
L 2118 4486 
L 1645 4390 
C 1690 4288 1741 4160 1773 4038 
L 429 4038 
L 429 3443 
L 5990 3443 
L 5990 4038 
L 4640 4038 
L 4845 4390 
L 4320 4486 
L 5651 4486 
L 5651 5082 
L 3654 5082 
C 3603 5229 3533 5389 3462 5517 
L 2714 5376 
z
" transform="scale(0.015625)"/>
      <path id="NotoSansCJKsc-Bold-ff0c" d="M 1242 -883 
C 2035 -646 2502 -58 2502 672 
C 2502 1210 2266 1549 1811 1549 
C 1472 1549 1184 1331 1184 973 
C 1184 608 1472 397 1792 397 
L 1862 403 
C 1824 70 1530 -205 1037 -365 
L 1242 -883 
z
" transform="scale(0.015625)"/>
      <path id="NotoSansCJKsc-Bold-7ea6" d="M 179 467 
L 294 -256 
C 992 -128 1907 32 2778 205 
L 2733 870 
C 1805 717 826 550 179 467 
z
M 3046 2458 
C 3501 2061 4026 1498 4250 1114 
L 4806 1606 
C 4570 1997 4019 2522 3565 2893 
L 3046 2458 
z
M 384 2650 
C 493 2701 646 2733 1242 2803 
C 1018 2496 826 2266 730 2163 
C 525 1933 371 1792 211 1754 
C 288 1568 403 1229 442 1088 
C 621 1184 902 1248 2656 1536 
C 2630 1696 2611 1984 2624 2182 
L 1427 2016 
C 1882 2534 2317 3136 2669 3731 
L 2054 4122 
C 1939 3891 1805 3661 1670 3443 
L 1114 3398 
C 1478 3904 1843 4525 2112 5126 
L 1382 5427 
C 1133 4691 685 3917 538 3718 
C 397 3507 275 3386 141 3347 
C 224 3155 346 2797 384 2650 
z
M 3469 5440 
C 3290 4570 2950 3686 2515 3142 
C 2688 3046 3008 2835 3149 2720 
C 3322 2963 3488 3258 3635 3590 
L 5242 3590 
C 5184 1382 5114 461 4928 262 
C 4858 179 4787 154 4666 154 
C 4499 154 4147 154 3757 186 
C 3891 -13 3987 -333 4000 -538 
C 4365 -550 4749 -557 4986 -518 
C 5242 -480 5414 -410 5594 -173 
C 5837 154 5914 1146 5984 3949 
C 5984 4038 5990 4294 5990 4294 
L 3917 4294 
C 4026 4614 4128 4947 4205 5286 
L 3469 5440 
z
" transform="scale(0.015625)"/>
      <path id="NotoSansCJKsc-Bold-20" transform="scale(0.015625)"/>
      <path id="NotoSansCJKsc-Bold-37" d="M 1190 0 
L 2138 0 
C 2221 1850 2368 2822 3469 4166 
L 3469 4742 
L 320 4742 
L 320 3949 
L 2451 3949 
C 1549 2694 1274 1645 1190 0 
z
" transform="scale(0.015625)"/>
      <path id="NotoSansCJKsc-Bold-33" d="M 1747 -90 
C 2656 -90 3418 410 3418 1280 
C 3418 1907 3008 2304 2477 2451 
L 2477 2483 
C 2976 2682 3264 3053 3264 3565 
C 3264 4378 2643 4826 1728 4826 
C 1171 4826 717 4602 307 4250 
L 794 3667 
C 1069 3930 1344 4083 1683 4083 
C 2086 4083 2317 3866 2317 3494 
C 2317 3066 2035 2771 1171 2771 
L 1171 2093 
C 2195 2093 2470 1805 2470 1338 
C 2470 915 2144 678 1664 678 
C 1229 678 890 890 608 1165 
L 166 570 
C 499 192 1005 -90 1747 -90 
z
" transform="scale(0.015625)"/>
      <path id="NotoSansCJKsc-Bold-65" d="M 2067 -90 
C 2509 -90 2963 64 3315 307 
L 2995 883 
C 2733 723 2483 640 2195 640 
C 1658 640 1274 941 1197 1523 
L 3405 1523 
C 3430 1613 3450 1786 3450 1958 
C 3450 2957 2938 3674 1952 3674 
C 1101 3674 282 2950 282 1792 
C 282 608 1062 -90 2067 -90 
z
M 1178 2157 
C 1254 2675 1587 2944 1965 2944 
C 2432 2944 2643 2637 2643 2157 
L 1178 2157 
z
" transform="scale(0.015625)"/>
      <path id="NotoSansCJKsc-Bold-70" d="M 506 -1376 
L 1446 -1376 
L 1446 -282 
L 1414 301 
C 1683 51 1990 -90 2304 -90 
C 3091 -90 3827 621 3827 1850 
C 3827 2950 3296 3674 2419 3674 
C 2029 3674 1664 3469 1363 3213 
L 1344 3213 
L 1274 3584 
L 506 3584 
L 506 -1376 
z
M 2099 685 
C 1901 685 1677 755 1446 954 
L 1446 2534 
C 1690 2778 1907 2899 2150 2899 
C 2643 2899 2861 2522 2861 1837 
C 2861 1056 2522 685 2099 685 
z
" transform="scale(0.015625)"/>
      <path id="NotoSansCJKsc-Bold-6f" d="M 2003 -90 
C 2899 -90 3725 602 3725 1792 
C 3725 2982 2899 3674 2003 3674 
C 1101 3674 282 2982 282 1792 
C 282 602 1101 -90 2003 -90 
z
M 2003 678 
C 1510 678 1242 1114 1242 1792 
C 1242 2464 1510 2906 2003 2906 
C 2490 2906 2765 2464 2765 1792 
C 2765 1114 2490 678 2003 678 
z
" transform="scale(0.015625)"/>
      <path id="NotoSansCJKsc-Bold-63" d="M 2029 -90 
C 2426 -90 2861 45 3200 346 
L 2829 966 
C 2630 800 2394 678 2131 678 
C 1613 678 1242 1114 1242 1792 
C 1242 2464 1613 2906 2163 2906 
C 2362 2906 2528 2822 2707 2675 
L 3155 3270 
C 2893 3507 2554 3674 2112 3674 
C 1139 3674 282 2982 282 1792 
C 282 602 1043 -90 2029 -90 
z
" transform="scale(0.015625)"/>
      <path id="NotoSansCJKsc-Bold-68" d="M 506 0 
L 1446 0 
L 1446 2464 
C 1709 2726 1901 2867 2189 2867 
C 2541 2867 2694 2675 2694 2118 
L 2694 0 
L 3635 0 
L 3635 2234 
C 3635 3136 3302 3674 2528 3674 
C 2042 3674 1683 3418 1402 3149 
L 1446 3821 
L 1446 5107 
L 506 5107 
L 506 0 
z
" transform="scale(0.015625)"/>
      <path id="NotoSansCJKsc-Bold-ff09" d="M 2157 2432 
C 2157 3802 1587 4826 896 5504 
L 288 5235 
C 928 4544 1434 3661 1434 2432 
C 1434 1203 928 320 288 -371 
L 896 -640 
C 1587 38 2157 1062 2157 2432 
z
" transform="scale(0.015625)"/>
     </defs>
     <use xlink:href="#NotoSansCJKsc-Bold-8bad"/>
     <use xlink:href="#NotoSansCJKsc-Bold-7ec3" transform="translate(99.999985 0)"/>
     <use xlink:href="#NotoSansCJKsc-Bold-635f" transform="translate(199.999969 0)"/>
     <use xlink:href="#NotoSansCJKsc-Bold-5931" transform="translate(299.999954 0)"/>
     <use xlink:href="#NotoSansCJKsc-Bold-66f2" transform="translate(399.999939 0)"/>
     <use xlink:href="#NotoSansCJKsc-Bold-7ebf" transform="translate(499.999924 0)"/>
     <use xlink:href="#NotoSansCJKsc-Bold-ff08" transform="translate(599.999908 0)"/>
     <use xlink:href="#NotoSansCJKsc-Bold-793a" transform="translate(699.999893 0)"/>
     <use xlink:href="#NotoSansCJKsc-Bold-610f" transform="translate(799.999878 0)"/>
     <use xlink:href="#NotoSansCJKsc-Bold-ff0c" transform="translate(899.999863 0)"/>
     <use xlink:href="#NotoSansCJKsc-Bold-7ea6" transform="translate(999.999847 0)"/>
     <use xlink:href="#NotoSansCJKsc-Bold-20" transform="translate(1099.999832 0)"/>
     <use xlink:href="#NotoSansCJKsc-Bold-37" transform="translate(1122.699829 0)"/>
     <use xlink:href="#NotoSansCJKsc-Bold-33" transform="translate(1181.699814 0)"/>
     <use xlink:href="#NotoSansCJKsc-Bold-20" transform="translate(1240.699799 0)"/>
     <use xlink:href="#NotoSansCJKsc-Bold-65" transform="translate(1263.399796 0)"/>
     <use xlink:href="#NotoSansCJKsc-Bold-70" transform="translate(1321.499786 0)"/>
     <use xlink:href="#NotoSansCJKsc-Bold-6f" transform="translate(1385.89978 0)"/>
     <use xlink:href="#NotoSansCJKsc-Bold-63" transform="translate(1448.499771 0)"/>
     <use xlink:href="#NotoSansCJKsc-Bold-68" transform="translate(1501.199768 0)"/>
     <use xlink:href="#NotoSansCJKsc-Bold-ff09" transform="translate(1565.199753 0)"/>
    </g>
   </g>
   <g id="legend_1">
    <g id="line2d_33">
     <path d="M 462.67 144.352844 
L 471.67 144.352844 
L 480.67 144.352844 
" style="fill: none; stroke: #2f6fd0; stroke-width: 2.2; stroke-linecap: square"/>
    </g>
    <g id="text_19">
     <!-- 总损失 -->
     <g style="fill: #1b2432" transform="translate(487.87 147.502844) scale(0.09 -0.09)">
      <defs>
       <path id="NotoSansCJKsc-Regular-603b" d="M 4858 1370 
C 5222 928 5600 333 5741 -64 
L 6131 179 
C 5990 582 5600 1152 5222 1581 
L 4858 1370 
z
M 2637 1722 
C 3059 1434 3546 979 3782 666 
L 4141 973 
C 3898 1274 3405 1709 2976 1990 
L 2637 1722 
z
M 1798 1542 
L 1798 218 
C 1798 -301 1997 -442 2758 -442 
C 2912 -442 4032 -442 4198 -442 
C 4787 -442 4947 -262 5018 474 
C 4877 499 4672 576 4563 646 
C 4525 83 4480 -6 4160 -6 
C 3910 -6 2970 -6 2784 -6 
C 2374 -6 2304 32 2304 224 
L 2304 1542 
L 1798 1542 
z
M 877 1440 
C 762 947 538 384 275 58 
L 717 -154 
C 1005 230 1216 832 1331 1357 
L 877 1440 
z
M 1696 3629 
L 4717 3629 
L 4717 2502 
L 1696 2502 
L 1696 3629 
z
M 1190 4083 
L 1190 2042 
L 5248 2042 
L 5248 4083 
L 4205 4083 
C 4429 4410 4666 4806 4870 5171 
L 4378 5370 
C 4211 4986 3930 4454 3680 4083 
L 2368 4083 
L 2746 4275 
C 2630 4576 2336 5018 2054 5350 
L 1645 5158 
C 1914 4832 2182 4384 2291 4083 
L 1190 4083 
z
" transform="scale(0.015625)"/>
      </defs>
      <use xlink:href="#NotoSansCJKsc-Regular-603b"/>
      <use xlink:href="#NotoSansCJKsc-Regular-635f" transform="translate(99.999985 0)"/>
      <use xlink:href="#NotoSansCJKsc-Regular-5931" transform="translate(199.999969 0)"/>
     </g>
    </g>
    <g id="line2d_34">
     <path d="M 462.67 158.077844 
L 471.67 158.077844 
L 480.67 158.077844 
" style="fill: none; stroke-dasharray: 6.66,2.88; stroke-dashoffset: 0; stroke: #2f8f52; stroke-width: 1.8"/>
    </g>
    <g id="text_20">
     <!-- 重构损失 -->
     <g style="fill: #1b2432" transform="translate(487.87 161.227844) scale(0.09 -0.09)">
      <defs>
       <path id="NotoSansCJKsc-Regular-91cd" d="M 1018 3456 
L 1018 1466 
L 2938 1466 
L 2938 1024 
L 813 1024 
L 813 640 
L 2938 640 
L 2938 83 
L 333 83 
L 333 -307 
L 6074 -307 
L 6074 83 
L 3418 83 
L 3418 640 
L 5670 640 
L 5670 1024 
L 3418 1024 
L 3418 1466 
L 5427 1466 
L 5427 3456 
L 3418 3456 
L 3418 3846 
L 6042 3846 
L 6042 4243 
L 3418 4243 
L 3418 4736 
C 4166 4794 4870 4870 5421 4966 
L 5165 5338 
C 4154 5158 2342 5037 851 4998 
C 896 4902 947 4730 954 4621 
C 1581 4634 2266 4659 2938 4698 
L 2938 4243 
L 371 4243 
L 371 3846 
L 2938 3846 
L 2938 3456 
L 1018 3456 
z
M 1485 2304 
L 2938 2304 
L 2938 1818 
L 1485 1818 
L 1485 2304 
z
M 3418 2304 
L 4941 2304 
L 4941 1818 
L 3418 1818 
L 3418 2304 
z
M 1485 3110 
L 2938 3110 
L 2938 2630 
L 1485 2630 
L 1485 3110 
z
M 3418 3110 
L 4941 3110 
L 4941 2630 
L 3418 2630 
L 3418 3110 
z
" transform="scale(0.015625)"/>
       <path id="NotoSansCJKsc-Regular-6784" d="M 3302 5376 
C 3098 4512 2746 3661 2285 3117 
C 2400 3053 2592 2899 2682 2822 
C 2899 3110 3110 3475 3290 3878 
L 5517 3878 
C 5434 1254 5338 275 5146 51 
C 5082 -32 5018 -51 4902 -45 
C 4768 -45 4461 -45 4122 -13 
C 4198 -154 4256 -358 4269 -493 
C 4582 -512 4902 -518 5101 -493 
C 5306 -467 5446 -416 5574 -237 
C 5811 77 5901 1069 5997 4077 
C 5997 4141 6003 4326 6003 4326 
L 3475 4326 
C 3590 4627 3693 4947 3776 5274 
L 3302 5376 
z
M 4045 2406 
C 4154 2176 4269 1907 4365 1651 
L 3232 1453 
C 3520 1984 3802 2656 4006 3309 
L 3546 3443 
C 3373 2707 3014 1901 2906 1696 
C 2797 1485 2707 1331 2605 1312 
C 2656 1197 2733 973 2752 883 
C 2874 954 3072 1005 4499 1293 
C 4557 1120 4602 960 4634 832 
L 5018 992 
C 4915 1382 4646 2042 4397 2534 
L 4045 2406 
z
M 1274 5376 
L 1274 4141 
L 320 4141 
L 320 3693 
L 1229 3693 
C 1024 2816 621 1798 205 1261 
C 294 1146 410 934 461 794 
C 762 1222 1056 1920 1274 2643 
L 1274 -506 
L 1734 -506 
L 1734 2803 
C 1920 2477 2125 2086 2221 1875 
L 2522 2227 
C 2406 2419 1901 3194 1734 3392 
L 1734 3693 
L 2477 3693 
L 2477 4141 
L 1734 4141 
L 1734 5376 
L 1274 5376 
z
" transform="scale(0.015625)"/>
      </defs>
      <use xlink:href="#NotoSansCJKsc-Regular-91cd"/>
      <use xlink:href="#NotoSansCJKsc-Regular-6784" transform="translate(99.999985 0)"/>
      <use xlink:href="#NotoSansCJKsc-Regular-635f" transform="translate(199.999969 0)"/>
      <use xlink:href="#NotoSansCJKsc-Regular-5931" transform="translate(299.999954 0)"/>
     </g>
    </g>
   </g>
  </g>
  <g id="axes_2">
   <g id="matplotlib.axis_3">
    <g id="ytick_8">
     <g id="line2d_35">
      <defs>
       <path id="m4eefe1cedd" d="M 0 0 
L 3.5 0 
" style="stroke: #b9821f; stroke-width: 0.8"/>
      </defs>
      <g>
       <use xlink:href="#m4eefe1cedd" x="531.97" y="273.782406" style="fill: #b9821f; stroke: #b9821f; stroke-width: 0.8"/>
      </g>
     </g>
     <g id="text_21">
      <!-- 0.0 -->
      <g style="fill: #b9821f" transform="translate(538.97 277.762094) scale(0.1 -0.1)">
       <defs>
        <path id="NotoSansCJKsc-Regular-2e" d="M 890 -83 
C 1120 -83 1312 96 1312 358 
C 1312 627 1120 806 890 806 
C 653 806 467 627 467 358 
C 467 96 653 -83 890 -83 
z
" transform="scale(0.015625)"/>
       </defs>
       <use xlink:href="#NotoSansCJKsc-Regular-30"/>
       <use xlink:href="#NotoSansCJKsc-Regular-2e" transform="translate(55.499985 0)"/>
       <use xlink:href="#NotoSansCJKsc-Regular-30" transform="translate(83.299973 0)"/>
      </g>
     </g>
    </g>
    <g id="ytick_9">
     <g id="line2d_36">
      <g>
       <use xlink:href="#m4eefe1cedd" x="531.97" y="225.951818" style="fill: #b9821f; stroke: #b9821f; stroke-width: 0.8"/>
      </g>
     </g>
     <g id="text_22">
      <!-- 0.2 -->
      <g style="fill: #b9821f" transform="translate(538.97 229.931506) scale(0.1 -0.1)">
       <use xlink:href="#NotoSansCJKsc-Regular-30"/>
       <use xlink:href="#NotoSansCJKsc-Regular-2e" transform="translate(55.499985 0)"/>
       <use xlink:href="#NotoSansCJKsc-Regular-32" transform="translate(83.299973 0)"/>
      </g>
     </g>
    </g>
    <g id="ytick_10">
     <g id="line2d_37">
      <g>
       <use xlink:href="#m4eefe1cedd" x="531.97" y="178.12123" style="fill: #b9821f; stroke: #b9821f; stroke-width: 0.8"/>
      </g>
     </g>
     <g id="text_23">
      <!-- 0.4 -->
      <g style="fill: #b9821f" transform="translate(538.97 182.100917) scale(0.1 -0.1)">
       <use xlink:href="#NotoSansCJKsc-Regular-30"/>
       <use xlink:href="#NotoSansCJKsc-Regular-2e" transform="translate(55.499985 0)"/>
       <use xlink:href="#NotoSansCJKsc-Regular-34" transform="translate(83.299973 0)"/>
      </g>
     </g>
    </g>
    <g id="ytick_11">
     <g id="line2d_38">
      <g>
       <use xlink:href="#m4eefe1cedd" x="531.97" y="130.290642" style="fill: #b9821f; stroke: #b9821f; stroke-width: 0.8"/>
      </g>
     </g>
     <g id="text_24">
      <!-- 0.6 -->
      <g style="fill: #b9821f" transform="translate(538.97 134.270329) scale(0.1 -0.1)">
       <use xlink:href="#NotoSansCJKsc-Regular-30"/>
       <use xlink:href="#NotoSansCJKsc-Regular-2e" transform="translate(55.499985 0)"/>
       <use xlink:href="#NotoSansCJKsc-Regular-36" transform="translate(83.299973 0)"/>
      </g>
     </g>
    </g>
    <g id="ytick_12">
     <g id="line2d_39">
      <g>
       <use xlink:href="#m4eefe1cedd" x="531.97" y="82.460053" style="fill: #b9821f; stroke: #b9821f; stroke-width: 0.8"/>
      </g>
     </g>
     <g id="text_25">
      <!-- 0.8 -->
      <g style="fill: #b9821f" transform="translate(538.97 86.439741) scale(0.1 -0.1)">
       <use xlink:href="#NotoSansCJKsc-Regular-30"/>
       <use xlink:href="#NotoSansCJKsc-Regular-2e" transform="translate(55.499985 0)"/>
       <use xlink:href="#NotoSansCJKsc-Regular-38" transform="translate(83.299973 0)"/>
      </g>
     </g>
    </g>
    <g id="ytick_13">
     <g id="line2d_40">
      <g>
       <use xlink:href="#m4eefe1cedd" x="531.97" y="34.629465" style="fill: #b9821f; stroke: #b9821f; stroke-width: 0.8"/>
      </g>
     </g>
     <g id="text_26">
      <!-- 1.0 -->
      <g style="fill: #b9821f" transform="translate(538.97 38.609153) scale(0.1 -0.1)">
       <use xlink:href="#NotoSansCJKsc-Regular-31"/>
       <use xlink:href="#NotoSansCJKsc-Regular-2e" transform="translate(55.499985 0)"/>
       <use xlink:href="#NotoSansCJKsc-Regular-30" transform="translate(83.299973 0)"/>
      </g>
     </g>
    </g>
    <g id="text_27">
     <!-- KL 权重 λ_KL -->
     <g style="fill: #b9821f" transform="translate(564.809063 181.499562) rotate(-90) scale(0.1 -0.1)">
      <defs>
       <path id="NotoSansCJKsc-Regular-4b" d="M 646 0 
L 1235 0 
L 1235 1485 
L 2042 2445 
L 3450 0 
L 4109 0 
L 2413 2912 
L 3885 4691 
L 3213 4691 
L 1248 2336 
L 1235 2336 
L 1235 4691 
L 646 4691 
L 646 0 
z
" transform="scale(0.015625)"/>
       <path id="NotoSansCJKsc-Regular-4c" d="M 646 0 
L 3290 0 
L 3290 506 
L 1235 506 
L 1235 4691 
L 646 4691 
L 646 0 
z
" transform="scale(0.015625)"/>
       <path id="NotoSansCJKsc-Regular-20" transform="scale(0.015625)"/>
       <path id="NotoSansCJKsc-Regular-6743" d="M 5459 4320 
C 5254 3206 4870 2278 4358 1549 
C 3878 2291 3584 3181 3379 4320 
L 5459 4320 
z
M 2707 4787 
L 2707 4320 
L 2931 4320 
C 3162 3002 3488 1990 4051 1152 
C 3558 576 2976 154 2342 -109 
C 2451 -198 2579 -390 2643 -506 
C 3277 -211 3853 205 4346 762 
C 4736 282 5229 -141 5850 -544 
C 5920 -403 6067 -243 6195 -147 
C 5549 237 5050 659 4653 1146 
C 5299 2022 5766 3200 5984 4710 
L 5683 4806 
L 5600 4787 
L 2707 4787 
z
M 1357 5376 
L 1357 4019 
L 294 4019 
L 294 3571 
L 1242 3571 
C 1011 2682 563 1664 122 1126 
C 211 1005 339 794 403 653 
C 762 1114 1107 1901 1357 2694 
L 1357 -506 
L 1830 -506 
L 1830 2752 
C 2106 2400 2470 1907 2618 1664 
L 2906 2093 
C 2752 2278 2035 3104 1830 3302 
L 1830 3571 
L 2688 3571 
L 2688 4019 
L 1830 4019 
L 1830 5376 
L 1357 5376 
z
" transform="scale(0.015625)"/>
       <path id="NotoSansCJKsc-Regular-3bb" d="M 736 -58 
L 1869 2886 
L 1901 2886 
L 2861 0 
L 3482 0 
L 2163 3674 
C 1850 4672 1510 5178 819 5178 
C 512 5178 326 5126 160 5056 
L 314 4563 
C 435 4627 563 4685 755 4685 
C 1152 4685 1389 4339 1581 3699 
L 1626 3552 
L 115 0 
L 736 -58 
z
" transform="scale(0.015625)"/>
       <path id="NotoSansCJKsc-Regular-5f" d="M 83 -896 
L 3488 -896 
L 3488 -512 
L 83 -512 
L 83 -896 
z
" transform="scale(0.015625)"/>
      </defs>
      <use xlink:href="#NotoSansCJKsc-Regular-4b"/>
      <use xlink:href="#NotoSansCJKsc-Regular-4c" transform="translate(64.599991 0)"/>
      <use xlink:href="#NotoSansCJKsc-Regular-20" transform="translate(118.899979 0)"/>
      <use xlink:href="#NotoSansCJKsc-Regular-6743" transform="translate(141.299973 0)"/>
      <use xlink:href="#NotoSansCJKsc-Regular-91cd" transform="translate(241.299957 0)"/>
      <use xlink:href="#NotoSansCJKsc-Regular-20" transform="translate(341.299942 0)"/>
      <use xlink:href="#NotoSansCJKsc-Regular-3bb" transform="translate(363.699936 0)"/>
      <use xlink:href="#NotoSansCJKsc-Regular-5f" transform="translate(418.899933 0)"/>
      <use xlink:href="#NotoSansCJKsc-Regular-4b" transform="translate(474.799927 0)"/>
      <use xlink:href="#NotoSansCJKsc-Regular-4c" transform="translate(539.399918 0)"/>
     </g>
    </g>
   </g>
   <g id="line2d_41">
    <path d="M 73.902727 273.184524 
L 79.961818 272.586642 
L 86.020909 271.988759 
L 92.08 271.390877 
L 98.139091 270.792994 
L 104.198182 270.195112 
L 110.257273 269.59723 
L 116.316364 268.999347 
L 122.375455 268.401465 
L 128.434545 267.803583 
L 134.493636 267.2057 
L 140.552727 266.607818 
L 146.611818 266.009936 
L 152.670909 265.412053 
L 158.73 264.814171 
L 164.789091 264.216289 
L 170.848182 263.618406 
L 176.907273 263.020524 
L 182.966364 262.422642 
L 189.025455 261.824759 
L 195.084545 261.226877 
L 201.143636 260.628994 
L 207.202727 260.031112 
L 213.261818 259.43323 
L 219.320909 258.835347 
L 225.38 258.237465 
L 231.439091 257.639583 
L 237.498182 257.0417 
L 243.557273 256.443818 
L 249.616364 255.845936 
L 255.675455 255.248053 
L 261.734545 254.650171 
L 267.793636 254.052289 
L 273.852727 253.454406 
L 279.911818 252.856524 
L 285.970909 252.258642 
L 292.03 251.660759 
L 298.089091 251.062877 
L 304.148182 250.464994 
L 310.207273 249.867112 
L 316.266364 249.26923 
L 322.325455 248.671347 
L 328.384545 248.073465 
L 334.443636 247.475583 
L 340.502727 246.8777 
L 346.561818 246.279818 
L 352.620909 245.681936 
L 358.68 245.084053 
L 364.739091 244.486171 
L 370.798182 243.888289 
L 376.857273 243.290406 
L 382.916364 242.692524 
L 388.975455 242.094642 
L 395.034545 241.496759 
L 401.093636 240.898877 
L 407.152727 240.300994 
L 413.211818 239.703112 
L 419.270909 239.10523 
L 425.33 238.507347 
L 431.389091 237.909465 
L 437.448182 237.311583 
L 443.507273 236.7137 
L 449.566364 236.115818 
L 455.625455 235.517936 
L 461.684545 234.920053 
L 467.743636 234.322171 
L 473.802727 233.724289 
L 479.861818 233.126406 
L 485.920909 232.528524 
L 491.98 231.930642 
L 498.039091 231.332759 
L 504.098182 230.734877 
L 510.157273 230.136994 
" clip-path="url(#pc16ccf9ee7)" style="fill: none; stroke: #b9821f; stroke-width: 1.8; stroke-linecap: square"/>
   </g>
   <g id="line2d_42">
    <path d="M 52.09 230.734877 
L 531.97 230.734877 
" clip-path="url(#pc16ccf9ee7)" style="fill: none; stroke-dasharray: 1.1,1.815; stroke-dashoffset: 0; stroke: #b9821f; stroke-opacity: 0.7; stroke-width: 1.1"/>
   </g>
   <g id="patch_5">
    <path d="M 52.09 273.782406 
L 52.09 29.846406 
" style="fill: none; stroke: #c4ccd8; stroke-linejoin: miter; stroke-linecap: square"/>
   </g>
   <g id="patch_6">
    <path d="M 531.97 273.782406 
L 531.97 29.846406 
" style="fill: none; stroke: #c4ccd8; stroke-linejoin: miter; stroke-linecap: square"/>
   </g>
   <g id="patch_7">
    <path d="M 52.09 273.782406 
L 531.97 273.782406 
" style="fill: none; stroke: #c4ccd8; stroke-linejoin: miter; stroke-linecap: square"/>
   </g>
   <g id="patch_8">
    <path d="M 325.323311 158.900075 
Q 416.808169 194.455211 507.250928 229.60534 
" style="fill: none; stroke: #b9821f; stroke-linecap: round"/>
    <path d="M 504.667636 226.756024 
L 507.250928 229.60534 
L 503.4215 229.962384 
" style="fill: none; stroke: #b9821f; stroke-linecap: round"/>
   </g>
   <g id="text_28">
    <!-- 默认 warmup=400，到 73 epoch 时 λ_KL≈0.18（从没到 1） -->
    <g style="fill: #b9821f" transform="translate(189.025455 154.205936) scale(0.086 -0.086)">
     <defs>
      <path id="NotoSansCJKsc-Regular-9ed8" d="M 4864 4864 
C 5126 4544 5440 4096 5574 3821 
L 5914 4038 
C 5766 4307 5446 4730 5178 5043 
L 4864 4864 
z
M 1056 4486 
C 1165 4173 1242 3763 1254 3494 
L 1510 3565 
C 1491 3821 1408 4230 1293 4544 
L 1056 4486 
z
M 1299 762 
C 1350 403 1376 -51 1363 -352 
L 1696 -314 
C 1702 -19 1670 442 1606 794 
L 1299 762 
z
M 1926 762 
C 2035 442 2118 19 2131 -256 
L 2458 -179 
C 2432 83 2342 506 2221 826 
L 1926 762 
z
M 2573 800 
C 2694 538 2810 205 2842 -13 
L 3162 109 
C 3123 320 3008 646 2874 896 
L 2573 800 
z
M 730 909 
C 614 563 416 70 211 -237 
L 550 -397 
C 742 -77 922 416 1050 768 
L 730 909 
z
M 2374 4550 
C 2317 4250 2189 3789 2093 3520 
L 2310 3430 
C 2419 3686 2547 4102 2662 4442 
L 2374 4550 
z
M 4371 5370 
L 4371 3917 
L 4365 3526 
L 3296 3526 
L 3296 3072 
L 4346 3072 
C 4269 2003 3994 806 3066 -205 
C 3194 -282 3347 -390 3437 -486 
C 4122 288 4467 1158 4640 2022 
C 4902 941 5312 45 5939 -486 
C 6016 -365 6163 -198 6272 -115 
C 5478 474 5024 1690 4794 3072 
L 6080 3072 
L 6080 3526 
L 4787 3526 
L 4794 3917 
L 4794 5370 
L 4371 5370 
z
M 947 4813 
L 1702 4813 
L 1702 3232 
L 947 3232 
L 947 4813 
z
M 2016 4813 
L 2726 4813 
L 2726 3232 
L 2016 3232 
L 2016 4813 
z
M 525 2419 
L 525 2029 
L 1645 2029 
L 1645 1530 
L 384 1466 
L 416 1037 
C 1146 1088 2182 1152 3187 1222 
L 3194 1613 
L 2067 1549 
L 2067 2029 
L 3098 2029 
L 3098 2419 
L 2067 2419 
L 2067 2880 
L 3110 2880 
L 3110 5158 
L 570 5158 
L 570 2880 
L 1645 2880 
L 1645 2419 
L 525 2419 
z
" transform="scale(0.015625)"/>
      <path id="NotoSansCJKsc-Regular-8ba4" d="M 909 4960 
C 1229 4666 1664 4243 1869 4000 
L 2208 4352 
C 1990 4589 1549 4979 1229 5254 
L 909 4960 
z
M 3981 5370 
C 3968 3200 4000 954 2381 -179 
C 2509 -256 2662 -403 2746 -512 
C 3603 109 4032 1030 4243 2093 
C 4486 1190 4941 109 5843 -506 
C 5926 -384 6067 -243 6195 -154 
C 4794 749 4499 2778 4416 3398 
C 4461 4038 4461 4710 4467 5370 
L 3981 5370 
z
M 301 3366 
L 301 2906 
L 1376 2906 
L 1376 710 
C 1376 403 1158 186 1024 96 
C 1114 13 1248 -154 1293 -256 
C 1382 -134 1555 0 2778 858 
C 2733 954 2669 1133 2637 1261 
L 1843 730 
L 1843 3366 
L 301 3366 
z
" transform="scale(0.015625)"/>
      <path id="NotoSansCJKsc-Regular-77" d="M 1139 0 
L 1818 0 
L 2310 1862 
C 2400 2195 2470 2522 2547 2874 
L 2579 2874 
C 2662 2522 2726 2202 2816 1875 
L 3315 0 
L 4026 0 
L 4966 3475 
L 4403 3475 
L 3898 1466 
C 3821 1133 3757 819 3686 499 
L 3654 499 
C 3571 819 3494 1133 3411 1466 
L 2867 3475 
L 2298 3475 
L 1754 1466 
C 1670 1133 1594 819 1523 499 
L 1491 499 
C 1421 819 1357 1133 1286 1466 
L 768 3475 
L 173 3475 
L 1139 0 
z
" transform="scale(0.015625)"/>
      <path id="NotoSansCJKsc-Regular-61" d="M 1389 -83 
C 1818 -83 2208 141 2541 416 
L 2560 416 
L 2611 0 
L 3091 0 
L 3091 2138 
C 3091 3002 2739 3565 1888 3565 
C 1325 3565 838 3315 525 3110 
L 749 2707 
C 1024 2893 1389 3078 1792 3078 
C 2362 3078 2509 2650 2509 2202 
C 1030 2035 378 1658 378 902 
C 378 275 806 -83 1389 -83 
z
M 1555 390 
C 1210 390 941 544 941 941 
C 941 1389 1338 1677 2509 1811 
L 2509 845 
C 2170 544 1888 390 1555 390 
z
" transform="scale(0.015625)"/>
      <path id="NotoSansCJKsc-Regular-72" d="M 589 0 
L 1178 0 
L 1178 2234 
C 1408 2822 1760 3040 2048 3040 
C 2195 3040 2272 3021 2387 2982 
L 2496 3488 
C 2387 3546 2278 3565 2125 3565 
C 1741 3565 1382 3283 1139 2842 
L 1126 2842 
L 1069 3475 
L 589 3475 
L 589 0 
z
" transform="scale(0.015625)"/>
      <path id="NotoSansCJKsc-Regular-6d" d="M 589 0 
L 1178 0 
L 1178 2522 
C 1491 2880 1786 3053 2048 3053 
C 2490 3053 2694 2778 2694 2125 
L 2694 0 
L 3277 0 
L 3277 2522 
C 3603 2880 3885 3053 4154 3053 
C 4595 3053 4800 2778 4800 2125 
L 4800 0 
L 5382 0 
L 5382 2202 
C 5382 3085 5043 3565 4333 3565 
C 3904 3565 3546 3290 3181 2899 
C 3040 3309 2758 3565 2221 3565 
C 1805 3565 1446 3302 1139 2970 
L 1126 2970 
L 1069 3475 
L 589 3475 
L 589 0 
z
" transform="scale(0.015625)"/>
      <path id="NotoSansCJKsc-Regular-75" d="M 1606 -83 
C 2080 -83 2426 166 2752 544 
L 2771 544 
L 2816 0 
L 3302 0 
L 3302 3475 
L 2720 3475 
L 2720 1011 
C 2387 602 2138 422 1779 422 
C 1318 422 1126 698 1126 1344 
L 1126 3475 
L 538 3475 
L 538 1274 
C 538 384 870 -83 1606 -83 
z
" transform="scale(0.015625)"/>
      <path id="NotoSansCJKsc-Regular-3d" d="M 243 2912 
L 3315 2912 
L 3315 3347 
L 243 3347 
L 243 2912 
z
M 243 1376 
L 3315 1376 
L 3315 1811 
L 243 1811 
L 243 1376 
z
" transform="scale(0.015625)"/>
      <path id="NotoSansCJKsc-Regular-ff0c" d="M 1005 -685 
C 1677 -448 2112 77 2112 768 
C 2112 1216 1920 1504 1568 1504 
C 1306 1504 1082 1344 1082 1043 
C 1082 742 1299 589 1562 589 
L 1670 602 
C 1638 160 1357 -141 864 -346 
L 1005 -685 
z
" transform="scale(0.015625)"/>
      <path id="NotoSansCJKsc-Regular-5230" d="M 4102 4826 
L 4102 947 
L 4550 947 
L 4550 4826 
L 4102 4826 
z
M 5370 5274 
L 5370 237 
C 5370 128 5338 96 5229 96 
C 5120 90 4768 90 4390 102 
C 4467 -26 4544 -243 4570 -378 
C 5037 -378 5376 -365 5574 -282 
C 5766 -205 5837 -64 5837 237 
L 5837 5274 
L 5370 5274 
z
M 397 269 
L 506 -192 
C 1350 -26 2566 205 3706 429 
L 3680 851 
L 2336 602 
L 2336 1606 
L 3616 1606 
L 3616 2035 
L 2336 2035 
L 2336 2720 
L 1882 2720 
L 1882 2035 
L 621 2035 
L 621 1606 
L 1882 1606 
L 1882 525 
L 397 269 
z
M 762 2810 
C 915 2880 1152 2906 3155 3098 
C 3245 2950 3322 2816 3379 2701 
L 3744 2944 
C 3558 3309 3136 3891 2778 4320 
L 2426 4115 
C 2586 3923 2752 3693 2906 3475 
L 1267 3334 
C 1530 3680 1792 4109 2010 4531 
L 3744 4531 
L 3744 4954 
L 454 4954 
L 454 4531 
L 1472 4531 
C 1267 4077 1005 3667 909 3546 
C 800 3392 704 3283 602 3264 
C 659 3136 730 2912 762 2810 
z
" transform="scale(0.015625)"/>
      <path id="NotoSansCJKsc-Regular-65f6" d="M 3034 2893 
C 3373 2400 3808 1722 4013 1331 
L 4435 1574 
C 4218 1965 3776 2618 3430 3104 
L 3034 2893 
z
M 2074 2573 
L 2074 1114 
L 979 1114 
L 979 2573 
L 2074 2573 
z
M 2074 3002 
L 979 3002 
L 979 4403 
L 2074 4403 
L 2074 3002 
z
M 518 4838 
L 518 160 
L 979 160 
L 979 678 
L 2522 678 
L 2522 4838 
L 518 4838 
z
M 4890 5344 
L 4890 4096 
L 2816 4096 
L 2816 3622 
L 4890 3622 
L 4890 211 
C 4890 83 4838 38 4710 38 
C 4570 26 4096 26 3597 45 
C 3667 -96 3744 -314 3776 -448 
C 4416 -448 4826 -442 5056 -358 
C 5286 -282 5376 -141 5376 211 
L 5376 3622 
L 6157 3622 
L 6157 4096 
L 5376 4096 
L 5376 5344 
L 4890 5344 
z
" transform="scale(0.015625)"/>
      <path id="NotoSansCJKsc-Regular-2248" d="M 3290 1875 
C 2970 2106 2656 2266 2259 2266 
C 1677 2266 1152 1933 806 1350 
L 1171 1088 
C 1434 1568 1850 1830 2259 1830 
C 2579 1830 2810 1677 3091 1478 
C 3418 1254 3725 1088 4128 1088 
C 4710 1088 5229 1421 5574 2010 
L 5216 2266 
C 4954 1792 4538 1530 4128 1530 
C 3802 1530 3571 1683 3290 1875 
z
M 3290 3386 
C 2970 3610 2656 3776 2259 3776 
C 1677 3776 1152 3443 806 2854 
L 1171 2598 
C 1434 3072 1850 3334 2259 3334 
C 2579 3334 2810 3181 3091 2989 
C 3418 2758 3725 2598 4128 2598 
C 4710 2598 5229 2931 5574 3514 
L 5216 3776 
C 4954 3296 4538 3034 4128 3034 
C 3802 3034 3571 3187 3290 3386 
z
" transform="scale(0.015625)"/>
      <path id="NotoSansCJKsc-Regular-4ece" d="M 1670 5235 
C 1574 2861 1318 954 262 -166 
C 390 -243 646 -416 723 -499 
C 1376 275 1734 1306 1939 2573 
C 2330 2054 2707 1453 2906 1043 
L 3270 1382 
C 3034 1882 2509 2630 2035 3200 
C 2112 3821 2157 4493 2195 5210 
L 1670 5235 
z
M 4134 5242 
C 3994 2778 3654 922 2374 -147 
C 2502 -224 2752 -397 2835 -480 
C 3539 179 3968 1050 4243 2131 
C 4525 1197 4998 179 5779 -435 
C 5862 -294 6029 -90 6138 0 
C 5158 672 4659 2048 4442 3123 
C 4538 3763 4602 4461 4653 5216 
L 4134 5242 
z
" transform="scale(0.015625)"/>
      <path id="NotoSansCJKsc-Regular-6ca1" d="M 538 4947 
C 928 4730 1440 4403 1696 4205 
L 1978 4595 
C 1709 4787 1190 5088 806 5286 
L 538 4947 
z
M 224 3213 
C 621 3014 1146 2707 1408 2515 
L 1677 2912 
C 1402 3104 877 3386 480 3565 
L 224 3213 
z
M 422 -109 
L 826 -416 
C 1178 173 1606 979 1920 1658 
L 1568 1958 
C 1216 1229 749 390 422 -109 
z
M 2848 5146 
L 2848 4422 
C 2848 3936 2714 3392 1850 2995 
C 1946 2925 2112 2739 2176 2637 
C 3117 3091 3315 3795 3315 4410 
L 3315 4698 
L 4570 4698 
L 4570 3750 
C 4570 3213 4678 3021 5146 3021 
C 5235 3021 5632 3021 5741 3021 
C 5882 3021 6035 3027 6118 3059 
C 6106 3181 6086 3386 6074 3520 
C 5984 3501 5830 3488 5734 3488 
C 5632 3488 5267 3488 5178 3488 
C 5069 3488 5050 3552 5050 3738 
L 5050 5146 
L 2848 5146 
z
M 5011 2099 
C 4768 1606 4403 1203 3962 877 
C 3526 1216 3181 1626 2944 2099 
L 5011 2099 
z
M 2182 2547 
L 2182 2099 
L 2592 2099 
L 2464 2054 
C 2726 1485 3091 998 3552 602 
C 2995 275 2355 58 1702 -70 
C 1792 -179 1901 -378 1952 -506 
C 2662 -339 3354 -83 3949 294 
C 4486 -83 5133 -352 5869 -512 
C 5933 -378 6074 -179 6182 -70 
C 5498 58 4883 282 4371 595 
C 4947 1056 5408 1658 5683 2432 
L 5363 2566 
L 5274 2547 
L 2182 2547 
z
" transform="scale(0.015625)"/>
     </defs>
     <use xlink:href="#NotoSansCJKsc-Regular-9ed8"/>
     <use xlink:href="#NotoSansCJKsc-Regular-8ba4" transform="translate(99.999985 0)"/>
     <use xlink:href="#NotoSansCJKsc-Regular-20" transform="translate(199.999969 0)"/>
     <use xlink:href="#NotoSansCJKsc-Regular-77" transform="translate(222.399963 0)"/>
     <use xlink:href="#NotoSansCJKsc-Regular-61" transform="translate(302.599945 0)"/>
     <use xlink:href="#NotoSansCJKsc-Regular-72" transform="translate(358.899933 0)"/>
     <use xlink:href="#NotoSansCJKsc-Regular-6d" transform="translate(397.699921 0)"/>
     <use xlink:href="#NotoSansCJKsc-Regular-75" transform="translate(490.299911 0)"/>
     <use xlink:href="#NotoSansCJKsc-Regular-70" transform="translate(550.999908 0)"/>
     <use xlink:href="#NotoSansCJKsc-Regular-3d" transform="translate(612.999893 0)"/>
     <use xlink:href="#NotoSansCJKsc-Regular-34" transform="translate(668.499878 0)"/>
     <use xlink:href="#NotoSansCJKsc-Regular-30" transform="translate(723.999863 0)"/>
     <use xlink:href="#NotoSansCJKsc-Regular-30" transform="translate(779.499847 0)"/>
     <use xlink:href="#NotoSansCJKsc-Regular-ff0c" transform="translate(834.999832 0)"/>
     <use xlink:href="#NotoSansCJKsc-Regular-5230" transform="translate(934.999817 0)"/>
     <use xlink:href="#NotoSansCJKsc-Regular-20" transform="translate(1034.999802 0)"/>
     <use xlink:href="#NotoSansCJKsc-Regular-37" transform="translate(1057.399796 0)"/>
     <use xlink:href="#NotoSansCJKsc-Regular-33" transform="translate(1112.89978 0)"/>
     <use xlink:href="#NotoSansCJKsc-Regular-20" transform="translate(1168.399765 0)"/>
     <use xlink:href="#NotoSansCJKsc-Regular-65" transform="translate(1190.799759 0)"/>
     <use xlink:href="#NotoSansCJKsc-Regular-70" transform="translate(1246.199753 0)"/>
     <use xlink:href="#NotoSansCJKsc-Regular-6f" transform="translate(1308.199738 0)"/>
     <use xlink:href="#NotoSansCJKsc-Regular-63" transform="translate(1368.799728 0)"/>
     <use xlink:href="#NotoSansCJKsc-Regular-68" transform="translate(1419.799713 0)"/>
     <use xlink:href="#NotoSansCJKsc-Regular-20" transform="translate(1480.49971 0)"/>
     <use xlink:href="#NotoSansCJKsc-Regular-65f6" transform="translate(1502.899704 0)"/>
     <use xlink:href="#NotoSansCJKsc-Regular-20" transform="translate(1602.899689 0)"/>
     <use xlink:href="#NotoSansCJKsc-Regular-3bb" transform="translate(1625.299683 0)"/>
     <use xlink:href="#NotoSansCJKsc-Regular-5f" transform="translate(1680.49968 0)"/>
     <use xlink:href="#NotoSansCJKsc-Regular-4b" transform="translate(1736.399673 0)"/>
     <use xlink:href="#NotoSansCJKsc-Regular-4c" transform="translate(1800.999664 0)"/>
     <use xlink:href="#NotoSansCJKsc-Regular-2248" transform="translate(1855.299652 0)"/>
     <use xlink:href="#NotoSansCJKsc-Regular-30" transform="translate(1955.299637 0)"/>
     <use xlink:href="#NotoSansCJKsc-Regular-2e" transform="translate(2010.799622 0)"/>
     <use xlink:href="#NotoSansCJKsc-Regular-31" transform="translate(2038.599609 0)"/>
     <use xlink:href="#NotoSansCJKsc-Regular-38" transform="translate(2094.099594 0)"/>
     <use xlink:href="#NotoSansCJKsc-Regular-ff08" transform="translate(2149.599579 0)"/>
     <use xlink:href="#NotoSansCJKsc-Regular-4ece" transform="translate(2249.599564 0)"/>
     <use xlink:href="#NotoSansCJKsc-Regular-6ca1" transform="translate(2349.599548 0)"/>
     <use xlink:href="#NotoSansCJKsc-Regular-5230" transform="translate(2449.599533 0)"/>
     <use xlink:href="#NotoSansCJKsc-Regular-20" transform="translate(2549.599518 0)"/>
     <use xlink:href="#NotoSansCJKsc-Regular-31" transform="translate(2571.999512 0)"/>
     <use xlink:href="#NotoSansCJKsc-Regular-ff09" transform="translate(2627.499496 0)"/>
    </g>
   </g>
  </g>
  <g id="text_29">
   <!-- 示意 / 预期占位 · 待 4060 实跑替换 -->
   <g style="fill: #8791a1" transform="translate(455.164547 302.881775) scale(0.085 -0.085)">
    <defs>
     <path id="NotoSansCJKsc-Regular-793a" d="M 1498 2246 
C 1222 1523 749 813 224 358 
C 346 294 563 154 666 70 
C 1171 563 1677 1325 1990 2112 
L 1498 2246 
z
M 4378 2048 
C 4838 1434 5325 602 5498 64 
L 5978 282 
C 5786 826 5286 1632 4819 2234 
L 4378 2048 
z
M 954 4902 
L 954 4429 
L 5459 4429 
L 5459 4902 
L 954 4902 
z
M 384 3347 
L 384 2874 
L 2950 2874 
L 2950 122 
C 2950 19 2912 -6 2797 -13 
C 2675 -19 2253 -19 1818 0 
C 1894 -147 1971 -358 1990 -506 
C 2560 -506 2938 -499 3162 -422 
C 3392 -339 3469 -198 3469 115 
L 3469 2874 
L 6022 2874 
L 6022 3347 
L 384 3347 
z
" transform="scale(0.015625)"/>
     <path id="NotoSansCJKsc-Regular-610f" d="M 1907 954 
L 1907 128 
C 1907 -339 2074 -454 2726 -454 
C 2861 -454 3795 -454 3936 -454 
C 4461 -454 4602 -288 4659 435 
C 4531 461 4346 525 4237 595 
C 4211 26 4173 -51 3898 -51 
C 3686 -51 2912 -51 2765 -51 
C 2432 -51 2374 -26 2374 128 
L 2374 954 
L 1907 954 
z
M 4742 896 
C 5069 550 5421 77 5562 -237 
L 5965 -38 
C 5811 275 5453 736 5120 1069 
L 4742 896 
z
M 1158 1005 
C 998 634 717 173 390 -109 
L 787 -346 
C 1114 -38 1376 442 1562 826 
L 1158 1005 
z
M 1670 2067 
L 4749 2067 
L 4749 1619 
L 1670 1619 
L 1670 2067 
z
M 1670 2822 
L 4749 2822 
L 4749 2387 
L 1670 2387 
L 1670 2822 
z
M 1216 3155 
L 1216 1286 
L 2835 1286 
L 2611 1075 
C 2963 877 3405 570 3610 358 
L 3910 659 
C 3712 851 3334 1107 3002 1286 
L 5229 1286 
L 5229 3155 
L 1216 3155 
z
M 2163 4512 
L 4230 4512 
C 4160 4326 4038 4070 3936 3872 
L 2445 3872 
C 2400 4051 2291 4314 2163 4512 
z
M 2835 5325 
C 2912 5203 2989 5043 3053 4902 
L 755 4902 
L 755 4512 
L 2099 4512 
L 1722 4422 
C 1811 4256 1907 4045 1952 3872 
L 467 3872 
L 467 3482 
L 5971 3482 
L 5971 3872 
L 4429 3872 
C 4525 4038 4627 4230 4730 4429 
L 4358 4512 
L 5638 4512 
L 5638 4902 
L 3590 4902 
C 3514 5075 3405 5280 3296 5434 
L 2835 5325 
z
" transform="scale(0.015625)"/>
     <path id="NotoSansCJKsc-Regular-2f" d="M 70 -1146 
L 499 -1146 
L 2413 5082 
L 1990 5082 
L 70 -1146 
z
" transform="scale(0.015625)"/>
     <path id="NotoSansCJKsc-Regular-9884" d="M 4288 3168 
L 4288 1888 
C 4288 1229 4141 365 2624 -134 
C 2733 -224 2861 -384 2918 -480 
C 4544 115 4742 1075 4742 1882 
L 4742 3168 
L 4288 3168 
z
M 4640 563 
C 5043 243 5562 -218 5811 -506 
L 6144 -166 
C 5888 109 5357 550 4960 858 
L 4640 563 
z
M 563 3891 
C 954 3629 1453 3277 1805 3008 
L 243 3008 
L 243 2579 
L 1299 2579 
L 1299 64 
C 1299 -19 1274 -38 1178 -45 
C 1088 -45 794 -45 461 -38 
C 531 -173 595 -365 614 -499 
C 1056 -499 1344 -493 1523 -416 
C 1709 -339 1760 -205 1760 51 
L 1760 2579 
L 2445 2579 
C 2330 2234 2202 1882 2086 1638 
L 2451 1542 
C 2624 1888 2822 2451 2989 2944 
L 2688 3027 
L 2618 3008 
L 2182 3008 
L 2310 3174 
C 2163 3290 1958 3443 1728 3597 
C 2106 3936 2522 4429 2797 4890 
L 2502 5094 
L 2419 5069 
L 378 5069 
L 378 4640 
L 2099 4640 
C 1901 4352 1638 4038 1395 3827 
L 826 4198 
L 563 3891 
z
M 3200 4019 
L 3200 973 
L 3648 973 
L 3648 3578 
L 5414 3578 
L 5414 986 
L 5882 986 
L 5882 4019 
L 4634 4019 
L 4858 4659 
L 6138 4659 
L 6138 5094 
L 2970 5094 
L 2970 4659 
L 4333 4659 
C 4288 4448 4230 4218 4173 4019 
L 3200 4019 
z
" transform="scale(0.015625)"/>
     <path id="NotoSansCJKsc-Regular-671f" d="M 1139 915 
C 947 486 608 58 250 -230 
C 365 -301 557 -435 646 -512 
C 992 -192 1363 301 1594 787 
L 1139 915 
z
M 2054 717 
C 2304 416 2598 -6 2714 -269 
L 3110 -38 
C 2976 224 2682 621 2426 915 
L 2054 717 
z
M 5472 4621 
L 5472 3590 
L 4160 3590 
L 4160 4621 
L 5472 4621 
z
M 3712 5056 
L 3712 2733 
C 3712 1811 3661 589 3123 -262 
C 3232 -314 3430 -454 3507 -538 
C 3891 70 4058 890 4122 1664 
L 5472 1664 
L 5472 109 
C 5472 6 5434 -19 5344 -26 
C 5248 -32 4922 -32 4582 -19 
C 4646 -147 4717 -358 4736 -486 
C 5203 -486 5510 -480 5690 -397 
C 5875 -320 5933 -173 5933 102 
L 5933 5056 
L 3712 5056 
z
M 5472 3162 
L 5472 2099 
L 4147 2099 
C 4160 2323 4160 2534 4160 2733 
L 4160 3162 
L 5472 3162 
z
M 2477 5299 
L 2477 4525 
L 1312 4525 
L 1312 5299 
L 877 5299 
L 877 4525 
L 333 4525 
L 333 4096 
L 877 4096 
L 877 1478 
L 243 1478 
L 243 1050 
L 3398 1050 
L 3398 1478 
L 2925 1478 
L 2925 4096 
L 3398 4096 
L 3398 4525 
L 2925 4525 
L 2925 5299 
L 2477 5299 
z
M 1312 4096 
L 2477 4096 
L 2477 3526 
L 1312 3526 
L 1312 4096 
z
M 1312 3142 
L 2477 3142 
L 2477 2515 
L 1312 2515 
L 1312 3142 
z
M 1312 2125 
L 2477 2125 
L 2477 1478 
L 1312 1478 
L 1312 2125 
z
" transform="scale(0.015625)"/>
     <path id="NotoSansCJKsc-Regular-5360" d="M 992 2445 
L 992 -506 
L 1459 -506 
L 1459 -102 
L 4915 -102 
L 4915 -474 
L 5402 -474 
L 5402 2445 
L 3341 2445 
L 3341 3725 
L 5926 3725 
L 5926 4173 
L 3341 4173 
L 3341 5376 
L 2854 5376 
L 2854 2445 
L 992 2445 
z
M 1459 352 
L 1459 1990 
L 4915 1990 
L 4915 352 
L 1459 352 
z
" transform="scale(0.015625)"/>
     <path id="NotoSansCJKsc-Regular-4f4d" d="M 2362 4211 
L 2362 3744 
L 5850 3744 
L 5850 4211 
L 2362 4211 
z
M 2784 3258 
C 2976 2368 3168 1184 3219 512 
L 3693 653 
C 3629 1306 3430 2458 3219 3360 
L 2784 3258 
z
M 3648 5299 
C 3770 4979 3898 4557 3949 4282 
L 4429 4422 
C 4365 4698 4224 5101 4102 5421 
L 3648 5299 
z
M 2086 218 
L 2086 -243 
L 6112 -243 
L 6112 218 
L 4787 218 
C 5024 1075 5286 2336 5459 3322 
L 4954 3405 
C 4838 2445 4582 1082 4339 218 
L 2086 218 
z
M 1830 5350 
C 1472 4378 870 3418 243 2797 
C 326 2688 467 2438 518 2323 
C 736 2547 947 2810 1152 3098 
L 1152 -499 
L 1632 -499 
L 1632 3846 
C 1882 4282 2106 4749 2285 5216 
L 1830 5350 
z
" transform="scale(0.015625)"/>
     <path id="NotoSansCJKsc-Regular-b7" d="M 3200 3110 
C 2822 3110 2522 2810 2522 2432 
C 2522 2054 2822 1754 3200 1754 
C 3578 1754 3878 2054 3878 2432 
C 3878 2810 3578 3110 3200 3110 
z
" transform="scale(0.015625)"/>
     <path id="NotoSansCJKsc-Regular-5f85" d="M 2656 1306 
C 2957 960 3283 480 3418 166 
L 3827 410 
C 3686 717 3347 1178 3053 1510 
L 2656 1306 
z
M 1632 5363 
C 1357 4909 781 4371 282 4045 
C 352 3949 480 3757 531 3648 
C 1094 4032 1709 4627 2080 5184 
L 1632 5363 
z
M 3878 5344 
L 3878 4544 
L 2470 4544 
L 2470 4109 
L 3878 4109 
L 3878 3296 
L 2093 3296 
L 2093 2854 
L 4781 2854 
L 4781 2138 
L 2170 2138 
L 2170 1696 
L 4781 1696 
L 4781 70 
C 4781 -13 4749 -45 4646 -45 
C 4544 -51 4186 -58 3802 -38 
C 3866 -173 3942 -371 3962 -499 
C 4461 -499 4787 -499 4992 -422 
C 5190 -346 5254 -211 5254 70 
L 5254 1696 
L 6112 1696 
L 6112 2138 
L 5254 2138 
L 5254 2854 
L 6157 2854 
L 6157 3296 
L 4358 3296 
L 4358 4109 
L 5824 4109 
L 5824 4544 
L 4358 4544 
L 4358 5344 
L 3878 5344 
z
M 1741 3949 
C 1376 3290 762 2630 186 2208 
C 269 2093 403 1843 442 1734 
C 685 1939 941 2182 1184 2445 
L 1184 -506 
L 1645 -506 
L 1645 2995 
C 1837 3251 2016 3520 2163 3782 
L 1741 3949 
z
" transform="scale(0.015625)"/>
     <path id="NotoSansCJKsc-Regular-5b9e" d="M 3443 685 
C 4294 365 5146 -77 5664 -474 
L 5958 -96 
C 5427 282 4531 723 3674 1037 
L 3443 685 
z
M 1536 3565 
C 1882 3360 2291 3040 2477 2816 
L 2784 3162 
C 2586 3392 2170 3680 1824 3872 
L 1536 3565 
z
M 896 2566 
C 1261 2368 1690 2048 1894 1818 
L 2189 2182 
C 1978 2406 1542 2701 1184 2886 
L 896 2566 
z
M 576 4646 
L 576 3347 
L 1056 3347 
L 1056 4198 
L 5338 4198 
L 5338 3347 
L 5837 3347 
L 5837 4646 
L 3642 4646 
C 3546 4870 3379 5184 3219 5421 
L 2746 5274 
C 2861 5082 2982 4851 3072 4646 
L 576 4646 
z
M 454 1638 
L 454 1222 
L 2765 1222 
C 2406 602 1747 186 518 -70 
C 621 -179 742 -365 794 -493 
C 2234 -160 2950 397 3315 1222 
L 5984 1222 
L 5984 1638 
L 3462 1638 
C 3648 2259 3693 3002 3718 3878 
L 3219 3878 
C 3194 2970 3155 2234 2950 1638 
L 454 1638 
z
" transform="scale(0.015625)"/>
     <path id="NotoSansCJKsc-Regular-8dd1" d="M 973 4685 
L 2061 4685 
L 2061 3558 
L 973 3558 
L 973 4685 
z
M 224 243 
L 339 -211 
C 979 -32 1837 205 2650 435 
L 2592 858 
L 1805 646 
L 1805 1824 
L 2502 1824 
L 2502 2246 
L 1805 2246 
L 1805 3142 
L 2502 3142 
L 2502 5101 
L 550 5101 
L 550 3142 
L 1376 3142 
L 1376 531 
L 947 422 
L 947 2534 
L 550 2534 
L 550 320 
L 224 243 
z
M 3437 5363 
C 3245 4672 2912 3987 2502 3539 
C 2598 3462 2758 3290 2822 3206 
L 2970 3392 
L 2970 320 
C 2970 -275 3168 -422 3859 -422 
C 4013 -422 5197 -422 5357 -422 
C 5958 -422 6099 -192 6163 589 
C 6042 614 5862 691 5754 762 
C 5722 115 5664 -13 5338 -13 
C 5088 -13 4070 -13 3878 -13 
C 3469 -13 3398 45 3398 320 
L 3398 1568 
L 4742 1568 
L 4742 3514 
L 3059 3514 
C 3200 3725 3341 3962 3462 4218 
L 5331 4218 
C 5325 2342 5306 1690 5210 1549 
C 5171 1478 5114 1466 5024 1466 
C 4922 1466 4672 1466 4403 1491 
C 4474 1370 4531 1184 4531 1062 
C 4806 1050 5069 1043 5229 1062 
C 5408 1088 5517 1133 5619 1274 
C 5760 1491 5773 2208 5779 4416 
C 5779 4486 5779 4646 5779 4646 
L 3654 4646 
C 3731 4845 3802 5050 3866 5254 
L 3437 5363 
z
M 3398 3117 
L 4333 3117 
L 4333 1971 
L 3398 1971 
L 3398 3117 
z
" transform="scale(0.015625)"/>
     <path id="NotoSansCJKsc-Regular-66ff" d="M 1664 794 
L 4723 794 
L 4723 141 
L 1664 141 
L 1664 794 
z
M 1664 1171 
L 1664 1786 
L 4723 1786 
L 4723 1171 
L 1664 1171 
z
M 1190 2195 
L 1190 -512 
L 1664 -512 
L 1664 -269 
L 4723 -269 
L 4723 -486 
L 5203 -486 
L 5203 2195 
L 1190 2195 
z
M 1562 5376 
L 1562 4813 
L 582 4813 
L 582 4429 
L 1562 4429 
C 1562 4256 1555 4064 1517 3866 
L 390 3866 
L 390 3469 
L 1408 3469 
C 1248 3059 928 2643 275 2317 
C 384 2234 531 2086 595 1984 
C 1165 2298 1510 2675 1715 3066 
C 2048 2822 2406 2547 2611 2362 
L 2918 2688 
C 2682 2886 2234 3206 1882 3450 
L 1888 3469 
L 2989 3469 
L 2989 3866 
L 1984 3866 
C 2010 4064 2022 4256 2022 4429 
L 2874 4429 
L 2874 4813 
L 2022 4813 
L 2022 5376 
L 1562 5376 
z
M 4320 5376 
L 4320 4813 
L 3366 4813 
L 3366 4429 
L 4320 4429 
L 4320 4365 
C 4320 4211 4314 4038 4275 3866 
L 3232 3866 
L 3232 3469 
L 4147 3469 
C 3981 3130 3661 2797 3059 2547 
C 3155 2464 3296 2310 3360 2208 
C 4026 2515 4384 2912 4576 3322 
C 4858 2758 5306 2291 5869 2048 
C 5939 2163 6067 2323 6176 2413 
C 5645 2598 5210 2995 4941 3469 
L 6016 3469 
L 6016 3866 
L 4742 3866 
C 4774 4038 4781 4198 4781 4358 
L 4781 4429 
L 5818 4429 
L 5818 4813 
L 4781 4813 
L 4781 5376 
L 4320 5376 
z
" transform="scale(0.015625)"/>
     <path id="NotoSansCJKsc-Regular-6362" d="M 1050 5370 
L 1050 4083 
L 307 4083 
L 307 3635 
L 1050 3635 
L 1050 2208 
C 742 2118 461 2035 230 1978 
L 358 1504 
L 1050 1728 
L 1050 77 
C 1050 0 1018 -26 947 -26 
C 877 -32 659 -32 410 -26 
C 474 -160 538 -371 557 -493 
C 928 -499 1165 -480 1312 -397 
C 1466 -320 1523 -186 1523 77 
L 1523 1882 
L 2208 2106 
L 2138 2554 
L 1523 2355 
L 1523 3635 
L 2118 3635 
L 2118 4083 
L 1523 4083 
L 1523 5370 
L 1050 5370 
z
M 3430 4403 
L 4762 4403 
C 4614 4186 4429 3949 4250 3757 
L 2931 3757 
C 3117 3968 3283 4186 3430 4403 
z
M 2131 1850 
L 2131 1434 
L 3680 1434 
C 3424 877 2893 307 1786 -179 
C 1888 -269 2035 -422 2106 -518 
C 3194 -6 3763 595 4064 1190 
C 4474 435 5133 -179 5894 -493 
C 5958 -378 6099 -205 6202 -109 
C 5427 160 4762 736 4397 1434 
L 6080 1434 
L 6080 1850 
L 5632 1850 
L 5632 3757 
L 4800 3757 
C 5043 4026 5293 4339 5459 4621 
L 5139 4838 
L 5062 4813 
L 3680 4813 
C 3770 4979 3853 5139 3923 5299 
L 3437 5389 
C 3213 4845 2784 4166 2157 3661 
C 2259 3590 2413 3430 2483 3322 
L 2598 3424 
L 2598 1850 
L 2131 1850 
z
M 3059 1850 
L 3059 3373 
L 3910 3373 
L 3910 2701 
C 3910 2445 3898 2157 3827 1850 
L 3059 1850 
z
M 5152 1850 
L 4294 1850 
C 4365 2150 4378 2438 4378 2694 
L 4378 3373 
L 5152 3373 
L 5152 1850 
z
" transform="scale(0.015625)"/>
    </defs>
    <use xlink:href="#NotoSansCJKsc-Regular-793a"/>
    <use xlink:href="#NotoSansCJKsc-Regular-610f" transform="translate(99.999985 0)"/>
    <use xlink:href="#NotoSansCJKsc-Regular-20" transform="translate(199.999969 0)"/>
    <use xlink:href="#NotoSansCJKsc-Regular-2f" transform="translate(222.399963 0)"/>
    <use xlink:href="#NotoSansCJKsc-Regular-20" transform="translate(261.59996 0)"/>
    <use xlink:href="#NotoSansCJKsc-Regular-9884" transform="translate(283.999954 0)"/>
    <use xlink:href="#NotoSansCJKsc-Regular-671f" transform="translate(383.999939 0)"/>
    <use xlink:href="#NotoSansCJKsc-Regular-5360" transform="translate(483.999924 0)"/>
    <use xlink:href="#NotoSansCJKsc-Regular-4f4d" transform="translate(583.999908 0)"/>
    <use xlink:href="#NotoSansCJKsc-Regular-20" transform="translate(683.999893 0)"/>
    <use xlink:href="#NotoSansCJKsc-Regular-b7" transform="translate(706.399887 0)"/>
    <use xlink:href="#NotoSansCJKsc-Regular-20" transform="translate(806.399872 0)"/>
    <use xlink:href="#NotoSansCJKsc-Regular-5f85" transform="translate(828.799866 0)"/>
    <use xlink:href="#NotoSansCJKsc-Regular-20" transform="translate(928.79985 0)"/>
    <use xlink:href="#NotoSansCJKsc-Regular-34" transform="translate(951.199844 0)"/>
    <use xlink:href="#NotoSansCJKsc-Regular-30" transform="translate(1006.699829 0)"/>
    <use xlink:href="#NotoSansCJKsc-Regular-36" transform="translate(1062.199814 0)"/>
    <use xlink:href="#NotoSansCJKsc-Regular-30" transform="translate(1117.699799 0)"/>
    <use xlink:href="#NotoSansCJKsc-Regular-20" transform="translate(1173.199783 0)"/>
    <use xlink:href="#NotoSansCJKsc-Regular-5b9e" transform="translate(1195.599777 0)"/>
    <use xlink:href="#NotoSansCJKsc-Regular-8dd1" transform="translate(1295.599762 0)"/>
    <use xlink:href="#NotoSansCJKsc-Regular-66ff" transform="translate(1395.599747 0)"/>
    <use xlink:href="#NotoSansCJKsc-Regular-6362" transform="translate(1495.599731 0)"/>
   </g>
  </g>
 </g>
 <defs>
  <clipPath id="pc16ccf9ee7">
   <rect x="52.09" y="29.846406" width="479.88" height="243.936"/>
  </clipPath>
 </defs>
</svg>
