<?xml version="1.0" encoding="utf-8" standalone="no"?>
<!DOCTYPE svg PUBLIC "-//W3C//DTD SVG 1.1//EN"
  "http://www.w3.org/Graphics/SVG/1.1/DTD/svg11.dtd">
<svg xmlns:xlink="http://www.w3.org/1999/xlink" width="579.304375pt" height="314.775625pt" viewBox="0 0 579.304375 314.775625" xmlns="http://www.w3.org/2000/svg" version="1.1">
 <metadata>
  <rdf:RDF xmlns:dc="http://purl.org/dc/elements/1.1/" xmlns:cc="http://creativecommons.org/ns#" xmlns:rdf="http://www.w3.org/1999/02/22-rdf-syntax-ns#">
   <cc:Work>
    <dc:type rdf:resource="http://purl.org/dc/dcmitype/StillImage"/>
    <dc:date>2026-07-09T15:38:43.480342</dc:date>
    <dc:format>image/svg+xml</dc:format>
    <dc:creator>
     <cc:Agent>
      <dc:title>Matplotlib v3.10.9, https://matplotlib.org/</dc:title>
     </cc:Agent>
    </dc:creator>
   </cc:Work>
  </rdf:RDF>
 </metadata>
 <defs>
  <style type="text/css">*{stroke-linejoin: round; stroke-linecap: butt}</style>
 </defs>
 <g id="figure_1">
  <g id="patch_1">
   <path d="M -0 314.775625 
L 579.304375 314.775625 
L 579.304375 0 
L -0 0 
z
" style="fill: #ffffff"/>
  </g>
  <g id="axes_1">
   <g id="patch_2">
    <path d="M 44.093125 278.885625 
L 535.133125 278.885625 
L 535.133125 29.405625 
L 44.093125 29.405625 
z
" style="fill: #ffffff"/>
   </g>
   <g id="matplotlib.axis_1">
    <g id="xtick_1">
     <g id="line2d_1">
      <path d="M 64.169909 278.885625 
L 64.169909 29.405625 
" clip-path="url(#p12ed0908f4)" style="fill: none; stroke: #eef1f6; stroke-linecap: square"/>
     </g>
     <g id="line2d_2">
      <defs>
       <path id="m4acaf682e9" d="M 0 0 
L 0 3.5 
" style="stroke: #5b6577; stroke-width: 0.8"/>
      </defs>
      <g>
       <use xlink:href="#m4acaf682e9" x="64.169909" y="278.885625" style="fill: #5b6577; stroke: #5b6577; stroke-width: 0.8"/>
      </g>
     </g>
     <g id="text_1">
      <!-- 0 -->
      <g style="fill: #5b6577" transform="translate(61.669909 292.760625) scale(0.1 -0.1)">
       <defs>
        <path id="SimHei-30" d="M 225 2537 
Q 250 3200 412 3587 
Q 575 3975 875 4225 
Q 1175 4475 1612 4475 
Q 2050 4475 2375 4112 
Q 2700 3750 2800 3200 
Q 2900 2650 2862 1937 
Q 2825 1225 2612 775 
Q 2400 325 1975 150 
Q 1550 -25 1125 187 
Q 700 400 525 750 
Q 350 1100 275 1487 
Q 200 1875 225 2537 
z
M 750 2687 
Q 675 2000 800 1462 
Q 925 925 1212 700 
Q 1500 475 1800 612 
Q 2100 750 2237 1162 
Q 2375 1575 2375 2062 
Q 2375 2550 2337 2950 
Q 2300 3350 2112 3675 
Q 1925 4000 1612 4012 
Q 1300 4025 1062 3700 
Q 825 3375 750 2687 
z
" transform="scale(0.015625)"/>
       </defs>
       <use xlink:href="#SimHei-30"/>
      </g>
     </g>
    </g>
    <g id="xtick_2">
     <g id="line2d_3">
      <path d="M 120.250311 278.885625 
L 120.250311 29.405625 
" clip-path="url(#p12ed0908f4)" style="fill: none; stroke: #eef1f6; stroke-linecap: square"/>
     </g>
     <g id="line2d_4">
      <g>
       <use xlink:href="#m4acaf682e9" x="120.250311" y="278.885625" style="fill: #5b6577; stroke: #5b6577; stroke-width: 0.8"/>
      </g>
     </g>
     <g id="text_2">
      <!-- 25 -->
      <g style="fill: #5b6577" transform="translate(115.250311 292.760625) scale(0.1 -0.1)">
       <defs>
        <path id="SimHei-32" d="M 300 250 
Q 325 625 650 925 
Q 975 1225 1475 1862 
Q 1975 2500 2125 2850 
Q 2275 3200 2237 3450 
Q 2200 3700 2000 3862 
Q 1800 4025 1537 4000 
Q 1275 3975 1037 3800 
Q 800 3625 675 3275 
L 200 3350 
Q 400 3925 712 4187 
Q 1025 4450 1450 4475 
Q 1700 4500 1900 4462 
Q 2100 4425 2312 4287 
Q 2525 4150 2662 3875 
Q 2800 3600 2762 3212 
Q 2725 2825 2375 2287 
Q 2025 1750 1025 600 
L 2825 600 
L 2825 150 
L 300 150 
L 300 250 
z
" transform="scale(0.015625)"/>
        <path id="SimHei-35" d="M 550 1325 
Q 725 650 1150 575 
Q 1575 500 1837 662 
Q 2100 825 2212 1087 
Q 2325 1350 2312 1675 
Q 2300 2000 2137 2225 
Q 1975 2450 1725 2525 
Q 1475 2600 1162 2525 
Q 850 2450 650 2175 
L 225 2225 
Q 275 2375 700 4375 
L 2675 4375 
L 2675 3925 
L 1075 3925 
Q 950 3250 825 2850 
Q 1200 3025 1525 3012 
Q 1850 3000 2150 2862 
Q 2450 2725 2587 2487 
Q 2725 2250 2787 2012 
Q 2850 1775 2837 1500 
Q 2825 1225 2725 937 
Q 2625 650 2425 462 
Q 2225 275 1937 162 
Q 1650 50 1275 75 
Q 900 100 562 350 
Q 225 600 100 1200 
L 550 1325 
z
" transform="scale(0.015625)"/>
       </defs>
       <use xlink:href="#SimHei-32"/>
       <use xlink:href="#SimHei-35" transform="translate(50 0)"/>
      </g>
     </g>
    </g>
    <g id="xtick_3">
     <g id="line2d_5">
      <path d="M 176.330713 278.885625 
L 176.330713 29.405625 
" clip-path="url(#p12ed0908f4)" style="fill: none; stroke: #eef1f6; stroke-linecap: square"/>
     </g>
     <g id="line2d_6">
      <g>
       <use xlink:href="#m4acaf682e9" x="176.330713" y="278.885625" style="fill: #5b6577; stroke: #5b6577; stroke-width: 0.8"/>
      </g>
     </g>
     <g id="text_3">
      <!-- 50 -->
      <g style="fill: #5b6577" transform="translate(171.330713 292.760625) scale(0.1 -0.1)">
       <use xlink:href="#SimHei-35"/>
       <use xlink:href="#SimHei-30" transform="translate(50 0)"/>
      </g>
     </g>
    </g>
    <g id="xtick_4">
     <g id="line2d_7">
      <path d="M 232.411115 278.885625 
L 232.411115 29.405625 
" clip-path="url(#p12ed0908f4)" style="fill: none; stroke: #eef1f6; stroke-linecap: square"/>
     </g>
     <g id="line2d_8">
      <g>
       <use xlink:href="#m4acaf682e9" x="232.411115" y="278.885625" style="fill: #5b6577; stroke: #5b6577; stroke-width: 0.8"/>
      </g>
     </g>
     <g id="text_4">
      <!-- 75 -->
      <g style="fill: #5b6577" transform="translate(227.411115 292.760625) scale(0.1 -0.1)">
       <defs>
        <path id="SimHei-37" d="M 850 150 
Q 1300 2050 2425 3925 
L 275 3925 
L 275 4375 
L 2950 4375 
L 2950 3950 
Q 1775 2050 1400 150 
L 850 150 
z
" transform="scale(0.015625)"/>
       </defs>
       <use xlink:href="#SimHei-37"/>
       <use xlink:href="#SimHei-35" transform="translate(50 0)"/>
      </g>
     </g>
    </g>
    <g id="xtick_5">
     <g id="line2d_9">
      <path d="M 288.491517 278.885625 
L 288.491517 29.405625 
" clip-path="url(#p12ed0908f4)" style="fill: none; stroke: #eef1f6; stroke-linecap: square"/>
     </g>
     <g id="line2d_10">
      <g>
       <use xlink:href="#m4acaf682e9" x="288.491517" y="278.885625" style="fill: #5b6577; stroke: #5b6577; stroke-width: 0.8"/>
      </g>
     </g>
     <g id="text_5">
      <!-- 100 -->
      <g style="fill: #5b6577" transform="translate(280.991517 292.760625) scale(0.1 -0.1)">
       <defs>
        <path id="SimHei-31" d="M 1400 3600 
Q 1075 3275 575 2975 
L 575 3450 
Q 1200 3875 1600 4450 
L 1900 4450 
L 1900 150 
L 1400 150 
L 1400 3600 
z
" transform="scale(0.015625)"/>
       </defs>
       <use xlink:href="#SimHei-31"/>
       <use xlink:href="#SimHei-30" transform="translate(50 0)"/>
       <use xlink:href="#SimHei-30" transform="translate(100 0)"/>
      </g>
     </g>
    </g>
    <g id="xtick_6">
     <g id="line2d_11">
      <path d="M 344.571919 278.885625 
L 344.571919 29.405625 
" clip-path="url(#p12ed0908f4)" style="fill: none; stroke: #eef1f6; stroke-linecap: square"/>
     </g>
     <g id="line2d_12">
      <g>
       <use xlink:href="#m4acaf682e9" x="344.571919" y="278.885625" style="fill: #5b6577; stroke: #5b6577; stroke-width: 0.8"/>
      </g>
     </g>
     <g id="text_6">
      <!-- 125 -->
      <g style="fill: #5b6577" transform="translate(337.071919 292.760625) scale(0.1 -0.1)">
       <use xlink:href="#SimHei-31"/>
       <use xlink:href="#SimHei-32" transform="translate(50 0)"/>
       <use xlink:href="#SimHei-35" transform="translate(100 0)"/>
      </g>
     </g>
    </g>
    <g id="xtick_7">
     <g id="line2d_13">
      <path d="M 400.652321 278.885625 
L 400.652321 29.405625 
" clip-path="url(#p12ed0908f4)" style="fill: none; stroke: #eef1f6; stroke-linecap: square"/>
     </g>
     <g id="line2d_14">
      <g>
       <use xlink:href="#m4acaf682e9" x="400.652321" y="278.885625" style="fill: #5b6577; stroke: #5b6577; stroke-width: 0.8"/>
      </g>
     </g>
     <g id="text_7">
      <!-- 150 -->
      <g style="fill: #5b6577" transform="translate(393.152321 292.760625) scale(0.1 -0.1)">
       <use xlink:href="#SimHei-31"/>
       <use xlink:href="#SimHei-35" transform="translate(50 0)"/>
       <use xlink:href="#SimHei-30" transform="translate(100 0)"/>
      </g>
     </g>
    </g>
    <g id="xtick_8">
     <g id="line2d_15">
      <path d="M 456.732723 278.885625 
L 456.732723 29.405625 
" clip-path="url(#p12ed0908f4)" style="fill: none; stroke: #eef1f6; stroke-linecap: square"/>
     </g>
     <g id="line2d_16">
      <g>
       <use xlink:href="#m4acaf682e9" x="456.732723" y="278.885625" style="fill: #5b6577; stroke: #5b6577; stroke-width: 0.8"/>
      </g>
     </g>
     <g id="text_8">
      <!-- 175 -->
      <g style="fill: #5b6577" transform="translate(449.232723 292.760625) scale(0.1 -0.1)">
       <use xlink:href="#SimHei-31"/>
       <use xlink:href="#SimHei-37" transform="translate(50 0)"/>
       <use xlink:href="#SimHei-35" transform="translate(100 0)"/>
      </g>
     </g>
    </g>
    <g id="xtick_9">
     <g id="line2d_17">
      <path d="M 512.813125 278.885625 
L 512.813125 29.405625 
" clip-path="url(#p12ed0908f4)" style="fill: none; stroke: #eef1f6; stroke-linecap: square"/>
     </g>
     <g id="line2d_18">
      <g>
       <use xlink:href="#m4acaf682e9" x="512.813125" y="278.885625" style="fill: #5b6577; stroke: #5b6577; stroke-width: 0.8"/>
      </g>
     </g>
     <g id="text_9">
      <!-- 200 -->
      <g style="fill: #5b6577" transform="translate(505.313125 292.760625) scale(0.1 -0.1)">
       <use xlink:href="#SimHei-32"/>
       <use xlink:href="#SimHei-30" transform="translate(50 0)"/>
       <use xlink:href="#SimHei-30" transform="translate(100 0)"/>
      </g>
     </g>
    </g>
    <g id="text_10">
     <!-- epoch -->
     <g style="fill: #1b2432" transform="translate(277.113125 304.885625) scale(0.1 -0.1)">
      <defs>
       <path id="SimHei-65" d="M 2850 1075 
Q 2800 625 2450 350 
Q 2100 75 1625 75 
Q 1025 75 637 462 
Q 250 850 250 1525 
Q 250 2200 637 2587 
Q 1025 2975 1625 2975 
Q 2150 2975 2487 2637 
Q 2825 2300 2825 1525 
L 800 1525 
Q 800 975 1037 750 
Q 1275 525 1625 525 
Q 1900 525 2075 662 
Q 2250 800 2300 1075 
L 2850 1075 
z
M 2250 1925 
Q 2200 2275 2025 2412 
Q 1850 2550 1575 2550 
Q 1325 2550 1125 2412 
Q 925 2275 825 1925 
L 2250 1925 
z
" transform="scale(0.015625)"/>
       <path id="SimHei-70" d="M 2825 1525 
Q 2825 800 2475 425 
Q 2125 50 1625 50 
Q 1350 50 1150 162 
Q 950 275 800 500 
L 800 -800 
L 300 -800 
L 300 2925 
L 800 2925 
L 800 2550 
Q 950 2775 1150 2875 
Q 1350 2975 1625 2975 
Q 2125 2975 2475 2612 
Q 2825 2250 2825 1525 
z
M 2275 1525 
Q 2275 2000 2087 2262 
Q 1900 2525 1525 2525 
Q 1225 2525 1012 2262 
Q 800 2000 800 1525 
Q 800 1050 1012 775 
Q 1225 500 1525 500 
Q 1900 500 2087 775 
Q 2275 1050 2275 1525 
z
" transform="scale(0.015625)"/>
       <path id="SimHei-6f" d="M 2925 1525 
Q 2925 875 2525 475 
Q 2125 75 1575 75 
Q 1025 75 625 475 
Q 225 875 225 1525 
Q 225 2175 625 2575 
Q 1025 2975 1575 2975 
Q 2125 2975 2525 2575 
Q 2925 2175 2925 1525 
z
M 2375 1525 
Q 2375 2025 2125 2275 
Q 1875 2525 1575 2525 
Q 1275 2525 1025 2275 
Q 775 2025 775 1525 
Q 775 1025 1025 775 
Q 1275 525 1575 525 
Q 1875 525 2125 775 
Q 2375 1025 2375 1525 
z
" transform="scale(0.015625)"/>
       <path id="SimHei-63" d="M 2850 1250 
Q 2850 725 2487 400 
Q 2125 75 1575 75 
Q 1025 75 625 462 
Q 225 850 225 1525 
Q 225 2200 625 2587 
Q 1025 2975 1575 2975 
Q 2125 2975 2450 2687 
Q 2775 2400 2775 2000 
L 2225 2000 
Q 2200 2300 2012 2412 
Q 1825 2525 1575 2525 
Q 1275 2525 1025 2287 
Q 775 2050 775 1525 
Q 775 1000 1025 762 
Q 1275 525 1575 525 
Q 1900 525 2100 700 
Q 2300 875 2300 1250 
L 2850 1250 
z
" transform="scale(0.015625)"/>
       <path id="SimHei-68" d="M 2800 125 
L 2300 125 
L 2300 1925 
Q 2300 2225 2150 2400 
Q 2000 2575 1750 2575 
Q 1425 2575 1137 2237 
Q 850 1900 850 1400 
L 850 125 
L 350 125 
L 350 4400 
L 850 4400 
L 850 2400 
Q 1050 2675 1287 2825 
Q 1525 2975 1900 2975 
Q 2350 2975 2575 2725 
Q 2800 2475 2800 2100 
L 2800 125 
z
" transform="scale(0.015625)"/>
      </defs>
      <use xlink:href="#SimHei-65"/>
      <use xlink:href="#SimHei-70" transform="translate(50 0)"/>
      <use xlink:href="#SimHei-6f" transform="translate(100 0)"/>
      <use xlink:href="#SimHei-63" transform="translate(150 0)"/>
      <use xlink:href="#SimHei-68" transform="translate(200 0)"/>
     </g>
    </g>
   </g>
   <g id="matplotlib.axis_2">
    <g id="ytick_1">
     <g id="line2d_19">
      <path d="M 44.093125 247.572775 
L 535.133125 247.572775 
" clip-path="url(#p12ed0908f4)" style="fill: none; stroke: #eef1f6; stroke-linecap: square"/>
     </g>
     <g id="line2d_20">
      <defs>
       <path id="m3cca586af6" d="M 0 0 
L -3.5 0 
" style="stroke: #5b6577; stroke-width: 0.8"/>
      </defs>
      <g>
       <use xlink:href="#m3cca586af6" x="44.093125" y="247.572775" style="fill: #5b6577; stroke: #5b6577; stroke-width: 0.8"/>
      </g>
     </g>
     <g id="text_11">
      <!-- 0.4 -->
      <g style="fill: #5b6577" transform="translate(22.093125 251.010275) scale(0.1 -0.1)">
       <defs>
        <path id="SimHei-2e" d="M 1075 125 
L 500 125 
L 500 675 
L 1075 675 
L 1075 125 
z
" transform="scale(0.015625)"/>
        <path id="SimHei-34" d="M 2000 1100 
L 75 1100 
L 75 1525 
L 2100 4450 
L 2475 4450 
L 2475 1525 
L 3075 1525 
L 3075 1100 
L 2475 1100 
L 2475 150 
L 2000 150 
L 2000 1100 
z
M 2000 1525 
L 2000 3500 
L 600 1525 
L 2000 1525 
z
" transform="scale(0.015625)"/>
       </defs>
       <use xlink:href="#SimHei-30"/>
       <use xlink:href="#SimHei-2e" transform="translate(50 0)"/>
       <use xlink:href="#SimHei-34" transform="translate(100 0)"/>
      </g>
     </g>
    </g>
    <g id="ytick_2">
     <g id="line2d_21">
      <path d="M 44.093125 215.542316 
L 535.133125 215.542316 
" clip-path="url(#p12ed0908f4)" style="fill: none; stroke: #eef1f6; stroke-linecap: square"/>
     </g>
     <g id="line2d_22">
      <g>
       <use xlink:href="#m3cca586af6" x="44.093125" y="215.542316" style="fill: #5b6577; stroke: #5b6577; stroke-width: 0.8"/>
      </g>
     </g>
     <g id="text_12">
      <!-- 0.5 -->
      <g style="fill: #5b6577" transform="translate(22.093125 218.979816) scale(0.1 -0.1)">
       <use xlink:href="#SimHei-30"/>
       <use xlink:href="#SimHei-2e" transform="translate(50 0)"/>
       <use xlink:href="#SimHei-35" transform="translate(100 0)"/>
      </g>
     </g>
    </g>
    <g id="ytick_3">
     <g id="line2d_23">
      <path d="M 44.093125 183.511857 
L 535.133125 183.511857 
" clip-path="url(#p12ed0908f4)" style="fill: none; stroke: #eef1f6; stroke-linecap: square"/>
     </g>
     <g id="line2d_24">
      <g>
       <use xlink:href="#m3cca586af6" x="44.093125" y="183.511857" style="fill: #5b6577; stroke: #5b6577; stroke-width: 0.8"/>
      </g>
     </g>
     <g id="text_13">
      <!-- 0.6 -->
      <g style="fill: #5b6577" transform="translate(22.093125 186.949357) scale(0.1 -0.1)">
       <defs>
        <path id="SimHei-36" d="M 250 1612 
Q 275 1975 387 2225 
Q 500 2475 725 2850 
L 1750 4450 
L 2325 4450 
L 1275 2800 
Q 1950 2975 2350 2750 
Q 2750 2525 2887 2237 
Q 3025 1950 3037 1612 
Q 3050 1275 2937 950 
Q 2825 625 2537 362 
Q 2250 100 1737 75 
Q 1225 50 862 262 
Q 500 475 362 862 
Q 225 1250 250 1612 
z
M 1025 787 
Q 1250 550 1625 525 
Q 2000 500 2250 775 
Q 2500 1050 2500 1575 
Q 2500 2100 2187 2300 
Q 1875 2500 1487 2450 
Q 1100 2400 925 2075 
Q 750 1750 775 1387 
Q 800 1025 1025 787 
z
" transform="scale(0.015625)"/>
       </defs>
       <use xlink:href="#SimHei-30"/>
       <use xlink:href="#SimHei-2e" transform="translate(50 0)"/>
       <use xlink:href="#SimHei-36" transform="translate(100 0)"/>
      </g>
     </g>
    </g>
    <g id="ytick_4">
     <g id="line2d_25">
      <path d="M 44.093125 151.481398 
L 535.133125 151.481398 
" clip-path="url(#p12ed0908f4)" style="fill: none; stroke: #eef1f6; stroke-linecap: square"/>
     </g>
     <g id="line2d_26">
      <g>
       <use xlink:href="#m3cca586af6" x="44.093125" y="151.481398" style="fill: #5b6577; stroke: #5b6577; stroke-width: 0.8"/>
      </g>
     </g>
     <g id="text_14">
      <!-- 0.7 -->
      <g style="fill: #5b6577" transform="translate(22.093125 154.918898) scale(0.1 -0.1)">
       <use xlink:href="#SimHei-30"/>
       <use xlink:href="#SimHei-2e" transform="translate(50 0)"/>
       <use xlink:href="#SimHei-37" transform="translate(100 0)"/>
      </g>
     </g>
    </g>
    <g id="ytick_5">
     <g id="line2d_27">
      <path d="M 44.093125 119.450939 
L 535.133125 119.450939 
" clip-path="url(#p12ed0908f4)" style="fill: none; stroke: #eef1f6; stroke-linecap: square"/>
     </g>
     <g id="line2d_28">
      <g>
       <use xlink:href="#m3cca586af6" x="44.093125" y="119.450939" style="fill: #5b6577; stroke: #5b6577; stroke-width: 0.8"/>
      </g>
     </g>
     <g id="text_15">
      <!-- 0.8 -->
      <g style="fill: #5b6577" transform="translate(22.093125 122.888439) scale(0.1 -0.1)">
       <defs>
        <path id="SimHei-38" d="M 175 1375 
Q 175 1675 325 1962 
Q 475 2250 825 2425 
Q 525 2600 425 2812 
Q 325 3025 312 3300 
Q 300 3575 387 3775 
Q 475 3975 650 4150 
Q 825 4325 1037 4387 
Q 1250 4450 1500 4450 
Q 1750 4450 1950 4400 
Q 2150 4350 2375 4187 
Q 2600 4025 2700 3725 
Q 2800 3425 2687 3025 
Q 2575 2625 2100 2400 
Q 2525 2275 2700 2012 
Q 2875 1750 2875 1375 
Q 2875 1000 2762 775 
Q 2650 550 2512 400 
Q 2375 250 2137 162 
Q 1900 75 1537 75 
Q 1175 75 912 162 
Q 650 250 475 425 
Q 300 600 237 837 
Q 175 1075 175 1375 
z
M 687 1400 
Q 675 1100 787 875 
Q 900 650 1200 587 
Q 1500 525 1825 600 
Q 2150 675 2275 950 
Q 2400 1225 2362 1500 
Q 2325 1775 2050 1962 
Q 1775 2150 1450 2125 
Q 1125 2100 912 1900 
Q 700 1700 687 1400 
z
M 775 3350 
Q 775 3100 950 2875 
Q 1125 2650 1500 2650 
Q 1875 2650 2062 2875 
Q 2250 3100 2237 3412 
Q 2225 3725 2012 3875 
Q 1800 4025 1437 4000 
Q 1075 3975 925 3787 
Q 775 3600 775 3350 
z
" transform="scale(0.015625)"/>
       </defs>
       <use xlink:href="#SimHei-30"/>
       <use xlink:href="#SimHei-2e" transform="translate(50 0)"/>
       <use xlink:href="#SimHei-38" transform="translate(100 0)"/>
      </g>
     </g>
    </g>
    <g id="ytick_6">
     <g id="line2d_29">
      <path d="M 44.093125 87.420481 
L 535.133125 87.420481 
" clip-path="url(#p12ed0908f4)" style="fill: none; stroke: #eef1f6; stroke-linecap: square"/>
     </g>
     <g id="line2d_30">
      <g>
       <use xlink:href="#m3cca586af6" x="44.093125" y="87.420481" style="fill: #5b6577; stroke: #5b6577; stroke-width: 0.8"/>
      </g>
     </g>
     <g id="text_16">
      <!-- 0.9 -->
      <g style="fill: #5b6577" transform="translate(22.093125 90.857981) scale(0.1 -0.1)">
       <defs>
        <path id="SimHei-39" d="M 800 75 
Q 1350 1000 1700 1750 
Q 1075 1650 662 1912 
Q 250 2175 162 2625 
Q 75 3075 175 3437 
Q 275 3800 487 4037 
Q 700 4275 1000 4375 
Q 1300 4475 1537 4475 
Q 1775 4475 2025 4375 
Q 2275 4275 2475 4075 
Q 2675 3875 2750 3662 
Q 2825 3450 2825 3112 
Q 2825 2775 2575 2250 
Q 2325 1725 1350 75 
L 800 75 
z
M 662 2875 
Q 700 2550 937 2337 
Q 1175 2125 1450 2150 
Q 1725 2175 1887 2300 
Q 2050 2425 2200 2725 
Q 2300 3100 2250 3362 
Q 2200 3625 1987 3800 
Q 1775 3975 1525 3975 
Q 1375 4000 1137 3900 
Q 900 3800 762 3500 
Q 625 3200 662 2875 
z
" transform="scale(0.015625)"/>
       </defs>
       <use xlink:href="#SimHei-30"/>
       <use xlink:href="#SimHei-2e" transform="translate(50 0)"/>
       <use xlink:href="#SimHei-39" transform="translate(100 0)"/>
      </g>
     </g>
    </g>
    <g id="ytick_7">
     <g id="line2d_31">
      <path d="M 44.093125 55.390022 
L 535.133125 55.390022 
" clip-path="url(#p12ed0908f4)" style="fill: none; stroke: #eef1f6; stroke-linecap: square"/>
     </g>
     <g id="line2d_32">
      <g>
       <use xlink:href="#m3cca586af6" x="44.093125" y="55.390022" style="fill: #5b6577; stroke: #5b6577; stroke-width: 0.8"/>
      </g>
     </g>
     <g id="text_17">
      <!-- 1.0 -->
      <g style="fill: #5b6577" transform="translate(22.093125 58.827522) scale(0.1 -0.1)">
       <use xlink:href="#SimHei-31"/>
       <use xlink:href="#SimHei-2e" transform="translate(50 0)"/>
       <use xlink:href="#SimHei-30" transform="translate(100 0)"/>
      </g>
     </g>
    </g>
    <g id="text_18">
     <!-- 训练损失（每 epoch 累加） -->
     <g style="fill: #1b2432" transform="translate(16.843125 216.645625) rotate(-90) scale(0.1 -0.1)">
      <defs>
       <path id="SimHei-8bad" d="M 1650 3300 
Q 1625 2725 1625 2225 
L 1625 675 
Q 1950 1125 2050 1275 
Q 2175 1125 2350 900 
Q 2025 500 1800 212 
Q 1575 -75 1325 -425 
Q 1150 -200 950 -50 
Q 1150 225 1150 625 
L 1150 2875 
L 975 2875 
Q 600 2875 300 2850 
L 300 3325 
Q 600 3300 975 3300 
L 1650 3300 
z
M 3425 4600 
Q 3375 4350 3387 3362 
Q 3400 2375 3337 1887 
Q 3275 1400 3087 837 
Q 2900 275 2450 -375 
Q 2225 -200 1975 -125 
Q 2550 500 2762 1362 
Q 2975 2225 2950 3337 
Q 2925 4450 2900 4675 
Q 3150 4625 3425 4600 
z
M 5875 4700 
Q 5850 4500 5850 3975 
L 5850 625 
Q 5850 125 5875 -400 
L 5400 -400 
Q 5425 125 5425 600 
L 5425 3975 
Q 5425 4500 5400 4700 
L 5875 4700 
z
M 4600 175 
L 4125 175 
Q 4150 725 4150 1150 
L 4150 3600 
Q 4150 4050 4125 4350 
L 4600 4350 
L 4600 175 
z
M 1000 5150 
Q 1650 4600 2100 4100 
Q 1875 3925 1750 3750 
Q 1050 4550 700 4800 
Q 850 4950 1000 5150 
z
" transform="scale(0.015625)"/>
       <path id="SimHei-7ec3" d="M 3300 3825 
Q 2950 3825 2400 3800 
L 2400 4250 
Q 2950 4225 3325 4225 
L 3625 4225 
Q 3875 4950 3900 5175 
Q 4200 5025 4450 4925 
Q 4350 4825 4262 4612 
Q 4175 4400 4100 4225 
L 5025 4225 
Q 5425 4225 5900 4250 
L 5900 3800 
Q 5550 3825 5025 3825 
L 3975 3825 
Q 3850 3525 3700 3150 
L 4675 3150 
Q 4650 2875 4650 2475 
L 4650 1975 
L 4975 1975 
Q 5350 1975 5800 2000 
L 5800 1550 
Q 5350 1575 4975 1575 
L 4650 1575 
L 4650 125 
Q 4650 -300 4462 -425 
Q 4275 -550 3650 -625 
Q 3625 -375 3450 -100 
Q 4075 -125 4137 -25 
Q 4200 75 4200 325 
L 4200 1575 
L 3425 1575 
Q 3250 1575 3100 1562 
Q 2950 1550 2750 1475 
Q 2650 1725 2550 1950 
Q 2800 2025 3125 2775 
Q 2950 2775 2450 2750 
L 2450 3175 
Q 3025 3150 3250 3150 
Q 3400 3525 3500 3825 
L 3300 3825 
z
M 1650 2950 
Q 1875 3300 2100 3900 
Q 2325 3725 2575 3600 
Q 2325 3275 2025 2750 
Q 1725 2225 1075 1350 
Q 1300 1400 2400 1575 
Q 2350 1300 2375 1150 
Q 1825 1100 650 825 
Q 525 1075 400 1275 
Q 625 1400 887 1737 
Q 1150 2075 1450 2575 
Q 1300 2600 1012 2562 
Q 725 2525 450 2450 
Q 350 2675 250 2925 
Q 500 3075 812 3725 
Q 1125 4375 1325 5000 
Q 1600 4825 1850 4750 
Q 1600 4375 1387 3962 
Q 1175 3550 800 2925 
Q 1375 2925 1650 2950 
z
M 2425 700 
Q 2400 425 2425 250 
Q 2000 150 1462 -25 
Q 925 -200 475 -425 
Q 400 -150 300 125 
Q 950 275 1187 337 
Q 1425 400 2425 700 
z
M 3725 875 
Q 3650 800 3287 400 
Q 2925 0 2475 -475 
Q 2300 -250 2150 -125 
Q 2425 100 2750 462 
Q 3075 825 3325 1225 
Q 3475 1050 3725 875 
z
M 5275 1225 
Q 5925 375 6200 -100 
Q 5950 -200 5750 -375 
Q 5475 175 4900 950 
Q 5075 1050 5275 1225 
z
M 4200 1975 
L 4200 2775 
L 3575 2775 
Q 3325 2250 3175 1975 
L 4200 1975 
z
" transform="scale(0.015625)"/>
       <path id="SimHei-635f" d="M 1175 4600 
Q 1175 4950 1150 5250 
L 1675 5250 
Q 1650 4975 1650 4600 
L 1650 4075 
Q 1950 4075 2325 4100 
L 2325 3625 
Q 1950 3650 1650 3650 
L 1650 2500 
Q 1875 2550 2275 2750 
Q 2275 2550 2300 2300 
Q 2025 2200 1650 2025 
L 1650 175 
Q 1650 -225 1425 -325 
Q 1200 -425 625 -500 
Q 600 -250 450 50 
Q 800 25 987 37 
Q 1175 50 1175 350 
L 1175 1850 
Q 675 1675 400 1500 
Q 375 1800 250 2100 
Q 600 2150 1175 2350 
L 1175 3650 
Q 650 3650 325 3625 
L 325 4100 
Q 625 4075 1175 4075 
L 1175 4600 
z
M 5550 5025 
Q 5525 4650 5525 4275 
Q 5525 3925 5550 3525 
L 2900 3525 
Q 2925 3925 2925 4275 
Q 2925 4650 2900 5025 
L 5550 5025 
z
M 5775 3075 
Q 5750 2725 5750 2350 
L 5750 1725 
Q 5750 1350 5775 875 
L 5275 875 
L 5275 2650 
L 3150 2650 
L 3150 850 
L 2650 850 
Q 2675 1275 2675 1700 
L 2675 2325 
Q 2675 2600 2650 3075 
L 5775 3075 
z
M 4525 2200 
Q 4425 1825 4362 1337 
Q 4300 850 4125 537 
Q 3950 225 3600 -62 
Q 3250 -350 2425 -650 
Q 2325 -450 2050 -175 
Q 2750 -50 3137 200 
Q 3525 450 3700 762 
Q 3875 1075 3900 1462 
Q 3925 1850 3925 2275 
Q 4225 2225 4525 2200 
z
M 5100 3925 
L 5100 4650 
L 3375 4650 
L 3375 3925 
L 5100 3925 
z
M 4675 750 
Q 4975 575 5412 337 
Q 5850 100 6175 -125 
Q 5975 -325 5850 -550 
Q 5525 -300 5200 -87 
Q 4875 125 4375 350 
Q 4550 550 4675 750 
z
" transform="scale(0.015625)"/>
       <path id="SimHei-5931" d="M 2050 4450 
Q 1925 4325 1675 3750 
L 2950 3750 
Q 2950 4650 2925 5100 
Q 3175 5075 3500 5050 
Q 3450 4700 3437 4425 
Q 3425 4150 3425 3750 
L 4600 3750 
Q 5000 3750 5425 3775 
L 5425 3300 
Q 5025 3325 4600 3325 
L 3425 3325 
Q 3425 2775 3375 2200 
L 5050 2200 
Q 5425 2200 5875 2225 
L 5875 1750 
Q 5425 1775 5050 1775 
L 3575 1775 
Q 3875 1100 4600 675 
Q 5325 250 6025 100 
Q 5825 -150 5675 -475 
Q 4950 -200 4250 287 
Q 3550 775 3200 1475 
Q 2900 825 2325 300 
Q 1750 -225 775 -650 
Q 650 -400 400 -175 
Q 1250 50 1912 587 
Q 2575 1125 2775 1775 
L 1325 1775 
Q 925 1775 450 1750 
L 450 2225 
Q 925 2200 1325 2200 
L 2875 2200 
Q 2950 2725 2950 3325 
L 1500 3325 
Q 1200 2800 975 2450 
Q 775 2575 500 2675 
Q 950 3225 1187 3750 
Q 1425 4275 1500 4675 
Q 1800 4525 2050 4450 
z
" transform="scale(0.015625)"/>
       <path id="SimHei-ff08" d="M 5425 5100 
L 5700 4775 
Q 4275 3725 4325 2350 
Q 4350 1025 5675 50 
L 5400 -275 
Q 3875 825 3925 2500 
Q 3925 3875 5425 5100 
z
" transform="scale(0.015625)"/>
       <path id="SimHei-6bcf" d="M 5225 3650 
Q 5175 3150 5150 2675 
L 5125 2200 
Q 5525 2200 6000 2225 
L 6000 1775 
Q 5625 1800 5100 1800 
L 5050 650 
Q 5325 650 5700 675 
L 5700 225 
Q 5400 250 5025 250 
Q 5000 -275 4775 -425 
Q 4550 -575 4000 -650 
Q 3950 -400 3775 -125 
Q 4375 -125 4475 -50 
Q 4575 25 4575 250 
L 1400 250 
L 1500 1100 
L 1550 1800 
L 1275 1800 
Q 825 1800 550 1775 
L 550 2225 
Q 975 2200 1275 2200 
L 1575 2200 
L 1625 2825 
L 1675 3650 
L 5225 3650 
z
M 2350 5000 
Q 2175 4825 2050 4600 
L 4875 4600 
Q 5275 4600 5775 4625 
L 5775 4175 
Q 5275 4200 4875 4200 
L 1825 4200 
L 1375 3625 
Q 1125 3325 775 2975 
Q 600 3175 350 3300 
Q 725 3575 1150 4112 
Q 1575 4650 1825 5250 
Q 2125 5075 2350 5000 
z
M 1975 1800 
L 1875 650 
L 4625 650 
L 4675 1800 
L 2950 1800 
Q 3575 1275 3825 1125 
Q 3625 925 3475 725 
Q 3100 1100 2650 1475 
Q 2775 1675 2875 1800 
L 1975 1800 
z
M 2975 3250 
Q 3125 3150 3287 3012 
Q 3450 2875 3800 2550 
Q 3650 2350 3525 2200 
L 4700 2200 
L 4750 3250 
L 2975 3250 
z
M 2075 3250 
L 2000 2200 
L 3425 2200 
Q 3150 2500 3012 2625 
Q 2875 2750 2700 2900 
Q 2800 3050 2925 3250 
L 2075 3250 
z
" transform="scale(0.015625)"/>
       <path id="SimHei-20" transform="scale(0.015625)"/>
       <path id="SimHei-7d2f" d="M 5475 5000 
Q 5450 4600 5450 3975 
Q 5450 3350 5475 2950 
L 4675 2950 
Q 4850 2775 5075 2600 
Q 4800 2525 4237 2275 
Q 3675 2025 3262 1837 
Q 2850 1650 2400 1425 
Q 3850 1525 4650 1575 
Q 4425 1725 4200 1850 
Q 4375 2000 4500 2175 
Q 5125 1800 5900 1300 
Q 5750 1125 5575 900 
Q 5375 1075 5100 1250 
Q 4250 1175 3475 1125 
L 3475 50 
Q 3475 -350 3212 -462 
Q 2950 -575 2600 -600 
Q 2575 -375 2375 -50 
Q 2800 -75 2900 -25 
Q 3000 25 3000 125 
L 3000 1075 
Q 2400 1050 1987 1012 
Q 1575 975 850 875 
Q 775 1125 700 1350 
Q 1150 1400 1575 1512 
Q 2000 1625 3025 2125 
Q 1775 2025 1250 1925 
Q 1200 2200 1100 2375 
Q 1325 2375 1737 2537 
Q 2150 2700 2475 2950 
L 950 2950 
Q 975 3375 975 3975 
Q 975 4600 950 5000 
L 5475 5000 
z
M 2425 525 
Q 2200 400 1762 137 
Q 1325 -125 850 -425 
Q 700 -225 500 -25 
Q 850 125 1250 362 
Q 1650 600 2025 900 
Q 2150 725 2425 525 
z
M 2975 4100 
L 2975 4650 
L 1450 4650 
L 1450 4100 
L 2975 4100 
z
M 4975 4100 
L 4975 4650 
L 3450 4650 
L 3450 4100 
L 4975 4100 
z
M 4275 850 
Q 4750 650 5050 500 
L 5850 100 
Q 5675 -125 5575 -375 
Q 5150 -100 4775 100 
Q 4400 300 4050 450 
Q 4200 675 4275 850 
z
M 2975 3275 
L 2975 3750 
L 1450 3750 
L 1450 3275 
L 2975 3275 
z
M 4975 3275 
L 4975 3750 
L 3450 3750 
L 3450 3275 
L 4975 3275 
z
M 3700 2475 
Q 4200 2700 4575 2950 
L 3225 2950 
Q 2900 2750 2300 2425 
Q 3075 2450 3700 2475 
z
" transform="scale(0.015625)"/>
       <path id="SimHei-52a0" d="M 5700 4150 
Q 5675 3625 5675 3100 
L 5675 900 
Q 5675 300 5700 -350 
L 5225 -350 
L 5225 225 
L 4150 225 
L 4150 -475 
L 3675 -475 
Q 3700 25 3700 550 
L 3700 3100 
Q 3700 3600 3675 4150 
L 5700 4150 
z
M 3125 225 
Q 3050 -250 2725 -337 
Q 2400 -425 2025 -450 
Q 2025 -225 1875 125 
Q 2300 100 2475 137 
Q 2650 175 2675 425 
L 2850 3425 
L 1975 3425 
Q 1925 2450 1812 1875 
Q 1700 1300 1562 875 
Q 1425 450 1187 37 
Q 950 -375 775 -600 
Q 600 -400 275 -250 
Q 750 225 987 787 
Q 1225 1350 1312 1837 
Q 1400 2325 1425 2637 
Q 1450 2950 1475 3425 
L 1125 3425 
Q 850 3425 550 3400 
L 550 3900 
Q 825 3850 1175 3850 
L 1500 3850 
Q 1525 4375 1525 4475 
Q 1525 4600 1500 5075 
Q 1775 5050 2125 5025 
Q 2075 4825 2050 4600 
Q 2025 4375 2000 3850 
L 3350 3850 
Q 3325 3650 3325 3425 
L 3125 225 
z
M 5225 725 
L 5225 3700 
L 4150 3700 
L 4150 725 
L 5225 725 
z
" transform="scale(0.015625)"/>
       <path id="SimHei-ff09" d="M 1000 5100 
Q 2500 3875 2500 2500 
Q 2550 825 1025 -275 
L 750 50 
Q 2075 1025 2100 2350 
Q 2150 3725 725 4775 
L 1000 5100 
z
" transform="scale(0.015625)"/>
      </defs>
      <use xlink:href="#SimHei-8bad"/>
      <use xlink:href="#SimHei-7ec3" transform="translate(100 0)"/>
      <use xlink:href="#SimHei-635f" transform="translate(200 0)"/>
      <use xlink:href="#SimHei-5931" transform="translate(300 0)"/>
      <use xlink:href="#SimHei-ff08" transform="translate(400 0)"/>
      <use xlink:href="#SimHei-6bcf" transform="translate(500 0)"/>
      <use xlink:href="#SimHei-20" transform="translate(600 0)"/>
      <use xlink:href="#SimHei-65" transform="translate(650 0)"/>
      <use xlink:href="#SimHei-70" transform="translate(700 0)"/>
      <use xlink:href="#SimHei-6f" transform="translate(750 0)"/>
      <use xlink:href="#SimHei-63" transform="translate(800 0)"/>
      <use xlink:href="#SimHei-68" transform="translate(850 0)"/>
      <use xlink:href="#SimHei-20" transform="translate(900 0)"/>
      <use xlink:href="#SimHei-7d2f" transform="translate(950 0)"/>
      <use xlink:href="#SimHei-52a0" transform="translate(1050 0)"/>
      <use xlink:href="#SimHei-ff09" transform="translate(1150 0)"/>
     </g>
    </g>
    <g id="text_19">
     <!-- 1e6 -->
     <g style="fill: #5b6577" transform="translate(44.093125 26.405625) scale(0.1 -0.1)">
      <use xlink:href="#SimHei-31"/>
      <use xlink:href="#SimHei-65" transform="translate(50 0)"/>
      <use xlink:href="#SimHei-36" transform="translate(100 0)"/>
     </g>
    </g>
   </g>
   <g id="line2d_33">
    <path d="M 66.413125 40.745625 
L 68.656341 129.446672 
L 70.899557 179.70435 
L 73.142773 209.320565 
L 75.385989 226.841415 
L 77.629205 237.425169 
L 79.872421 243.942535 
L 82.115638 248.294008 
L 84.358854 251.433269 
L 86.60207 253.536124 
L 88.845286 255.304122 
L 93.331718 257.813515 
L 95.574934 258.920266 
L 97.81815 259.609014 
L 100.061366 260.555901 
L 102.304582 260.961106 
L 104.547798 261.559902 
L 106.791014 262.009396 
L 109.034231 262.58545 
L 111.277447 262.722646 
L 118.007095 263.783984 
L 120.250311 263.754439 
L 129.223175 264.562186 
L 135.952823 264.827906 
L 140.439256 265.005138 
L 156.141768 265.400737 
L 158.384984 265.316133 
L 160.6282 265.559505 
L 162.871416 265.505754 
L 165.114633 265.619845 
L 176.330713 265.678983 
L 178.573929 265.885628 
L 180.817145 265.650237 
L 189.790009 265.837506 
L 201.00609 265.777702 
L 203.249306 266.020368 
L 205.492522 266.072313 
L 207.735738 265.974236 
L 209.978954 265.998532 
L 212.22217 265.832257 
L 214.465386 265.988318 
L 218.951818 266.040367 
L 221.195035 266.144079 
L 223.438251 265.905601 
L 230.167899 266.19725 
L 232.411115 265.948879 
L 234.654331 266.109358 
L 243.627195 266.165306 
L 245.870411 266.061745 
L 248.113628 266.25292 
L 250.356844 266.084146 
L 263.81614 266.204989 
L 266.059356 266.091748 
L 268.302572 266.226607 
L 270.545788 266.161028 
L 272.789004 266.258158 
L 275.03222 266.22094 
L 277.275437 266.317436 
L 279.518653 266.27592 
L 281.761869 266.101796 
L 284.005085 266.335627 
L 286.248301 266.209919 
L 299.707597 266.259183 
L 301.950813 266.138687 
L 304.19403 266.341317 
L 308.680462 266.201438 
L 313.166894 266.314682 
L 317.653326 266.251046 
L 319.896542 266.193376 
L 322.139758 266.273834 
L 328.869406 266.19087 
L 331.112622 266.274744 
L 333.355839 266.12451 
L 335.599055 266.276879 
L 340.085487 266.27408 
L 342.328703 266.209963 
L 346.815135 266.310249 
L 353.544783 266.285045 
L 355.787999 266.418157 
L 362.517648 266.167924 
L 371.490512 266.294968 
L 398.409105 266.291878 
L 405.138753 266.237687 
L 407.381969 266.156472 
L 409.625185 266.238496 
L 416.354834 266.138232 
L 420.841266 266.318206 
L 423.084482 266.209399 
L 429.81413 266.262955 
L 434.300562 266.173124 
L 441.03021 266.200967 
L 443.273427 266.014313 
L 447.759859 266.197442 
L 450.003075 266.091651 
L 452.246291 266.255835 
L 461.219155 266.131963 
L 463.462371 266.260788 
L 470.192019 266.176078 
L 474.678452 266.028901 
L 476.921668 266.264576 
L 479.164884 266.16255 
L 490.380964 266.207467 
L 492.62418 262.052923 
L 497.110612 262.265493 
L 503.840261 262.502634 
L 506.083477 262.446846 
L 510.569909 262.855637 
L 512.813125 262.750703 
L 512.813125 262.750703 
" clip-path="url(#p12ed0908f4)" style="fill: none; stroke: #2f6fd0; stroke-width: 2.2; stroke-linecap: square"/>
   </g>
   <g id="line2d_34">
    <path d="M 66.413125 175.336056 
L 68.656341 217.15521 
L 70.899557 233.766393 
L 73.142773 243.00719 
L 75.385989 248.689088 
L 77.629205 252.272733 
L 79.872421 254.488558 
L 82.115638 256.103123 
L 84.358854 257.395919 
L 88.845286 259.0625 
L 93.331718 260.377703 
L 95.574934 261.084583 
L 97.81815 261.458843 
L 100.061366 262.15869 
L 102.304582 262.359957 
L 104.547798 262.79658 
L 106.791014 263.113474 
L 109.034231 263.577464 
L 111.277447 263.624261 
L 118.007095 264.496123 
L 120.250311 264.423383 
L 129.223175 265.119337 
L 135.952823 265.343501 
L 140.439256 265.504753 
L 178.573929 266.415163 
L 180.817145 266.186038 
L 189.790009 266.395964 
L 201.00609 266.367473 
L 203.249306 266.615868 
L 205.492522 266.672908 
L 207.735738 266.580476 
L 209.978954 266.611472 
L 212.22217 266.451794 
L 214.465386 266.61503 
L 218.951818 266.680336 
L 221.195035 266.790843 
L 223.438251 266.557794 
L 230.167899 266.86825 
L 232.411115 266.625955 
L 234.654331 266.7926 
L 243.627195 266.87312 
L 245.870411 266.776128 
L 248.113628 266.972618 
L 250.356844 266.811367 
L 263.81614 266.969566 
L 266.059356 266.861181 
L 268.302572 267.00261 
L 270.545788 266.943968 
L 272.789004 267.046709 
L 275.03222 267.01463 
L 277.275437 267.117345 
L 279.518653 267.080766 
L 281.761869 266.912814 
L 284.005085 267.15152 
L 286.248301 267.030946 
L 299.707597 267.116014 
L 301.950813 266.999261 
L 304.19403 267.209761 
L 308.680462 267.082087 
L 313.166894 267.206075 
L 317.653326 267.151802 
L 319.896542 267.101381 
L 322.139758 267.188144 
L 328.869406 267.121081 
L 331.112622 267.211093 
L 333.355839 267.064374 
L 335.599055 267.22129 
L 340.085487 267.232043 
L 342.328703 267.170528 
L 346.815135 267.282713 
L 353.544783 267.270475 
L 355.787999 267.410629 
L 362.517648 267.175754 
L 373.733728 267.319715 
L 396.165889 267.28254 
L 400.652321 267.388014 
L 407.381969 267.259426 
L 409.625185 267.347831 
L 416.354834 267.26034 
L 420.841266 267.450749 
L 423.084482 267.345714 
L 429.81413 267.412005 
L 434.300562 267.331566 
L 441.03021 267.373047 
L 443.273427 267.191472 
L 447.759859 267.381115 
L 450.003075 267.280645 
L 452.246291 267.448818 
L 461.219155 267.344303 
L 463.462371 267.476229 
L 470.192019 267.404723 
L 474.678452 267.265338 
L 476.921668 267.50456 
L 479.164884 267.406071 
L 490.380964 267.471784 
L 492.62418 267.354707 
L 503.840261 267.37466 
L 506.083477 267.264179 
L 510.569909 267.545625 
L 512.813125 267.35472 
L 512.813125 267.35472 
" clip-path="url(#p12ed0908f4)" style="fill: none; stroke-dasharray: 6.66,2.88; stroke-dashoffset: 0; stroke: #2f8f52; stroke-width: 1.8"/>
   </g>
   <g id="patch_3">
    <path d="M 44.093125 278.885625 
L 44.093125 29.405625 
" style="fill: none; stroke: #c4ccd8; stroke-linejoin: miter; stroke-linecap: square"/>
   </g>
   <g id="patch_4">
    <path d="M 44.093125 278.885625 
L 535.133125 278.885625 
" style="fill: none; stroke: #c4ccd8; stroke-linejoin: miter; stroke-linecap: square"/>
   </g>
   <g id="text_20">
    <!-- scAtlasVAE 训练损失曲线（实跑，200 epoch） -->
    <g style="fill: #1b2432" transform="translate(153.113125 19.405625) scale(0.13 -0.13)">
     <defs>
      <path id="SimHei-73" d="M 2750 900 
Q 2750 500 2437 287 
Q 2125 75 1650 75 
Q 1050 75 725 312 
Q 400 550 400 1000 
L 900 1000 
Q 900 700 1112 600 
Q 1325 500 1625 500 
Q 1925 500 2075 612 
Q 2225 725 2225 900 
Q 2225 1025 2100 1150 
Q 1975 1275 1475 1350 
Q 900 1425 687 1637 
Q 475 1850 475 2200 
Q 475 2500 762 2737 
Q 1050 2975 1600 2975 
Q 2100 2975 2387 2750 
Q 2675 2525 2675 2150 
L 2175 2150 
Q 2175 2375 2012 2462 
Q 1850 2550 1600 2550 
Q 1275 2550 1137 2437 
Q 1000 2325 1000 2175 
Q 1000 2000 1125 1900 
Q 1250 1800 1650 1750 
Q 2300 1650 2525 1437 
Q 2750 1225 2750 900 
z
" transform="scale(0.015625)"/>
      <path id="SimHei-41" d="M 3075 125 
L 2475 125 
L 2125 1450 
L 1025 1450 
L 675 125 
L 75 125 
L 1325 4450 
L 1825 4450 
L 3075 125 
z
M 2000 1925 
L 1600 3450 
L 1550 3450 
L 1150 1925 
L 2000 1925 
z
" transform="scale(0.015625)"/>
      <path id="SimHei-74" d="M 2750 200 
Q 2625 150 2462 112 
Q 2300 75 2025 75 
Q 1575 75 1300 325 
Q 1025 575 1025 1025 
L 1025 2525 
L 175 2525 
L 175 2925 
L 1025 2925 
L 1025 3900 
L 1525 3900 
L 1525 2925 
L 2550 2925 
L 2550 2525 
L 1525 2525 
L 1525 1000 
Q 1525 800 1625 662 
Q 1725 525 2000 525 
Q 2275 525 2450 575 
Q 2625 625 2750 700 
L 2750 200 
z
" transform="scale(0.015625)"/>
      <path id="SimHei-6c" d="M 1825 125 
L 1325 125 
L 1325 4400 
L 1825 4400 
L 1825 125 
z
" transform="scale(0.015625)"/>
      <path id="SimHei-61" d="M 2875 125 
L 2275 125 
Q 2225 175 2200 262 
Q 2175 350 2175 475 
Q 2000 275 1750 175 
Q 1500 75 1225 75 
Q 825 75 550 275 
Q 275 475 275 850 
Q 275 1225 525 1450 
Q 775 1675 1300 1750 
Q 1650 1800 1912 1875 
Q 2175 1950 2175 2075 
Q 2175 2225 2062 2375 
Q 1950 2525 1575 2525 
Q 1275 2525 1137 2412 
Q 1000 2300 950 2100 
L 400 2100 
Q 450 2500 762 2737 
Q 1075 2975 1575 2975 
Q 2125 2975 2400 2725 
Q 2675 2475 2675 2025 
L 2675 650 
Q 2675 500 2725 375 
Q 2775 250 2875 125 
z
M 2175 1050 
L 2175 1550 
Q 2025 1500 1887 1462 
Q 1750 1425 1425 1375 
Q 1050 1325 937 1200 
Q 825 1075 825 900 
Q 825 750 937 637 
Q 1050 525 1275 525 
Q 1500 525 1762 650 
Q 2025 775 2175 1050 
z
" transform="scale(0.015625)"/>
      <path id="SimHei-56" d="M 3050 4400 
L 1800 75 
L 1300 75 
L 50 4400 
L 650 4400 
L 1525 1125 
L 1575 1125 
L 2450 4400 
L 3050 4400 
z
" transform="scale(0.015625)"/>
      <path id="SimHei-45" d="M 2900 125 
L 350 125 
L 350 4400 
L 2775 4400 
L 2775 3925 
L 925 3925 
L 925 2600 
L 2625 2600 
L 2625 2125 
L 925 2125 
L 925 600 
L 2900 600 
L 2900 125 
z
" transform="scale(0.015625)"/>
      <path id="SimHei-66f2" d="M 5825 500 
Q 5825 -200 5850 -550 
L 5275 -550 
L 5275 -50 
L 1150 -50 
L 1150 -550 
L 575 -550 
Q 600 125 600 550 
L 600 2775 
Q 600 3425 575 3900 
L 2150 3900 
L 2150 4450 
Q 2125 4850 2125 5150 
L 2700 5150 
Q 2650 4825 2650 4475 
L 2650 3900 
L 3700 3900 
L 3700 4525 
Q 3700 4850 3675 5175 
L 4250 5175 
Q 4225 4875 4225 4550 
L 4225 3900 
L 5850 3900 
Q 5825 3525 5825 2750 
L 5825 500 
z
M 3700 325 
L 3700 1875 
L 2650 1875 
L 2650 325 
L 3700 325 
z
M 5275 325 
L 5275 1875 
L 4225 1875 
L 4225 325 
L 5275 325 
z
M 2150 325 
L 2150 1875 
L 1150 1875 
L 1150 325 
L 2150 325 
z
M 3700 2250 
L 3700 3525 
L 2650 3525 
L 2650 2250 
L 3700 2250 
z
M 5275 2250 
L 5275 3525 
L 4225 3525 
L 4225 2250 
L 5275 2250 
z
M 2150 2250 
L 2150 3525 
L 1150 3525 
L 1150 2250 
L 2150 2250 
z
" transform="scale(0.015625)"/>
      <path id="SimHei-7ebf" d="M 3450 4300 
Q 3450 4675 3375 5125 
Q 3700 5100 4050 5050 
Q 3975 4900 3950 4562 
Q 3925 4225 3950 3600 
L 4800 3750 
Q 5225 3850 5650 3975 
L 5750 3500 
Q 5325 3450 4875 3375 
L 3975 3200 
Q 3975 2800 4025 2500 
L 5000 2675 
Q 5500 2775 5950 2925 
L 6025 2450 
Q 5575 2375 5075 2275 
L 4100 2100 
Q 4150 1600 4350 1175 
Q 4575 1350 4787 1575 
Q 5000 1800 5175 2075 
Q 5550 1775 5750 1675 
Q 5425 1525 5237 1337 
Q 5050 1150 4625 750 
Q 4925 250 5162 112 
Q 5400 -25 5500 100 
Q 5600 225 5675 625 
Q 5900 450 6200 350 
Q 5775 -750 5275 -537 
Q 4775 -325 4225 450 
Q 3875 175 3537 -62 
Q 3200 -300 2700 -550 
Q 2575 -300 2325 -100 
Q 2825 75 3175 275 
Q 3525 475 3975 850 
Q 3750 1350 3650 2025 
Q 2900 1900 2600 1800 
L 2525 2275 
Q 2825 2275 3550 2425 
Q 3500 2825 3500 3100 
Q 2825 2950 2575 2875 
L 2475 3350 
Q 2725 3350 3450 3500 
L 3450 4300 
z
M 1950 4875 
Q 1700 4650 1462 4237 
Q 1225 3825 825 3225 
Q 1425 3250 1650 3250 
Q 1875 3625 2050 4075 
Q 2300 3900 2600 3800 
Q 2350 3550 2087 3125 
Q 1825 2700 1175 1675 
Q 1850 1725 2375 1775 
Q 2300 1525 2300 1350 
Q 2125 1350 1525 1287 
Q 925 1225 550 1125 
Q 525 1375 400 1650 
Q 700 1725 950 2050 
Q 1200 2375 1475 2875 
Q 650 2825 425 2675 
Q 350 2950 200 3225 
Q 525 3450 825 3962 
Q 1125 4475 1375 5150 
Q 1625 4975 1950 4875 
z
M 2575 875 
Q 2550 600 2575 450 
Q 1950 325 1450 200 
Q 950 75 525 -75 
Q 450 200 250 475 
Q 950 550 1325 612 
Q 1700 675 2575 875 
z
M 4850 4025 
Q 4675 4300 4375 4675 
L 4775 4875 
Q 4875 4750 5275 4275 
Q 5025 4175 4850 4025 
z
" transform="scale(0.015625)"/>
      <path id="SimHei-5b9e" d="M 4125 3500 
Q 4050 3200 4000 2675 
Q 3950 2150 3850 1550 
L 5025 1550 
Q 5475 1550 5975 1575 
L 5975 1100 
Q 5450 1125 5000 1125 
L 3725 1125 
Q 3500 625 3050 250 
Q 2600 -125 2000 -337 
Q 1400 -550 925 -675 
Q 825 -375 500 -200 
Q 1225 -125 2050 212 
Q 2875 550 3200 1125 
L 1425 1125 
Q 975 1125 425 1100 
L 425 1575 
Q 1000 1550 1425 1550 
L 3375 1550 
Q 3450 1975 3487 2462 
Q 3525 2950 3500 3650 
Q 3800 3550 4125 3500 
z
M 3250 5250 
Q 3450 4850 3600 4375 
L 5775 4375 
Q 5750 4100 5750 3825 
Q 5750 3575 5775 3275 
L 5200 3275 
L 5200 3975 
L 1225 3975 
L 1225 3225 
L 675 3225 
Q 700 3525 700 3800 
Q 700 4100 675 4375 
L 2975 4375 
Q 2900 4675 2700 5075 
Q 2900 5150 3250 5250 
z
M 4000 825 
Q 4550 525 5050 262 
Q 5550 0 5925 -225 
Q 5750 -425 5550 -650 
Q 5100 -325 4575 -37 
Q 4050 250 3675 400 
Q 3875 650 4000 825 
z
M 1175 2750 
Q 1600 2550 2350 2050 
Q 2250 1900 2050 1650 
Q 1350 2175 925 2350 
Q 1075 2500 1175 2750 
z
M 3150 2825 
Q 2975 2625 2850 2425 
Q 2050 3000 1675 3125 
Q 1800 3300 1950 3525 
L 3150 2825 
z
" transform="scale(0.015625)"/>
      <path id="SimHei-8dd1" d="M 2575 2925 
Q 2950 3400 3225 4075 
Q 3500 4750 3625 5300 
Q 3875 5150 4200 5100 
Q 4050 5000 3825 4350 
L 5875 4350 
Q 5850 4100 5837 3600 
Q 5825 3100 5812 2225 
Q 5800 1350 5775 1162 
Q 5750 975 5575 912 
Q 5400 850 5075 775 
Q 5025 1000 4875 1275 
Q 5125 1275 5225 1312 
Q 5325 1350 5350 1537 
Q 5375 1725 5375 2275 
Q 5375 2850 5400 3950 
L 3675 3950 
Q 3475 3550 3275 3200 
L 4850 3200 
Q 4825 2900 4825 2500 
L 4825 1925 
Q 4825 1650 4850 1300 
L 3700 1300 
L 3700 125 
Q 3700 -225 3925 -200 
L 5200 -200 
Q 5475 -200 5537 -50 
Q 5600 100 5600 450 
Q 5825 325 6150 225 
Q 6025 -250 5925 -400 
Q 5825 -550 5550 -575 
L 3875 -575 
Q 3325 -575 3275 -100 
L 3275 3175 
Q 3150 2975 2975 2625 
Q 2775 2850 2575 2925 
z
M 2875 250 
Q 1350 -200 1025 -287 
Q 700 -375 400 -500 
Q 325 -275 200 -50 
Q 425 25 625 75 
L 625 1625 
Q 625 1925 600 2250 
L 1100 2250 
Q 1075 1925 1075 1625 
L 1075 150 
L 1475 250 
L 1475 2825 
L 700 2825 
Q 725 3300 725 3825 
Q 725 4350 700 4850 
L 2575 4850 
Q 2550 4375 2550 3825 
Q 2550 3275 2575 2825 
L 1900 2825 
L 1900 1950 
Q 2250 1950 2750 1975 
L 2750 1550 
Q 2250 1575 1900 1575 
L 1900 375 
Q 2375 500 2850 650 
Q 2850 425 2875 250 
z
M 2125 3200 
L 2125 4450 
L 1150 4450 
L 1150 3200 
L 2125 3200 
z
M 4400 1700 
L 4400 2825 
L 3700 2825 
L 3700 1700 
L 4400 1700 
z
" transform="scale(0.015625)"/>
      <path id="SimHei-ff0c" d="M 875 950 
L 1775 950 
L 1775 -50 
Q 1700 -675 1150 -975 
L 900 -750 
Q 1350 -500 1350 0 
L 875 0 
L 875 950 
z
" transform="scale(0.015625)"/>
     </defs>
     <use xlink:href="#SimHei-73"/>
     <use xlink:href="#SimHei-63" transform="translate(50 0)"/>
     <use xlink:href="#SimHei-41" transform="translate(100 0)"/>
     <use xlink:href="#SimHei-74" transform="translate(150 0)"/>
     <use xlink:href="#SimHei-6c" transform="translate(200 0)"/>
     <use xlink:href="#SimHei-61" transform="translate(250 0)"/>
     <use xlink:href="#SimHei-73" transform="translate(300 0)"/>
     <use xlink:href="#SimHei-56" transform="translate(350 0)"/>
     <use xlink:href="#SimHei-41" transform="translate(400 0)"/>
     <use xlink:href="#SimHei-45" transform="translate(450 0)"/>
     <use xlink:href="#SimHei-20" transform="translate(500 0)"/>
     <use xlink:href="#SimHei-8bad" transform="translate(550 0)"/>
     <use xlink:href="#SimHei-7ec3" transform="translate(650 0)"/>
     <use xlink:href="#SimHei-635f" transform="translate(750 0)"/>
     <use xlink:href="#SimHei-5931" transform="translate(850 0)"/>
     <use xlink:href="#SimHei-66f2" transform="translate(950 0)"/>
     <use xlink:href="#SimHei-7ebf" transform="translate(1050 0)"/>
     <use xlink:href="#SimHei-ff08" transform="translate(1150 0)"/>
     <use xlink:href="#SimHei-5b9e" transform="translate(1250 0)"/>
     <use xlink:href="#SimHei-8dd1" transform="translate(1350 0)"/>
     <use xlink:href="#SimHei-ff0c" transform="translate(1450 0)"/>
     <use xlink:href="#SimHei-32" transform="translate(1550 0)"/>
     <use xlink:href="#SimHei-30" transform="translate(1600 0)"/>
     <use xlink:href="#SimHei-30" transform="translate(1650 0)"/>
     <use xlink:href="#SimHei-20" transform="translate(1700 0)"/>
     <use xlink:href="#SimHei-65" transform="translate(1750 0)"/>
     <use xlink:href="#SimHei-70" transform="translate(1800 0)"/>
     <use xlink:href="#SimHei-6f" transform="translate(1850 0)"/>
     <use xlink:href="#SimHei-63" transform="translate(1900 0)"/>
     <use xlink:href="#SimHei-68" transform="translate(1950 0)"/>
     <use xlink:href="#SimHei-ff09" transform="translate(2000 0)"/>
    </g>
   </g>
   <g id="legend_1">
    <g id="line2d_35">
     <path d="M 438.833125 147.620625 
L 447.833125 147.620625 
L 456.833125 147.620625 
" style="fill: none; stroke: #2f6fd0; stroke-width: 2.2; stroke-linecap: square"/>
    </g>
    <g id="text_21">
     <!-- 总损失 -->
     <g style="fill: #1b2432" transform="translate(464.033125 150.770625) scale(0.09 -0.09)">
      <defs>
       <path id="SimHei-603b" d="M 4550 4850 
Q 4375 4650 4025 3900 
L 5100 3900 
Q 5075 3425 5075 2950 
Q 5075 2500 5100 2025 
L 1175 2025 
Q 1200 2550 1200 3000 
Q 1200 3475 1175 3900 
L 2175 3900 
Q 1900 4350 1525 4750 
Q 1700 4850 1875 5050 
Q 2350 4550 2575 4200 
Q 2400 4075 2250 3900 
L 3550 3900 
Q 3875 4700 3950 5100 
Q 4300 4925 4550 4850 
z
M 4600 2450 
L 4600 3525 
L 1650 3525 
L 1650 2450 
L 4600 2450 
z
M 2275 1450 
Q 2250 1050 2250 675 
Q 2250 300 2262 112 
Q 2275 -75 2675 -75 
L 4000 -75 
Q 4325 -75 4400 550 
Q 4650 400 4925 325 
Q 4775 -200 4562 -337 
Q 4350 -475 4000 -450 
L 2325 -450 
Q 1850 -450 1825 -175 
Q 1800 100 1800 525 
Q 1800 975 1775 1450 
L 2275 1450 
z
M 1350 1325 
Q 1050 300 825 -250 
Q 625 -150 375 -50 
Q 675 525 900 1500 
Q 1100 1425 1350 1325 
z
M 4950 1575 
Q 5700 825 6000 450 
Q 5825 275 5625 100 
Q 5375 450 4600 1275 
Q 4750 1375 4950 1575 
z
M 3350 575 
Q 2975 1175 2675 1500 
Q 2825 1650 3000 1800 
Q 3225 1575 3750 875 
Q 3525 775 3350 575 
z
" transform="scale(0.015625)"/>
      </defs>
      <use xlink:href="#SimHei-603b"/>
      <use xlink:href="#SimHei-635f" transform="translate(100 0)"/>
      <use xlink:href="#SimHei-5931" transform="translate(200 0)"/>
     </g>
    </g>
    <g id="line2d_36">
     <path d="M 438.833125 160.4175 
L 447.833125 160.4175 
L 456.833125 160.4175 
" style="fill: none; stroke-dasharray: 6.66,2.88; stroke-dashoffset: 0; stroke: #2f8f52; stroke-width: 1.8"/>
    </g>
    <g id="text_22">
     <!-- 重构损失(ZINB) -->
     <g style="fill: #1b2432" transform="translate(464.033125 163.5675) scale(0.09 -0.09)">
      <defs>
       <path id="SimHei-91cd" d="M 5300 4575 
Q 3900 4450 3425 4400 
L 3425 3875 
L 5150 3875 
Q 5500 3875 6000 3900 
L 6000 3450 
Q 5500 3475 5150 3475 
L 3425 3475 
L 3425 3050 
L 5150 3050 
Q 5125 2675 5125 2125 
Q 5125 1575 5150 1175 
L 3425 1175 
L 3425 750 
L 4550 750 
Q 5000 750 5500 775 
L 5500 375 
Q 5025 400 4575 400 
L 3425 400 
L 3425 -50 
L 5050 -50 
Q 5475 -50 5975 -25 
L 5975 -450 
Q 5475 -425 5075 -425 
L 1475 -425 
Q 975 -425 450 -450 
L 450 -25 
Q 975 -50 1450 -50 
L 2925 -50 
L 2925 400 
L 2050 400 
Q 1450 400 950 375 
L 950 775 
Q 1600 750 2075 750 
L 2925 750 
L 2925 1175 
L 1250 1175 
Q 1275 1800 1275 2125 
Q 1275 2450 1250 3050 
L 2925 3050 
L 2925 3475 
L 1225 3475 
Q 875 3475 400 3450 
L 400 3900 
Q 875 3875 1225 3875 
L 2925 3875 
L 2925 4375 
Q 2425 4350 1075 4250 
Q 1000 4475 875 4675 
Q 2275 4700 3362 4812 
Q 4450 4925 4925 5075 
Q 5025 4825 5300 4575 
z
M 4650 2300 
L 4650 2650 
L 3425 2650 
L 3425 2300 
L 4650 2300 
z
M 2925 2300 
L 2925 2650 
L 1750 2650 
L 1750 2300 
L 2925 2300 
z
M 4625 1575 
L 4625 1900 
L 3425 1900 
L 3425 1575 
L 4625 1575 
z
M 2925 1575 
L 2925 1900 
L 1750 1900 
L 1750 1575 
L 2925 1575 
z
" transform="scale(0.015625)"/>
       <path id="SimHei-6784" d="M 2250 1625 
Q 2050 2100 1825 2475 
L 1825 575 
Q 1825 50 1850 -500 
L 1325 -500 
Q 1350 75 1350 575 
L 1350 2375 
Q 1075 1750 525 1000 
Q 375 1200 175 1400 
Q 625 1900 912 2512 
Q 1200 3125 1250 3500 
Q 850 3500 475 3475 
L 475 3925 
Q 850 3900 1350 3900 
L 1350 4475 
Q 1350 4850 1325 5150 
L 1850 5150 
Q 1825 4900 1825 4475 
L 1825 3900 
Q 2150 3900 2525 3925 
L 2525 3475 
Q 2150 3500 1825 3500 
L 1825 2525 
Q 2025 2625 2225 2750 
Q 2475 2300 2700 1875 
Q 2475 1775 2250 1625 
z
M 4000 5050 
Q 3875 4875 3762 4625 
Q 3650 4375 3550 4125 
L 6025 4125 
Q 6000 3750 5975 3200 
Q 5975 1675 5875 350 
Q 5775 -200 5462 -337 
Q 5150 -475 4500 -525 
Q 4450 -250 4300 50 
Q 4825 25 5100 75 
Q 5375 125 5425 725 
Q 5525 2125 5500 3700 
L 3375 3700 
Q 3150 3200 2875 2750 
Q 2675 2900 2450 2975 
Q 2825 3525 3075 4150 
Q 3325 4775 3425 5250 
Q 3725 5100 4000 5050 
z
M 4450 1050 
Q 4175 1025 3662 950 
Q 3150 875 2800 725 
Q 2700 1025 2575 1300 
Q 2725 1350 2925 1675 
Q 3125 2000 3250 2337 
Q 3375 2675 3500 3150 
Q 3800 3025 4075 2875 
Q 3925 2725 3637 2162 
Q 3350 1600 3175 1350 
Q 3725 1375 4375 1425 
Q 4275 1775 4125 2175 
L 4625 2325 
Q 4775 1900 4900 1525 
Q 5025 1150 5075 800 
Q 4800 750 4550 650 
Q 4500 875 4450 1050 
z
" transform="scale(0.015625)"/>
       <path id="SimHei-28" d="M 2975 -200 
L 2700 -475 
Q 2075 125 1762 775 
Q 1450 1425 1450 2250 
Q 1450 3075 1762 3725 
Q 2075 4375 2700 5000 
L 2975 4725 
Q 2400 4175 2112 3587 
Q 1825 3000 1825 2250 
Q 1825 1500 2112 912 
Q 2400 325 2975 -200 
z
" transform="scale(0.015625)"/>
       <path id="SimHei-5a" d="M 2900 125 
L 225 125 
L 225 600 
L 2250 3925 
L 375 3925 
L 375 4400 
L 2825 4400 
L 2825 3925 
L 800 600 
L 2900 600 
L 2900 125 
z
" transform="scale(0.015625)"/>
       <path id="SimHei-49" d="M 1850 125 
L 1275 125 
L 1275 4400 
L 1850 4400 
L 1850 125 
z
" transform="scale(0.015625)"/>
       <path id="SimHei-4e" d="M 2850 125 
L 2225 125 
L 850 3225 
L 825 3225 
L 825 125 
L 250 125 
L 250 4400 
L 875 4400 
L 2250 1300 
L 2275 1300 
L 2275 4400 
L 2850 4400 
L 2850 125 
z
" transform="scale(0.015625)"/>
       <path id="SimHei-42" d="M 2950 1400 
Q 2950 675 2550 400 
Q 2150 125 1525 125 
L 275 125 
L 275 4400 
L 1575 4400 
Q 2200 4400 2512 4075 
Q 2825 3750 2825 3300 
Q 2825 2850 2612 2637 
Q 2400 2425 2175 2350 
Q 2475 2275 2712 2037 
Q 2950 1800 2950 1400 
z
M 2250 3300 
Q 2250 3625 2062 3775 
Q 1875 3925 1600 3925 
L 850 3925 
L 850 2600 
L 1575 2600 
Q 1850 2600 2050 2762 
Q 2250 2925 2250 3300 
z
M 2350 1400 
Q 2350 1800 2087 1962 
Q 1825 2125 1500 2125 
L 850 2125 
L 850 600 
L 1425 600 
Q 1875 600 2112 775 
Q 2350 950 2350 1400 
z
" transform="scale(0.015625)"/>
       <path id="SimHei-29" d="M 1675 2250 
Q 1675 1425 1362 775 
Q 1050 125 425 -475 
L 150 -200 
Q 725 325 1012 912 
Q 1300 1500 1300 2250 
Q 1300 3000 1012 3587 
Q 725 4175 150 4725 
L 425 5000 
Q 1050 4375 1362 3725 
Q 1675 3075 1675 2250 
z
" transform="scale(0.015625)"/>
      </defs>
      <use xlink:href="#SimHei-91cd"/>
      <use xlink:href="#SimHei-6784" transform="translate(100 0)"/>
      <use xlink:href="#SimHei-635f" transform="translate(200 0)"/>
      <use xlink:href="#SimHei-5931" transform="translate(300 0)"/>
      <use xlink:href="#SimHei-28" transform="translate(400 0)"/>
      <use xlink:href="#SimHei-5a" transform="translate(450 0)"/>
      <use xlink:href="#SimHei-49" transform="translate(500 0)"/>
      <use xlink:href="#SimHei-4e" transform="translate(550 0)"/>
      <use xlink:href="#SimHei-42" transform="translate(600 0)"/>
      <use xlink:href="#SimHei-29" transform="translate(650 0)"/>
     </g>
    </g>
   </g>
  </g>
  <g id="axes_2">
   <g id="matplotlib.axis_3">
    <g id="ytick_8">
     <g id="line2d_37">
      <defs>
       <path id="ma8eaa52050" d="M 0 0 
L 3.5 0 
" style="stroke: #b9821f; stroke-width: 0.8"/>
      </defs>
      <g>
       <use xlink:href="#ma8eaa52050" x="535.133125" y="278.885625" style="fill: #b9821f; stroke: #b9821f; stroke-width: 0.8"/>
      </g>
     </g>
     <g id="text_23">
      <!-- 0.0 -->
      <g style="fill: #b9821f" transform="translate(542.133125 282.323125) scale(0.1 -0.1)">
       <use xlink:href="#SimHei-30"/>
       <use xlink:href="#SimHei-2e" transform="translate(50 0)"/>
       <use xlink:href="#SimHei-30" transform="translate(100 0)"/>
      </g>
     </g>
    </g>
    <g id="ytick_9">
     <g id="line2d_38">
      <g>
       <use xlink:href="#ma8eaa52050" x="535.133125" y="231.365625" style="fill: #b9821f; stroke: #b9821f; stroke-width: 0.8"/>
      </g>
     </g>
     <g id="text_24">
      <!-- 0.2 -->
      <g style="fill: #b9821f" transform="translate(542.133125 234.803125) scale(0.1 -0.1)">
       <use xlink:href="#SimHei-30"/>
       <use xlink:href="#SimHei-2e" transform="translate(50 0)"/>
       <use xlink:href="#SimHei-32" transform="translate(100 0)"/>
      </g>
     </g>
    </g>
    <g id="ytick_10">
     <g id="line2d_39">
      <g>
       <use xlink:href="#ma8eaa52050" x="535.133125" y="183.845625" style="fill: #b9821f; stroke: #b9821f; stroke-width: 0.8"/>
      </g>
     </g>
     <g id="text_25">
      <!-- 0.4 -->
      <g style="fill: #b9821f" transform="translate(542.133125 187.283125) scale(0.1 -0.1)">
       <use xlink:href="#SimHei-30"/>
       <use xlink:href="#SimHei-2e" transform="translate(50 0)"/>
       <use xlink:href="#SimHei-34" transform="translate(100 0)"/>
      </g>
     </g>
    </g>
    <g id="ytick_11">
     <g id="line2d_40">
      <g>
       <use xlink:href="#ma8eaa52050" x="535.133125" y="136.325625" style="fill: #b9821f; stroke: #b9821f; stroke-width: 0.8"/>
      </g>
     </g>
     <g id="text_26">
      <!-- 0.6 -->
      <g style="fill: #b9821f" transform="translate(542.133125 139.763125) scale(0.1 -0.1)">
       <use xlink:href="#SimHei-30"/>
       <use xlink:href="#SimHei-2e" transform="translate(50 0)"/>
       <use xlink:href="#SimHei-36" transform="translate(100 0)"/>
      </g>
     </g>
    </g>
    <g id="ytick_12">
     <g id="line2d_41">
      <g>
       <use xlink:href="#ma8eaa52050" x="535.133125" y="88.805625" style="fill: #b9821f; stroke: #b9821f; stroke-width: 0.8"/>
      </g>
     </g>
     <g id="text_27">
      <!-- 0.8 -->
      <g style="fill: #b9821f" transform="translate(542.133125 92.243125) scale(0.1 -0.1)">
       <use xlink:href="#SimHei-30"/>
       <use xlink:href="#SimHei-2e" transform="translate(50 0)"/>
       <use xlink:href="#SimHei-38" transform="translate(100 0)"/>
      </g>
     </g>
    </g>
    <g id="ytick_13">
     <g id="line2d_42">
      <g>
       <use xlink:href="#ma8eaa52050" x="535.133125" y="41.285625" style="fill: #b9821f; stroke: #b9821f; stroke-width: 0.8"/>
      </g>
     </g>
     <g id="text_28">
      <!-- 1.0 -->
      <g style="fill: #b9821f" transform="translate(542.133125 44.723125) scale(0.1 -0.1)">
       <use xlink:href="#SimHei-31"/>
       <use xlink:href="#SimHei-2e" transform="translate(50 0)"/>
       <use xlink:href="#SimHei-30" transform="translate(100 0)"/>
      </g>
     </g>
    </g>
    <g id="text_29">
     <!-- KL 权重 λ_KL -->
     <g style="fill: #b9821f" transform="translate(569.33625 186.645625) rotate(-90) scale(0.1 -0.1)">
      <defs>
       <path id="SimHei-4b" d="M 3050 125 
L 2400 125 
L 1250 2250 
L 850 1725 
L 850 125 
L 275 125 
L 275 4400 
L 850 4400 
L 850 2550 
L 2275 4400 
L 2950 4400 
L 1625 2725 
L 3050 125 
z
" transform="scale(0.015625)"/>
       <path id="SimHei-4c" d="M 2900 125 
L 300 125 
L 300 4400 
L 875 4400 
L 875 600 
L 2900 600 
L 2900 125 
z
" transform="scale(0.015625)"/>
       <path id="SimHei-6743" d="M 2700 4575 
Q 3250 4550 3725 4550 
L 5675 4550 
Q 5575 3500 5337 2737 
Q 5100 1975 4475 1075 
Q 4775 675 5200 425 
Q 5625 175 6175 0 
Q 5825 -275 5750 -500 
Q 5175 -225 4775 100 
Q 4375 425 4150 725 
Q 3825 350 3475 62 
Q 3125 -225 2500 -600 
Q 2400 -350 2100 -125 
Q 2475 0 2950 275 
Q 3425 550 3850 1075 
Q 3625 1375 3400 2037 
Q 3175 2700 3050 4125 
L 2700 4125 
L 2700 4575 
z
M 200 1350 
Q 575 1750 825 2275 
Q 1075 2800 1250 3450 
Q 825 3450 425 3425 
L 425 3875 
Q 875 3850 1325 3850 
Q 1325 4900 1300 5250 
L 1850 5250 
Q 1800 4950 1800 3850 
Q 2175 3850 2600 3875 
L 2600 3425 
Q 2175 3450 1800 3450 
L 1800 2525 
Q 1975 2625 2175 2775 
Q 2625 2175 2750 1875 
Q 2475 1725 2325 1575 
Q 2200 1925 1800 2375 
L 1800 525 
Q 1800 0 1825 -600 
L 1275 -600 
Q 1325 0 1325 525 
L 1325 2375 
Q 1125 1675 575 900 
Q 425 1225 200 1350 
z
M 3525 4150 
Q 3675 2850 3787 2412 
Q 3900 1975 4175 1475 
Q 4475 1925 4750 2587 
Q 5025 3250 5100 4150 
L 3525 4150 
z
" transform="scale(0.015625)"/>
       <path id="SimHei-3bb" d="M 1925 4500 
L 2400 4500 
Q 2875 4575 3075 3725 
L 4100 725 
Q 4075 575 4700 625 
L 4700 225 
L 4125 225 
Q 3700 150 3350 1600 
L 3025 2550 
L 2175 225 
L 1675 225 
L 2800 3225 
L 2550 3975 
Q 2525 4125 1925 4100 
L 1925 4500 
z
" transform="scale(0.015625)"/>
       <path id="SimHei-5f" d="M 3150 -850 
L 0 -850 
L 0 -550 
L 3150 -550 
L 3150 -850 
z
" transform="scale(0.015625)"/>
      </defs>
      <use xlink:href="#SimHei-4b"/>
      <use xlink:href="#SimHei-4c" transform="translate(50 0)"/>
      <use xlink:href="#SimHei-20" transform="translate(100 0)"/>
      <use xlink:href="#SimHei-6743" transform="translate(150 0)"/>
      <use xlink:href="#SimHei-91cd" transform="translate(250 0)"/>
      <use xlink:href="#SimHei-20" transform="translate(350 0)"/>
      <use xlink:href="#SimHei-3bb" transform="translate(400 0)"/>
      <use xlink:href="#SimHei-5f" transform="translate(500 0)"/>
      <use xlink:href="#SimHei-4b" transform="translate(550 0)"/>
      <use xlink:href="#SimHei-4c" transform="translate(600 0)"/>
     </g>
    </g>
   </g>
   <g id="line2d_43">
    <path d="M 66.413125 278.885625 
L 512.813125 42.473625 
L 512.813125 42.473625 
" clip-path="url(#p12ed0908f4)" style="fill: none; stroke: #b9821f; stroke-width: 2; stroke-linecap: square"/>
   </g>
   <g id="patch_5">
    <path d="M 44.093125 278.885625 
L 44.093125 29.405625 
" style="fill: none; stroke: #c4ccd8; stroke-linejoin: miter; stroke-linecap: square"/>
   </g>
   <g id="patch_6">
    <path d="M 535.133125 278.885625 
L 535.133125 29.405625 
" style="fill: none; stroke: #c4ccd8; stroke-linejoin: miter; stroke-linecap: square"/>
   </g>
   <g id="patch_7">
    <path d="M 44.093125 278.885625 
L 535.133125 278.885625 
" style="fill: none; stroke: #c4ccd8; stroke-linejoin: miter; stroke-linecap: square"/>
   </g>
   <g id="patch_8">
    <path d="M 264.694523 101.821797 
Q 387.782718 72.379992 509.783552 43.198277 
" style="fill: none; stroke: #b9821f; stroke-linecap: round"/>
    <path d="M 505.950692 42.305422 
L 509.783552 43.198277 
L 506.769552 45.728851 
" style="fill: none; stroke: #b9821f; stroke-linecap: round"/>
   </g>
   <g id="text_30">
    <!-- λ_KL 因 min(max_epoch,400) 截断， -->
    <g style="fill: #b9821f" transform="translate(120.250311 111.402375) scale(0.088 -0.088)">
     <defs>
      <path id="SimHei-56e0" d="M 5775 4950 
Q 5750 4325 5750 3600 
L 5750 850 
Q 5750 200 5775 -550 
L 5275 -550 
L 5275 -100 
L 1150 -100 
L 1150 -600 
L 650 -600 
Q 675 100 675 850 
L 675 3600 
Q 675 4275 650 4950 
L 5775 4950 
z
M 5275 325 
L 5275 4550 
L 1150 4550 
L 1150 325 
L 5275 325 
z
M 2975 3350 
Q 2975 3975 2950 4275 
Q 3225 4250 3525 4250 
Q 3450 3975 3450 3750 
L 3450 3350 
L 4025 3350 
Q 4425 3350 4950 3375 
L 4950 2900 
Q 4425 2925 4025 2925 
L 3425 2925 
Q 3400 2750 3325 2425 
Q 3625 2250 3975 1975 
Q 4325 1700 4900 1225 
Q 4700 1050 4475 800 
Q 4225 1100 3862 1450 
Q 3500 1800 3200 2025 
Q 3025 1700 2700 1375 
Q 2375 1050 1900 700 
Q 1750 925 1475 1075 
Q 2200 1400 2537 1875 
Q 2875 2350 2925 2925 
L 2475 2925 
Q 2025 2925 1525 2900 
L 1525 3375 
Q 2025 3350 2450 3350 
L 2975 3350 
z
" transform="scale(0.015625)"/>
      <path id="SimHei-6d" d="M 3050 125 
L 2550 125 
L 2550 2150 
Q 2550 2300 2500 2400 
Q 2450 2500 2300 2500 
Q 2125 2500 1975 2312 
Q 1825 2125 1825 1825 
L 1825 125 
L 1325 125 
L 1325 2150 
Q 1325 2300 1275 2400 
Q 1225 2500 1075 2500 
Q 900 2500 750 2312 
Q 600 2125 600 1825 
L 600 125 
L 100 125 
L 100 2925 
L 600 2925 
L 600 2550 
Q 725 2750 900 2862 
Q 1075 2975 1275 2975 
Q 1475 2975 1612 2862 
Q 1750 2750 1800 2550 
Q 1925 2750 2087 2862 
Q 2250 2975 2450 2975 
Q 2750 2975 2900 2812 
Q 3050 2650 3050 2350 
L 3050 125 
z
" transform="scale(0.015625)"/>
      <path id="SimHei-69" d="M 1800 3725 
L 1300 3725 
L 1300 4375 
L 1800 4375 
L 1800 3725 
z
M 1800 125 
L 1300 125 
L 1300 2925 
L 1800 2925 
L 1800 125 
z
" transform="scale(0.015625)"/>
      <path id="SimHei-6e" d="M 2800 125 
L 2300 125 
L 2300 1925 
Q 2300 2225 2150 2400 
Q 2000 2575 1750 2575 
Q 1425 2575 1137 2237 
Q 850 1900 850 1400 
L 850 125 
L 350 125 
L 350 2925 
L 850 2925 
L 850 2400 
Q 1050 2675 1287 2825 
Q 1525 2975 1900 2975 
Q 2350 2975 2575 2725 
Q 2800 2475 2800 2100 
L 2800 125 
z
" transform="scale(0.015625)"/>
      <path id="SimHei-78" d="M 2875 125 
L 2275 125 
L 1550 1200 
L 825 125 
L 225 125 
L 1250 1550 
L 300 2925 
L 900 2925 
L 1550 1875 
L 2200 2925 
L 2800 2925 
L 1850 1550 
L 2875 125 
z
" transform="scale(0.015625)"/>
      <path id="SimHei-2c" d="M 1100 125 
L 775 -550 
L 525 -550 
L 775 125 
L 525 125 
L 525 675 
L 1100 675 
L 1100 125 
z
" transform="scale(0.015625)"/>
      <path id="SimHei-622a" d="M 1400 2750 
L 2225 2750 
Q 2175 2925 2050 3150 
Q 2250 3225 2525 3325 
Q 2675 2950 2750 2775 
Q 3200 2775 3575 2800 
L 3575 2350 
Q 3125 2375 2575 2375 
L 2575 1950 
Q 3075 1950 3475 1975 
L 3475 1550 
Q 3100 1575 2575 1575 
L 2575 1175 
Q 3000 1175 3450 1200 
L 3450 775 
Q 3050 800 2575 800 
L 2575 350 
Q 3100 350 3475 375 
L 3475 -50 
Q 3600 25 3750 125 
Q 4075 350 4375 700 
Q 4225 1100 4087 1712 
Q 3950 2325 3875 3425 
L 1150 3425 
Q 775 3425 375 3400 
L 375 3850 
Q 800 3800 1150 3800 
L 1900 3800 
L 1900 4250 
Q 1175 4250 800 4225 
L 800 4675 
Q 1175 4625 1900 4625 
Q 1900 4825 1875 5175 
L 2375 5175 
Q 2350 4900 2350 4625 
L 2650 4625 
Q 2950 4625 3400 4650 
L 3400 4225 
Q 2950 4250 2650 4250 
L 2350 4250 
L 2350 3800 
L 3850 3800 
Q 3825 4150 3800 5175 
Q 4100 5125 4350 5100 
Q 4275 4825 4300 3800 
L 5300 3800 
Q 5650 3800 6050 3825 
L 6050 3400 
Q 5650 3425 5300 3425 
L 4325 3425 
Q 4350 3125 4412 2550 
Q 4475 1975 4675 1200 
Q 5125 2075 5275 3025 
Q 5450 2925 5825 2850 
Q 5600 2275 5400 1725 
Q 5200 1175 4925 675 
Q 5250 225 5437 50 
Q 5625 -125 5650 75 
Q 5675 275 5675 500 
Q 5950 375 6200 275 
Q 6075 -425 5950 -575 
Q 5825 -725 5462 -537 
Q 5100 -350 4625 300 
Q 4350 0 4062 -225 
Q 3775 -450 3425 -675 
Q 3275 -450 3050 -275 
L 3450 -75 
Q 3075 -50 2775 -50 
L 1275 -50 
L 1275 -500 
L 800 -500 
Q 825 -175 850 200 
L 850 1925 
Q 700 1775 500 1550 
Q 325 1775 200 1925 
Q 375 2075 700 2487 
Q 1025 2900 1250 3350 
Q 1475 3200 1725 3075 
L 1400 2750 
z
M 5725 4350 
Q 5500 4275 5250 4100 
Q 5200 4350 4775 4850 
Q 4975 4950 5225 5100 
L 5725 4350 
z
M 2150 350 
L 2150 800 
L 1275 800 
L 1275 350 
L 2150 350 
z
M 2150 1950 
L 2150 2375 
L 1275 2375 
L 1275 1950 
L 2150 1950 
z
M 2150 1175 
L 2150 1575 
L 1275 1575 
L 1275 1175 
L 2150 1175 
z
" transform="scale(0.015625)"/>
      <path id="SimHei-65ad" d="M 3800 4600 
Q 4400 4600 4925 4687 
Q 5450 4775 5700 4900 
Q 5775 4700 6000 4375 
Q 5750 4375 5337 4337 
Q 4925 4300 4275 4250 
L 4275 3050 
L 5575 3050 
Q 5775 3050 6075 3075 
L 6075 2625 
Q 5750 2650 5500 2650 
L 5500 225 
Q 5500 -200 5550 -550 
L 5025 -550 
Q 5075 -125 5075 300 
L 5075 2650 
L 4275 2650 
Q 4275 2000 4225 1475 
Q 4175 950 4075 537 
Q 3975 125 3475 -600 
Q 3275 -450 3050 -350 
Q 3500 200 3650 725 
Q 3800 1250 3825 1800 
Q 3850 2350 3850 3250 
Q 3850 4150 3800 4600 
z
M 2600 5150 
Q 2575 4875 2575 4400 
L 2575 3225 
Q 3050 3225 3450 3250 
L 3450 2800 
Q 3075 2850 2575 2850 
L 2575 1450 
Q 2575 1000 2600 675 
L 2100 675 
Q 2125 1400 2125 2225 
Q 1850 1525 1450 1000 
Q 1250 1175 1075 1300 
Q 1700 2075 1925 2850 
Q 1700 2850 1225 2825 
L 1225 3250 
Q 1575 3225 2125 3225 
L 2125 4375 
Q 2125 4875 2100 5150 
L 2600 5150 
z
M 1000 475 
L 2550 475 
Q 2950 475 3300 500 
L 3300 50 
Q 2950 75 2325 75 
L 500 75 
Q 525 450 525 950 
L 525 3850 
Q 525 4300 500 4650 
L 1025 4650 
Q 1000 4300 1000 3950 
L 1000 475 
z
M 2975 2550 
Q 3275 2025 3625 1525 
L 3225 1225 
Q 3000 1725 2625 2325 
Q 2750 2425 2975 2550 
z
M 3625 4550 
Q 3450 4350 3350 4087 
Q 3250 3825 3125 3550 
Q 2925 3650 2700 3725 
Q 3000 4225 3125 4775 
Q 3375 4650 3625 4550 
z
M 1200 4675 
Q 1450 4700 1675 4725 
Q 1800 3950 1850 3675 
Q 1675 3650 1400 3600 
Q 1375 3875 1200 4675 
z
" transform="scale(0.015625)"/>
     </defs>
     <use xlink:href="#SimHei-3bb"/>
     <use xlink:href="#SimHei-5f" transform="translate(100 0)"/>
     <use xlink:href="#SimHei-4b" transform="translate(150 0)"/>
     <use xlink:href="#SimHei-4c" transform="translate(200 0)"/>
     <use xlink:href="#SimHei-20" transform="translate(250 0)"/>
     <use xlink:href="#SimHei-56e0" transform="translate(300 0)"/>
     <use xlink:href="#SimHei-20" transform="translate(400 0)"/>
     <use xlink:href="#SimHei-6d" transform="translate(450 0)"/>
     <use xlink:href="#SimHei-69" transform="translate(500 0)"/>
     <use xlink:href="#SimHei-6e" transform="translate(550 0)"/>
     <use xlink:href="#SimHei-28" transform="translate(600 0)"/>
     <use xlink:href="#SimHei-6d" transform="translate(650 0)"/>
     <use xlink:href="#SimHei-61" transform="translate(700 0)"/>
     <use xlink:href="#SimHei-78" transform="translate(750 0)"/>
     <use xlink:href="#SimHei-5f" transform="translate(800 0)"/>
     <use xlink:href="#SimHei-65" transform="translate(850 0)"/>
     <use xlink:href="#SimHei-70" transform="translate(900 0)"/>
     <use xlink:href="#SimHei-6f" transform="translate(950 0)"/>
     <use xlink:href="#SimHei-63" transform="translate(1000 0)"/>
     <use xlink:href="#SimHei-68" transform="translate(1050 0)"/>
     <use xlink:href="#SimHei-2c" transform="translate(1100 0)"/>
     <use xlink:href="#SimHei-34" transform="translate(1150 0)"/>
     <use xlink:href="#SimHei-30" transform="translate(1200 0)"/>
     <use xlink:href="#SimHei-30" transform="translate(1250 0)"/>
     <use xlink:href="#SimHei-29" transform="translate(1300 0)"/>
     <use xlink:href="#SimHei-20" transform="translate(1350 0)"/>
     <use xlink:href="#SimHei-622a" transform="translate(1400 0)"/>
     <use xlink:href="#SimHei-65ad" transform="translate(1500 0)"/>
     <use xlink:href="#SimHei-ff0c" transform="translate(1600 0)"/>
    </g>
    <!-- 整个训练 0→~1 爬满，末轮≈0.99 -->
    <g style="fill: #b9821f" transform="translate(120.250311 121.69425) scale(0.088 -0.088)">
     <defs>
      <path id="SimHei-6574" d="M 2400 2825 
Q 2700 2650 3050 2300 
L 2725 1975 
Q 2475 2275 2175 2500 
L 2175 1875 
L 1700 1875 
L 1700 2525 
Q 1425 2250 1200 2100 
Q 975 1950 550 1650 
Q 450 1875 200 2025 
Q 525 2150 862 2350 
Q 1200 2550 1450 2825 
L 525 2825 
Q 550 3125 550 3375 
Q 550 3650 525 3900 
L 1700 3900 
L 1700 4250 
Q 750 4250 375 4225 
L 375 4625 
Q 750 4600 1700 4600 
Q 1700 4875 1675 5175 
L 2200 5175 
Q 2175 4875 2175 4600 
Q 3050 4600 3425 4625 
L 3425 4225 
Q 3050 4250 2175 4250 
L 2175 3900 
L 3275 3900 
Q 3250 3650 3250 3375 
Q 3250 3125 3275 2825 
L 2400 2825 
z
M 4675 1675 
Q 5050 1675 5475 1700 
L 5475 1300 
Q 5050 1325 3425 1325 
L 3425 850 
Q 4925 850 5300 875 
L 5300 475 
Q 4925 500 3425 500 
L 3425 -50 
L 5175 -50 
Q 5550 -50 6025 -25 
L 6025 -425 
Q 5550 -400 5200 -400 
L 1200 -400 
Q 850 -400 375 -425 
L 375 -25 
Q 875 -50 1550 -50 
Q 1550 650 1525 950 
L 2050 950 
Q 2025 725 2025 -50 
L 2975 -50 
L 2975 1325 
Q 1350 1325 950 1300 
L 950 1700 
Q 1350 1675 1700 1675 
L 4675 1675 
z
M 3700 3225 
Q 3525 3350 3325 3450 
Q 3675 3825 3900 4375 
Q 4125 4925 4175 5200 
Q 4375 5125 4725 5025 
Q 4625 4925 4375 4425 
L 5425 4425 
Q 5725 4425 6100 4450 
L 6100 4050 
Q 5750 4075 5625 4075 
Q 5475 3275 4975 2725 
Q 5425 2425 6025 2350 
Q 5875 2175 5800 1875 
Q 5450 1975 5187 2112 
Q 4925 2250 4700 2450 
Q 4250 2125 3725 1875 
Q 3625 2075 3400 2275 
Q 3950 2400 4375 2725 
Q 4175 2950 3875 3450 
L 3700 3225 
z
M 4100 3825 
Q 4425 3250 4700 3000 
Q 5025 3425 5150 4075 
L 4250 4075 
L 4100 3825 
z
M 1700 3175 
L 1700 3550 
L 1000 3550 
L 1000 3175 
L 1700 3175 
z
M 2825 3175 
L 2825 3550 
L 2175 3550 
L 2175 3175 
L 2825 3175 
z
" transform="scale(0.015625)"/>
      <path id="SimHei-4e2a" d="M 3425 4825 
Q 4475 3275 6150 2775 
Q 5900 2475 5775 2200 
Q 4150 2900 3150 4425 
Q 2225 2950 675 2125 
Q 550 2350 250 2600 
Q 1450 3100 2112 3875 
Q 2775 4650 3000 5275 
Q 3300 5150 3600 5050 
Q 3500 4925 3425 4825 
z
M 2925 2350 
Q 2925 2750 2875 3375 
L 3450 3375 
Q 3425 2950 3425 2325 
L 3425 550 
Q 3425 -25 3450 -625 
L 2900 -625 
Q 2925 0 2925 525 
L 2925 2350 
z
" transform="scale(0.015625)"/>
      <path id="SimHei-2192" d="M 3900 4275 
L 5475 2300 
L 3900 400 
L 3900 1900 
L 400 1900 
L 400 2725 
L 3900 2725 
L 3900 4275 
z
" transform="scale(0.015625)"/>
      <path id="SimHei-7e" d="M 2900 5075 
Q 2750 4725 2562 4487 
Q 2375 4250 2125 4250 
Q 1950 4250 1625 4575 
Q 1300 4900 1075 4900 
Q 900 4900 800 4762 
Q 700 4625 600 4325 
L 350 4600 
Q 500 4950 662 5187 
Q 825 5425 1050 5425 
Q 1325 5425 1662 5112 
Q 2000 4800 2175 4800 
Q 2275 4800 2425 4950 
Q 2575 5100 2650 5400 
L 2900 5075 
z
" transform="scale(0.015625)"/>
      <path id="SimHei-722c" d="M 1650 -400 
Q 1675 150 1675 500 
L 1675 4425 
Q 1475 4400 1250 4400 
Q 1250 2650 1237 2012 
Q 1225 1375 1125 737 
Q 1025 100 700 -525 
Q 475 -300 225 -175 
Q 425 100 562 537 
Q 700 975 762 1600 
Q 825 2225 812 3287 
Q 800 4350 775 4750 
Q 1400 4750 2112 4875 
Q 2825 5000 3175 5150 
Q 3275 4925 3425 4725 
L 5775 4725 
Q 5750 4075 5750 3550 
Q 5750 3050 5775 2200 
L 5325 2200 
L 5325 2350 
L 3900 2350 
L 3900 1450 
Q 3875 1025 4200 1075 
L 5300 1075 
Q 5450 1100 5487 1200 
Q 5525 1300 5525 1650 
Q 5725 1550 6050 1500 
Q 5975 950 5837 812 
Q 5700 675 5525 650 
L 4025 650 
Q 3475 650 3475 1275 
L 3475 3925 
Q 3475 4250 3450 4650 
Q 3175 4625 2850 4575 
Q 2875 3250 3012 2300 
Q 3150 1350 3412 850 
Q 3675 350 4250 150 
Q 4825 -50 6125 -25 
Q 5850 -300 5800 -550 
Q 4900 -525 4187 -362 
Q 3475 -200 3112 362 
Q 2750 925 2600 1850 
Q 2450 2775 2425 4525 
Q 2300 4500 2100 4475 
L 2100 500 
Q 2100 150 2125 -400 
L 1650 -400 
z
M 5325 2750 
L 5325 4325 
L 4825 4325 
L 4825 2750 
L 5325 2750 
z
M 4400 2750 
L 4400 4325 
L 3900 4325 
L 3900 2750 
L 4400 2750 
z
" transform="scale(0.015625)"/>
      <path id="SimHei-6ee1" d="M 2725 3000 
Q 2325 3000 1850 2975 
L 1850 3425 
Q 2325 3400 2700 3400 
L 5300 3400 
Q 5675 3400 6050 3425 
L 6050 2975 
Q 5675 3000 5300 3000 
L 4750 3000 
L 4750 2375 
L 5950 2375 
Q 5925 2025 5925 1650 
L 5925 -25 
Q 5925 -275 5762 -412 
Q 5600 -550 4975 -650 
Q 4900 -425 4700 -125 
Q 5300 -100 5375 -25 
Q 5450 50 5450 150 
L 5450 1975 
L 4725 1975 
Q 4700 1700 4650 1375 
Q 5150 925 5350 700 
Q 5200 575 5000 375 
Q 4800 675 4525 950 
Q 4250 325 4025 0 
Q 3875 175 3600 300 
Q 3900 625 4062 1012 
Q 4225 1400 4275 1975 
L 3600 1975 
Q 3575 1825 3525 1600 
Q 3900 1325 4050 1150 
Q 3950 975 3825 775 
Q 3625 1000 3425 1200 
Q 3350 1000 3250 762 
Q 3150 525 2975 250 
Q 2800 400 2525 500 
Q 2800 875 2962 1250 
Q 3125 1625 3150 1975 
L 2450 1975 
L 2450 -600 
L 1950 -600 
Q 1975 -125 1975 275 
L 1975 1550 
Q 1975 1925 1950 2375 
L 3175 2375 
L 3175 3000 
L 2725 3000 
z
M 3000 4550 
L 3000 4725 
Q 3000 4950 2975 5200 
L 3475 5200 
Q 3450 4975 3450 4750 
L 3450 4550 
L 4425 4550 
L 4425 4700 
Q 4425 4950 4400 5200 
L 4925 5200 
Q 4900 4975 4900 4700 
L 4900 4550 
L 5200 4550 
Q 5575 4550 6025 4575 
L 6025 4125 
Q 5575 4150 5175 4150 
L 4900 4150 
Q 4900 4000 4925 3625 
L 4425 3625 
L 4425 4150 
L 3450 4150 
L 3450 3625 
L 2975 3625 
Q 3000 3975 3000 4150 
L 2700 4150 
Q 2475 4150 1900 4125 
L 1900 4575 
Q 2475 4550 2700 4550 
L 3000 4550 
z
M 1725 1825 
Q 1600 1625 1487 1400 
Q 1375 1175 1112 637 
Q 850 100 725 -225 
Q 500 0 225 175 
Q 425 375 562 600 
Q 700 825 962 1337 
Q 1225 1850 1325 2125 
Q 1500 1975 1725 1825 
z
M 825 4975 
Q 1000 4850 1250 4675 
Q 1500 4500 1775 4300 
Q 1550 4175 1400 3900 
Q 1200 4100 975 4250 
Q 750 4400 500 4550 
Q 700 4825 825 4975 
z
M 525 3450 
Q 725 3325 975 3175 
Q 1225 3025 1425 2900 
Q 1275 2750 1125 2475 
Q 925 2625 725 2762 
Q 525 2900 225 3050 
Q 425 3275 525 3450 
z
M 3600 3000 
L 3600 2375 
L 4300 2375 
L 4300 3000 
L 3600 3000 
z
" transform="scale(0.015625)"/>
      <path id="SimHei-672b" d="M 5675 -125 
Q 5150 125 4775 450 
Q 4400 775 4112 1087 
Q 3825 1400 3500 2075 
L 3500 350 
Q 3500 -300 3550 -600 
L 2975 -600 
Q 3025 -325 3025 350 
L 3025 2075 
Q 2800 1700 2562 1387 
Q 2325 1075 2025 787 
Q 1725 500 1412 250 
Q 1100 0 700 -225 
Q 650 -50 300 250 
Q 750 450 1087 687 
Q 1425 925 1712 1175 
Q 2000 1425 2200 1700 
Q 2400 1975 2550 2250 
L 1725 2250 
Q 1225 2250 950 2225 
L 950 2700 
Q 1225 2675 1725 2675 
L 3025 2675 
L 3025 3675 
L 1500 3675 
Q 1025 3675 600 3650 
L 600 4125 
Q 1000 4100 1475 4100 
L 3025 4100 
L 3025 4500 
Q 3025 4900 2975 5200 
L 3575 5200 
Q 3475 5000 3500 4525 
L 3500 4100 
L 5075 4100 
Q 5450 4100 5825 4125 
L 5825 3650 
Q 5450 3675 5125 3675 
L 3500 3675 
L 3500 2675 
L 4675 2675 
Q 5125 2675 5450 2700 
L 5450 2200 
Q 5075 2250 4650 2250 
L 3875 2250 
Q 4050 1875 4350 1537 
Q 4650 1200 4937 1000 
Q 5225 800 5525 650 
Q 5825 500 6150 375 
Q 5875 250 5675 -125 
z
" transform="scale(0.015625)"/>
      <path id="SimHei-8f6e" d="M 2200 3350 
Q 2175 3050 2175 2750 
L 2175 2425 
Q 2575 2425 2850 2450 
L 2850 2025 
Q 2550 2050 2175 2050 
L 2175 1150 
L 2975 1250 
Q 2925 1075 2925 850 
Q 2625 825 2175 750 
Q 2175 150 2200 -650 
L 1700 -650 
Q 1725 125 1725 700 
Q 700 550 400 475 
Q 300 775 250 975 
Q 600 1000 1725 1100 
L 1725 2050 
Q 1425 2050 1100 2025 
Q 775 2000 475 1925 
L 300 2425 
Q 450 2550 650 2900 
Q 850 3250 1075 3850 
Q 750 3850 275 3825 
L 275 4275 
Q 750 4250 1200 4250 
Q 1375 4875 1425 5200 
Q 1675 5075 1950 5025 
Q 1825 4750 1650 4250 
L 2075 4250 
Q 2600 4250 2975 4275 
L 2975 3825 
Q 2550 3850 2100 3850 
L 1550 3850 
Q 1175 2900 900 2425 
L 1725 2425 
Q 1700 3050 1700 3350 
L 2200 3350 
z
M 3750 1625 
Q 4750 2075 5200 2550 
Q 5475 2225 5625 2125 
Q 5175 1875 4750 1650 
Q 4325 1425 3750 1175 
L 3750 225 
Q 3750 -75 4050 -100 
L 4925 -100 
Q 5250 -125 5325 137 
Q 5400 400 5400 600 
Q 5800 350 5975 300 
Q 5750 -225 5612 -362 
Q 5475 -500 5175 -500 
L 3850 -500 
Q 3300 -500 3300 0 
L 3300 1900 
Q 3300 2475 3275 2900 
L 3775 2900 
Q 3750 2450 3750 2100 
L 3750 1625 
z
M 4375 4800 
Q 4875 3975 5337 3650 
Q 5800 3325 6200 3125 
Q 5975 2875 5825 2650 
Q 5200 3075 4825 3487 
Q 4450 3900 4200 4350 
Q 3875 3825 3587 3412 
Q 3300 3000 2925 2625 
Q 2725 2800 2450 3000 
Q 2775 3200 3037 3487 
Q 3300 3775 3512 4150 
Q 3725 4525 3950 5275 
Q 4300 5100 4550 5000 
L 4375 4800 
z
" transform="scale(0.015625)"/>
      <path id="SimHei-2248" d="M 5675 1600 
Q 5400 1300 5000 1100 
Q 4600 900 4162 987 
Q 3725 1075 3287 1350 
Q 2850 1625 2450 1800 
Q 2050 1975 1687 1862 
Q 1325 1750 725 1200 
L 725 1675 
Q 1100 2050 1450 2212 
Q 1800 2375 2187 2300 
Q 2575 2225 3162 1887 
Q 3750 1550 4112 1425 
Q 4475 1300 4850 1487 
Q 5225 1675 5675 2075 
L 5675 1600 
z
M 5675 2975 
Q 5400 2675 5000 2475 
Q 4600 2275 4162 2362 
Q 3725 2450 3287 2725 
Q 2850 3000 2450 3175 
Q 2050 3350 1687 3237 
Q 1325 3125 725 2575 
L 725 3050 
Q 1100 3425 1450 3587 
Q 1800 3750 2187 3675 
Q 2575 3600 3162 3262 
Q 3750 2925 4112 2800 
Q 4475 2675 4850 2862 
Q 5225 3050 5675 3450 
L 5675 2975 
z
" transform="scale(0.015625)"/>
     </defs>
     <use xlink:href="#SimHei-6574"/>
     <use xlink:href="#SimHei-4e2a" transform="translate(100 0)"/>
     <use xlink:href="#SimHei-8bad" transform="translate(200 0)"/>
     <use xlink:href="#SimHei-7ec3" transform="translate(300 0)"/>
     <use xlink:href="#SimHei-20" transform="translate(400 0)"/>
     <use xlink:href="#SimHei-30" transform="translate(450 0)"/>
     <use xlink:href="#SimHei-2192" transform="translate(500 0)"/>
     <use xlink:href="#SimHei-7e" transform="translate(600 0)"/>
     <use xlink:href="#SimHei-31" transform="translate(650 0)"/>
     <use xlink:href="#SimHei-20" transform="translate(700 0)"/>
     <use xlink:href="#SimHei-722c" transform="translate(750 0)"/>
     <use xlink:href="#SimHei-6ee1" transform="translate(850 0)"/>
     <use xlink:href="#SimHei-ff0c" transform="translate(950 0)"/>
     <use xlink:href="#SimHei-672b" transform="translate(1050 0)"/>
     <use xlink:href="#SimHei-8f6e" transform="translate(1150 0)"/>
     <use xlink:href="#SimHei-2248" transform="translate(1250 0)"/>
     <use xlink:href="#SimHei-30" transform="translate(1350 0)"/>
     <use xlink:href="#SimHei-2e" transform="translate(1400 0)"/>
     <use xlink:href="#SimHei-39" transform="translate(1450 0)"/>
     <use xlink:href="#SimHei-39" transform="translate(1500 0)"/>
    </g>
    <!-- （旧稿误作"只到0.18"） -->
    <g style="fill: #b9821f" transform="translate(120.250311 131.573625) scale(0.088 -0.088)">
     <defs>
      <path id="SimHei-65e7" d="M 5750 4675 
Q 5725 4200 5725 2150 
Q 5725 125 5750 -425 
L 5175 -425 
L 5175 225 
L 2900 225 
L 2900 -425 
L 2300 -425 
Q 2325 75 2325 2125 
Q 2325 4200 2300 4675 
L 5750 4675 
z
M 5175 2625 
L 5175 4225 
L 2900 4225 
L 2900 2625 
L 5175 2625 
z
M 5175 650 
L 5175 2200 
L 2900 2200 
L 2900 650 
L 5175 650 
z
M 1325 4800 
Q 1300 4475 1300 3975 
L 1300 300 
Q 1300 -25 1325 -450 
L 725 -450 
Q 750 -25 750 300 
L 750 3975 
Q 750 4550 725 4800 
L 1325 4800 
z
" transform="scale(0.015625)"/>
      <path id="SimHei-7a3f" d="M 1225 -575 
Q 1250 -300 1250 475 
L 1250 1875 
Q 1175 1575 1012 1237 
Q 850 900 675 625 
Q 500 850 225 975 
Q 550 1325 812 1937 
Q 1075 2550 1150 3025 
Q 925 3025 350 3000 
L 350 3450 
Q 925 3425 1250 3425 
L 1250 4475 
L 575 4325 
Q 500 4500 400 4700 
Q 850 4775 1237 4862 
Q 1625 4950 2000 5125 
Q 2150 4900 2375 4700 
Q 2150 4675 1975 4637 
Q 1800 4600 1700 4575 
L 1700 3425 
Q 2100 3425 2350 3450 
L 2350 3000 
Q 2125 3025 1700 3025 
L 1700 2250 
Q 1800 2325 2000 2500 
Q 2350 1975 2475 1725 
Q 2275 1575 2100 1400 
Q 1975 1750 1700 2150 
L 1700 475 
Q 1700 -175 1725 -575 
L 1225 -575 
z
M 6025 2125 
Q 6000 1875 6000 1375 
L 6000 125 
Q 6000 -325 5850 -437 
Q 5700 -550 5175 -675 
Q 5100 -350 4950 -75 
Q 5325 -125 5450 -75 
Q 5575 -25 5575 275 
L 5575 1750 
L 2975 1750 
L 2975 -625 
L 2525 -625 
Q 2550 -350 2550 775 
Q 2550 1900 2525 2125 
L 6025 2125 
z
M 5600 3725 
Q 5575 3425 5575 3125 
Q 5575 2850 5600 2500 
L 2900 2500 
Q 2925 2850 2925 3125 
Q 2925 3400 2900 3725 
L 5600 3725 
z
M 5025 1375 
Q 5000 1100 5000 775 
Q 5000 450 5025 175 
L 3425 175 
Q 3450 475 3450 775 
Q 3450 1100 3425 1375 
L 5025 1375 
z
M 4425 5275 
Q 4550 4900 4625 4575 
L 5275 4575 
Q 5650 4575 6050 4600 
L 6050 4125 
Q 5650 4200 5275 4175 
L 3175 4175 
Q 2775 4200 2450 4175 
L 2450 4600 
Q 2750 4575 3150 4575 
L 4100 4575 
Q 4050 4725 3900 5150 
Q 4200 5200 4425 5275 
z
M 5150 2875 
L 5150 3350 
L 3350 3350 
L 3350 2875 
L 5150 2875 
z
M 4575 525 
L 4575 1025 
L 3875 1025 
L 3875 525 
L 4575 525 
z
" transform="scale(0.015625)"/>
      <path id="SimHei-8bef" d="M 4625 2750 
Q 5325 2750 5800 2775 
L 5800 2350 
Q 5300 2375 4625 2375 
L 4150 2375 
Q 4150 2125 4100 1650 
L 5025 1650 
Q 5575 1650 6100 1675 
L 6100 1225 
Q 5575 1250 5025 1250 
L 4250 1250 
Q 4575 600 5050 287 
Q 5525 -25 6125 -125 
Q 5900 -350 5775 -625 
Q 4875 -275 4450 175 
Q 4025 625 3900 1000 
Q 3600 325 3125 -62 
Q 2650 -450 2025 -675 
Q 1975 -450 1725 -200 
Q 2475 -75 2937 437 
Q 3400 950 3475 1250 
L 2975 1250 
Q 2400 1250 2025 1225 
L 2025 1675 
Q 2475 1650 2900 1650 
L 3600 1650 
Q 3650 2025 3650 2375 
L 3325 2375 
Q 2675 2375 2225 2350 
L 2225 2775 
Q 2700 2750 3150 2750 
L 4625 2750 
z
M 5425 4875 
Q 5400 4550 5400 4075 
Q 5400 3600 5425 3325 
L 2450 3325 
Q 2475 3575 2475 4050 
Q 2475 4525 2450 4875 
L 5425 4875 
z
M 1550 3325 
Q 1525 3000 1525 2500 
L 1525 675 
L 1900 1100 
Q 2025 875 2225 700 
Q 1675 300 1250 -325 
Q 1100 -100 825 50 
Q 1025 250 1050 500 
L 1050 2900 
Q 700 2900 325 2875 
L 325 3350 
Q 550 3325 750 3325 
L 1550 3325 
z
M 4975 3700 
L 4975 4475 
L 2900 4475 
L 2900 3700 
L 4975 3700 
z
M 975 5125 
Q 1150 5000 1900 4275 
Q 1725 4125 1550 3925 
Q 1150 4400 675 4775 
Q 875 4975 975 5125 
z
" transform="scale(0.015625)"/>
      <path id="SimHei-4f5c" d="M 4075 5050 
Q 3825 4850 3525 4100 
L 5175 4100 
Q 5725 4100 6050 4125 
L 6050 3675 
Q 5725 3700 5175 3700 
L 4025 3700 
L 4025 2725 
L 5050 2725 
Q 5475 2725 5750 2750 
L 5750 2275 
Q 5425 2300 5050 2300 
L 4025 2300 
L 4025 1175 
L 5100 1175 
Q 5600 1175 5925 1200 
L 5925 725 
Q 5600 750 5125 750 
L 4025 750 
L 4025 275 
Q 4025 -425 4050 -675 
L 3525 -675 
Q 3550 -400 3550 75 
L 3550 3700 
L 3300 3700 
Q 2925 3050 2575 2575 
Q 2300 2825 2100 2900 
Q 2450 3250 2825 3900 
Q 3200 4550 3425 5300 
Q 3800 5125 4075 5050 
z
M 2325 4950 
Q 2100 4775 1750 3875 
L 1750 675 
Q 1750 -125 1775 -600 
L 1200 -600 
Q 1225 -150 1225 650 
L 1225 3000 
Q 875 2425 550 2025 
Q 350 2325 200 2450 
Q 525 2800 987 3612 
Q 1450 4425 1675 5275 
Q 1950 5100 2325 4950 
z
" transform="scale(0.015625)"/>
      <path id="SimHei-22" d="M 1400 4525 
Q 1325 4200 1300 3875 
L 1250 3225 
L 875 3225 
L 850 4025 
Q 825 4275 800 4525 
L 1400 4525 
z
M 2400 4525 
Q 2325 4200 2300 3875 
L 2250 3225 
L 1875 3225 
L 1850 4025 
Q 1825 4275 1800 4525 
L 2400 4525 
z
" transform="scale(0.015625)"/>
      <path id="SimHei-53ea" d="M 5150 4800 
Q 5125 4375 5125 3400 
Q 5125 2450 5150 1875 
L 1225 1875 
Q 1250 2325 1250 3300 
Q 1250 4275 1225 4800 
L 5150 4800 
z
M 4600 2325 
L 4600 4375 
L 1775 4375 
L 1775 2325 
L 4600 2325 
z
M 4175 1575 
Q 5400 300 5925 -200 
Q 5850 -250 5425 -600 
Q 4975 0 3750 1225 
Q 3975 1375 4175 1575 
z
M 2575 1200 
Q 2250 850 1775 337 
Q 1300 -175 800 -675 
Q 625 -500 375 -275 
Q 825 50 1300 562 
Q 1775 1075 2125 1600 
Q 2425 1375 2575 1200 
z
" transform="scale(0.015625)"/>
      <path id="SimHei-5230" d="M 3675 150 
Q 2275 -50 1537 -175 
Q 800 -300 500 -400 
Q 425 -75 325 225 
Q 775 250 1062 275 
Q 1350 300 1750 350 
L 1750 1325 
L 1400 1325 
Q 900 1325 550 1275 
L 550 1750 
Q 975 1725 1325 1725 
L 1750 1725 
L 1750 2550 
Q 1250 2525 1037 2500 
Q 825 2475 575 2425 
Q 525 2750 425 3000 
Q 825 3100 1137 3500 
Q 1450 3900 1625 4400 
L 1250 4400 
Q 825 4400 450 4375 
L 450 4850 
Q 850 4825 1225 4825 
L 2825 4825 
Q 3275 4825 3625 4850 
L 3625 4375 
Q 3250 4400 2825 4400 
L 1800 4400 
L 2250 4100 
Q 2000 3900 1775 3600 
Q 1550 3300 1250 2950 
Q 2150 3000 2925 3050 
Q 2725 3375 2475 3700 
Q 2725 3825 2925 3975 
Q 3175 3625 3400 3300 
Q 3625 2975 3825 2700 
Q 3600 2525 3325 2375 
Q 3225 2550 3150 2675 
Q 2625 2600 2275 2575 
L 2275 1725 
L 2750 1725 
Q 3175 1725 3475 1750 
L 3475 1275 
Q 3150 1325 2775 1325 
L 2275 1325 
L 2275 400 
Q 2975 500 3750 625 
Q 3700 375 3675 150 
z
M 5875 5175 
Q 5825 4800 5825 4325 
L 5825 225 
Q 5825 -350 5612 -450 
Q 5400 -550 4700 -675 
Q 4625 -350 4475 -75 
Q 5000 -75 5162 -37 
Q 5325 0 5325 375 
L 5325 4325 
Q 5325 4875 5300 5175 
L 5875 5175 
z
M 4600 4375 
Q 4550 4050 4550 3475 
L 4550 1600 
Q 4550 1075 4575 725 
L 4050 725 
Q 4075 1075 4075 1600 
L 4075 3575 
Q 4075 4075 4050 4375 
L 4600 4375 
z
" transform="scale(0.015625)"/>
     </defs>
     <use xlink:href="#SimHei-ff08"/>
     <use xlink:href="#SimHei-65e7" transform="translate(100 0)"/>
     <use xlink:href="#SimHei-7a3f" transform="translate(200 0)"/>
     <use xlink:href="#SimHei-8bef" transform="translate(300 0)"/>
     <use xlink:href="#SimHei-4f5c" transform="translate(400 0)"/>
     <use xlink:href="#SimHei-22" transform="translate(500 0)"/>
     <use xlink:href="#SimHei-53ea" transform="translate(550 0)"/>
     <use xlink:href="#SimHei-5230" transform="translate(650 0)"/>
     <use xlink:href="#SimHei-30" transform="translate(750 0)"/>
     <use xlink:href="#SimHei-2e" transform="translate(800 0)"/>
     <use xlink:href="#SimHei-31" transform="translate(850 0)"/>
     <use xlink:href="#SimHei-38" transform="translate(900 0)"/>
     <use xlink:href="#SimHei-22" transform="translate(950 0)"/>
     <use xlink:href="#SimHei-ff09" transform="translate(1000 0)"/>
    </g>
   </g>
  </g>
 </g>
 <defs>
  <clipPath id="p12ed0908f4">
   <rect x="44.093125" y="29.405625" width="491.04" height="249.48"/>
  </clipPath>
 </defs>
</svg>
