<?xml version="1.0" encoding="utf-8" standalone="no"?>
<!DOCTYPE svg PUBLIC "-//W3C//DTD SVG 1.1//EN"
  "http://www.w3.org/Graphics/SVG/1.1/DTD/svg11.dtd">
<svg xmlns:xlink="http://www.w3.org/1999/xlink" width="823.520625pt" height="344.280563pt" viewBox="0 0 823.520625 344.280563" xmlns="http://www.w3.org/2000/svg" version="1.1">
 <metadata>
  <rdf:RDF xmlns:dc="http://purl.org/dc/elements/1.1/" xmlns:cc="http://creativecommons.org/ns#" xmlns:rdf="http://www.w3.org/1999/02/22-rdf-syntax-ns#">
   <cc:Work>
    <dc:type rdf:resource="http://purl.org/dc/dcmitype/StillImage"/>
    <dc:date>2026-07-09T17:13:06.877550</dc:date>
    <dc:format>image/svg+xml</dc:format>
    <dc:creator>
     <cc:Agent>
      <dc:title>Matplotlib v3.10.9, https://matplotlib.org/</dc:title>
     </cc:Agent>
    </dc:creator>
   </cc:Work>
  </rdf:RDF>
 </metadata>
 <defs>
  <style type="text/css">*{stroke-linejoin: round; stroke-linecap: butt}</style>
 </defs>
 <g id="figure_1">
  <g id="patch_1">
   <path d="M 0 344.280563 
L 823.520625 344.280563 
L 823.520625 0 
L 0 0 
z
" style="fill: #ffffff"/>
  </g>
  <g id="axes_1">
   <g id="patch_2">
    <path d="M 43.780625 319.38275 
L 486.796625 319.38275 
L 486.796625 68.4665 
L 43.780625 68.4665 
z
" style="fill: #ffffff"/>
   </g>
   <g id="matplotlib.axis_1">
    <g id="xtick_1">
     <g id="line2d_1">
      <path d="M 121.452261 319.38275 
L 121.452261 68.4665 
" clip-path="url(#p5dcb748b3f)" style="fill: none; stroke: #eef1f6; stroke-linecap: square"/>
     </g>
     <g id="line2d_2">
      <defs>
       <path id="m1b56fc1eb3" d="M 0 0 
L 0 3.5 
" style="stroke: #5b6577; stroke-width: 0.8"/>
      </defs>
      <g>
       <use xlink:href="#m1b56fc1eb3" x="121.452261" y="319.38275" style="fill: #5b6577; stroke: #5b6577; stroke-width: 0.8"/>
      </g>
     </g>
     <g id="text_1">
      <!-- 批次校正 -->
      <g style="fill: #5b6577" transform="translate(101.452261 334.3515) scale(0.1 -0.1)">
       <defs>
        <path id="SimHei-6279" d="M 625 -75 
Q 1025 -50 1137 -12 
Q 1250 25 1250 175 
L 1250 1575 
Q 775 1375 525 1200 
Q 475 1425 250 1700 
Q 600 1775 1250 2050 
L 1250 3325 
Q 725 3325 400 3300 
L 400 3775 
Q 725 3750 1250 3750 
Q 1250 4550 1225 5125 
L 1775 5125 
Q 1725 4850 1725 3750 
Q 1975 3750 2350 3775 
L 2350 3300 
Q 2000 3325 1725 3325 
L 1725 2200 
Q 1825 2250 2300 2450 
Q 2300 2250 2325 2025 
Q 1950 1850 1725 1750 
L 1725 -25 
Q 1725 -300 1512 -412 
Q 1300 -525 825 -650 
Q 750 -250 625 -75 
z
M 6175 3250 
Q 5800 3000 4875 2275 
L 4875 175 
Q 4875 -75 5075 -75 
L 5475 -75 
Q 5550 -25 5600 87 
Q 5650 200 5650 600 
Q 5875 475 6175 425 
Q 6050 -175 5925 -287 
Q 5800 -400 5600 -425 
L 4900 -425 
Q 4425 -425 4400 0 
L 4400 4525 
Q 4400 4850 4375 5150 
L 4900 5150 
Q 4875 4875 4875 4600 
L 4875 2775 
Q 5275 3075 5725 3625 
Q 5950 3400 6175 3250 
z
M 2575 -75 
Q 2750 75 2750 300 
L 2750 4425 
Q 2750 4700 2725 4950 
L 3250 4950 
Q 3200 4675 3200 4425 
L 3200 3000 
Q 3775 3000 4050 3025 
L 4050 2550 
Q 3750 2575 3200 2575 
L 3200 225 
Q 3425 325 3925 700 
Q 3950 475 4050 250 
Q 3825 125 3437 -87 
Q 3050 -300 2825 -525 
L 2575 -75 
z
" transform="scale(0.015625)"/>
        <path id="SimHei-6b21" d="M 4150 3025 
Q 4000 2550 4050 2187 
Q 4100 1825 4275 1450 
Q 4450 1075 4800 750 
Q 5150 425 5475 212 
Q 5800 0 6150 -150 
Q 5875 -350 5750 -625 
Q 5250 -325 4887 -25 
Q 4525 275 4275 612 
Q 4025 950 3825 1425 
Q 3525 625 2950 125 
Q 2375 -375 1850 -650 
Q 1675 -400 1475 -225 
Q 2025 0 2487 362 
Q 2950 725 3162 1100 
Q 3375 1475 3450 1825 
Q 3525 2175 3537 2400 
Q 3550 2625 3525 3125 
Q 3825 3050 4150 3025 
z
M 3700 4975 
Q 3625 4900 3475 4575 
Q 3325 4250 3250 4075 
L 5775 4075 
Q 5650 3725 5550 3362 
Q 5450 3000 5275 2500 
Q 5000 2575 4775 2600 
Q 5025 3350 5100 3650 
L 3100 3650 
Q 2975 3400 2812 3100 
Q 2650 2800 2425 2450 
Q 2275 2600 1975 2700 
Q 2300 3050 2625 3762 
Q 2950 4475 3125 5200 
Q 3450 5025 3700 4975 
z
M 2025 2000 
Q 1825 1675 1475 1087 
Q 1125 500 725 -200 
Q 500 -25 250 175 
Q 725 725 1037 1262 
Q 1350 1800 1575 2325 
Q 1750 2175 2025 2000 
z
M 900 4750 
Q 1725 3725 1950 3375 
Q 1750 3250 1500 3050 
Q 1250 3525 500 4425 
Q 700 4575 900 4750 
z
" transform="scale(0.015625)"/>
        <path id="SimHei-6821" d="M 1250 3825 
Q 1250 4800 1225 5125 
L 1750 5125 
Q 1725 4800 1725 3825 
Q 2025 3825 2375 3850 
L 2375 3400 
Q 2050 3425 1725 3425 
L 1725 2475 
Q 1900 2600 2100 2700 
Q 2375 2225 2600 1875 
Q 2350 1750 2125 1600 
Q 1975 2000 1725 2425 
L 1725 475 
Q 1725 -25 1750 -550 
L 1225 -550 
Q 1250 -25 1250 475 
L 1250 2325 
Q 1025 1575 625 800 
Q 425 1100 200 1275 
Q 850 2125 1150 3425 
Q 775 3425 350 3400 
L 350 3850 
Q 775 3825 1250 3825 
z
M 3550 2225 
Q 3875 1375 4200 1000 
Q 4575 1425 4850 2300 
Q 5075 2150 5400 2100 
Q 5225 1800 5062 1450 
Q 4900 1100 4525 650 
Q 4750 400 5175 200 
Q 5600 0 6200 -100 
Q 5875 -350 5800 -600 
Q 5275 -425 4862 -200 
Q 4450 25 4200 300 
Q 3875 25 3525 -175 
Q 3175 -375 2475 -650 
Q 2325 -375 2100 -200 
Q 2850 0 3212 200 
Q 3575 400 3875 650 
Q 3400 1225 3125 2025 
Q 3350 2075 3550 2225 
z
M 5150 4275 
Q 5650 4275 6100 4300 
L 6100 3850 
Q 5700 3875 5150 3875 
L 3375 3875 
Q 2875 3875 2500 3850 
L 2500 4300 
Q 2875 4275 3375 4275 
L 5150 4275 
z
M 4025 3250 
Q 3850 3125 3525 2762 
Q 3200 2400 3000 2175 
Q 2800 2350 2550 2475 
Q 3200 3050 3500 3575 
L 4025 3250 
z
M 5025 3525 
Q 5775 2925 6100 2650 
Q 5850 2450 5650 2250 
Q 5400 2600 4675 3200 
Q 4900 3350 5025 3525 
z
M 4225 5250 
Q 4425 4975 4625 4550 
Q 4400 4475 4125 4325 
Q 4050 4650 3800 5050 
L 4225 5250 
z
" transform="scale(0.015625)"/>
        <path id="SimHei-6b63" d="M 4825 4625 
Q 5300 4625 5675 4650 
L 5675 4150 
Q 5300 4175 4775 4175 
L 3575 4175 
L 3575 2600 
L 4850 2600 
Q 5250 2600 5550 2625 
L 5550 2150 
Q 5250 2175 4850 2175 
L 3575 2175 
L 3575 150 
L 4850 150 
Q 5375 150 5900 175 
L 5900 -325 
Q 5375 -300 4975 -300 
L 1175 -300 
Q 700 -300 375 -325 
L 375 175 
Q 700 150 1175 150 
L 1325 150 
L 1325 2350 
Q 1325 2800 1300 3125 
L 1875 3125 
Q 1850 2825 1850 2350 
L 1850 150 
L 3075 150 
L 3075 4175 
L 1625 4175 
Q 1150 4175 800 4150 
L 800 4650 
Q 1150 4625 1625 4625 
L 4825 4625 
z
" transform="scale(0.015625)"/>
       </defs>
       <use xlink:href="#SimHei-6279"/>
       <use xlink:href="#SimHei-6b21" transform="translate(100 0)"/>
       <use xlink:href="#SimHei-6821" transform="translate(200 0)"/>
       <use xlink:href="#SimHei-6b63" transform="translate(300 0)"/>
      </g>
     </g>
    </g>
    <g id="xtick_2">
     <g id="line2d_3">
      <path d="M 265.288625 319.38275 
L 265.288625 68.4665 
" clip-path="url(#p5dcb748b3f)" style="fill: none; stroke: #eef1f6; stroke-linecap: square"/>
     </g>
     <g id="line2d_4">
      <g>
       <use xlink:href="#m1b56fc1eb3" x="265.288625" y="319.38275" style="fill: #5b6577; stroke: #5b6577; stroke-width: 0.8"/>
      </g>
     </g>
     <g id="text_2">
      <!-- 生物保留 -->
      <g style="fill: #5b6577" transform="translate(245.288625 334.390563) scale(0.1 -0.1)">
       <defs>
        <path id="SimHei-751f" d="M 1875 4650 
Q 1725 4475 1625 4212 
Q 1525 3950 1425 3700 
L 2925 3700 
L 2925 4575 
Q 2925 4900 2900 5200 
L 3475 5200 
Q 3450 4925 3450 4575 
L 3450 3700 
L 4550 3700 
Q 4950 3700 5450 3725 
L 5450 3225 
Q 4975 3250 4550 3250 
L 3450 3250 
L 3450 2125 
L 4225 2125 
Q 4575 2125 5075 2150 
L 5075 1650 
Q 4600 1675 4225 1675 
L 3450 1675 
L 3450 175 
L 4950 175 
Q 5350 175 5875 200 
L 5875 -275 
Q 5375 -250 4950 -250 
L 1350 -250 
Q 925 -250 475 -275 
L 475 200 
Q 950 175 1350 175 
L 2925 175 
L 2925 1675 
L 2000 1675 
Q 1650 1675 1275 1650 
L 1275 2150 
Q 1650 2125 2000 2125 
L 2925 2125 
L 2925 3250 
L 1250 3250 
Q 1025 2725 800 2350 
Q 525 2475 200 2525 
Q 475 2825 787 3487 
Q 1100 4150 1225 4900 
L 1875 4650 
z
" transform="scale(0.015625)"/>
        <path id="SimHei-7269" d="M 5550 3775 
L 5225 3775 
Q 5175 2925 5062 2312 
Q 4950 1700 4700 1225 
Q 4450 750 4087 337 
Q 3725 -75 3100 -475 
Q 2950 -250 2650 -75 
Q 3275 175 3662 575 
Q 4050 975 4275 1462 
Q 4500 1950 4600 2537 
Q 4700 3125 4750 3775 
L 4325 3775 
Q 4250 3025 3912 2275 
Q 3575 1525 3075 1025 
Q 2925 1250 2600 1350 
Q 3175 1825 3462 2400 
Q 3750 2975 3875 3775 
L 3500 3775 
Q 3175 3125 2950 2800 
Q 2750 2975 2500 3050 
Q 3025 3750 3275 4375 
Q 3525 5000 3575 5275 
Q 3925 5125 4200 5050 
Q 4075 4950 3962 4725 
Q 3850 4500 3725 4200 
L 6075 4200 
Q 5975 3100 5937 1850 
Q 5900 600 5862 225 
Q 5825 -150 5500 -287 
Q 5175 -425 4550 -500 
Q 4525 -225 4300 75 
Q 5025 25 5187 100 
Q 5350 175 5375 525 
L 5550 3775 
z
M 1250 4325 
Q 1100 4125 1025 3700 
L 1600 3700 
L 1600 4525 
Q 1600 4900 1550 5200 
L 2100 5200 
Q 2075 4900 2075 4525 
L 2075 3700 
Q 2325 3700 2650 3725 
L 2650 3275 
Q 2300 3300 2075 3300 
L 2075 2000 
Q 2500 2100 2775 2225 
Q 2775 2000 2800 1775 
Q 2475 1675 2075 1550 
L 2075 375 
Q 2075 -50 2100 -600 
L 1550 -600 
Q 1600 -100 1600 375 
L 1600 1425 
Q 1325 1350 1062 1262 
Q 800 1175 500 1025 
Q 425 1250 250 1575 
Q 700 1625 1600 1850 
L 1600 3300 
L 950 3300 
Q 850 2825 725 2375 
Q 475 2500 225 2500 
Q 450 3025 537 3512 
Q 625 4000 650 4425 
Q 925 4350 1250 4325 
z
" transform="scale(0.015625)"/>
        <path id="SimHei-4fdd" d="M 5425 4925 
Q 5400 4550 5400 3950 
Q 5400 3375 5425 3050 
L 4225 3050 
L 4225 2250 
L 4975 2250 
Q 5650 2250 6025 2275 
L 6025 1800 
Q 5600 1825 5025 1825 
L 4600 1825 
Q 4825 1325 5225 937 
Q 5625 550 6175 350 
Q 5975 175 5800 -125 
Q 5200 200 4812 700 
Q 4425 1200 4225 1700 
L 4225 325 
Q 4225 -250 4250 -575 
L 3725 -575 
Q 3750 -225 3750 275 
L 3750 1800 
Q 3150 600 2225 -175 
Q 2075 50 1775 175 
Q 2650 650 3225 1825 
L 2875 1825 
Q 2350 1825 2000 1800 
L 2000 2275 
Q 2350 2250 2825 2250 
L 3750 2250 
L 3750 3050 
L 2600 3050 
Q 2625 3400 2625 4000 
Q 2625 4625 2600 4925 
L 5425 4925 
z
M 2125 4975 
Q 2000 4800 1850 4475 
Q 1700 4150 1600 3875 
L 1600 650 
Q 1600 -150 1625 -575 
L 1125 -575 
Q 1150 -175 1150 625 
L 1150 3000 
Q 800 2400 525 2050 
Q 400 2275 200 2425 
Q 725 3050 1087 3837 
Q 1450 4625 1575 5225 
Q 1775 5075 2125 4975 
z
M 4950 3450 
L 4950 4525 
L 3075 4525 
L 3075 3450 
L 4950 3450 
z
" transform="scale(0.015625)"/>
        <path id="SimHei-7559" d="M 5575 2300 
Q 5550 1900 5550 1275 
L 5550 375 
Q 5550 -50 5575 -650 
L 5050 -650 
L 5050 -150 
L 1500 -150 
L 1500 -650 
L 975 -650 
Q 1000 100 1000 450 
L 1000 1275 
Q 1000 1925 975 2300 
L 5575 2300 
z
M 3350 2475 
Q 3250 2650 2900 2850 
Q 3325 3050 3625 3400 
Q 3925 3750 4025 4450 
Q 3675 4450 3225 4400 
L 3225 4875 
Q 3675 4850 4050 4850 
L 5950 4850 
Q 5875 4425 5825 3912 
Q 5775 3400 5725 3125 
Q 5675 2850 5462 2775 
Q 5250 2700 4775 2600 
Q 4675 2950 4525 3200 
Q 4900 3200 5075 3225 
Q 5250 3250 5287 3400 
Q 5325 3550 5375 4450 
L 4525 4450 
Q 4425 3675 4112 3250 
Q 3800 2825 3350 2475 
z
M 2200 3575 
Q 2050 3800 1875 3975 
Q 2125 4100 2275 4250 
Q 2650 3750 3000 3250 
Q 2800 3100 2575 2950 
Q 2500 3100 2400 3250 
Q 2000 3075 1587 2862 
Q 1175 2650 800 2425 
Q 675 2650 500 2850 
Q 675 3000 675 3425 
L 675 4125 
Q 675 4550 650 4850 
Q 1075 4850 1575 4925 
Q 2075 5000 2550 5225 
Q 2650 4975 2950 4700 
Q 2775 4700 2287 4600 
Q 1800 4500 1175 4450 
L 1175 3125 
Q 1600 3300 2200 3575 
z
M 3075 250 
L 3075 875 
L 1500 875 
L 1500 250 
L 3075 250 
z
M 3075 1275 
L 3075 1900 
L 1500 1900 
L 1500 1275 
L 3075 1275 
z
M 5050 1275 
L 5050 1900 
L 3550 1900 
L 3550 1275 
L 5050 1275 
z
M 5050 250 
L 5050 875 
L 3550 875 
L 3550 250 
L 5050 250 
z
" transform="scale(0.015625)"/>
       </defs>
       <use xlink:href="#SimHei-751f"/>
       <use xlink:href="#SimHei-7269" transform="translate(100 0)"/>
       <use xlink:href="#SimHei-4fdd" transform="translate(200 0)"/>
       <use xlink:href="#SimHei-7559" transform="translate(300 0)"/>
      </g>
     </g>
    </g>
    <g id="xtick_3">
     <g id="line2d_5">
      <path d="M 409.124989 319.38275 
L 409.124989 68.4665 
" clip-path="url(#p5dcb748b3f)" style="fill: none; stroke: #eef1f6; stroke-linecap: square"/>
     </g>
     <g id="line2d_6">
      <g>
       <use xlink:href="#m1b56fc1eb3" x="409.124989" y="319.38275" style="fill: #5b6577; stroke: #5b6577; stroke-width: 0.8"/>
      </g>
     </g>
     <g id="text_3">
      <!-- 总分 -->
      <g style="fill: #5b6577" transform="translate(399.124989 334.234313) scale(0.1 -0.1)">
       <defs>
        <path id="SimHei-603b" d="M 4550 4850 
Q 4375 4650 4025 3900 
L 5100 3900 
Q 5075 3425 5075 2950 
Q 5075 2500 5100 2025 
L 1175 2025 
Q 1200 2550 1200 3000 
Q 1200 3475 1175 3900 
L 2175 3900 
Q 1900 4350 1525 4750 
Q 1700 4850 1875 5050 
Q 2350 4550 2575 4200 
Q 2400 4075 2250 3900 
L 3550 3900 
Q 3875 4700 3950 5100 
Q 4300 4925 4550 4850 
z
M 4600 2450 
L 4600 3525 
L 1650 3525 
L 1650 2450 
L 4600 2450 
z
M 2275 1450 
Q 2250 1050 2250 675 
Q 2250 300 2262 112 
Q 2275 -75 2675 -75 
L 4000 -75 
Q 4325 -75 4400 550 
Q 4650 400 4925 325 
Q 4775 -200 4562 -337 
Q 4350 -475 4000 -450 
L 2325 -450 
Q 1850 -450 1825 -175 
Q 1800 100 1800 525 
Q 1800 975 1775 1450 
L 2275 1450 
z
M 1350 1325 
Q 1050 300 825 -250 
Q 625 -150 375 -50 
Q 675 525 900 1500 
Q 1100 1425 1350 1325 
z
M 4950 1575 
Q 5700 825 6000 450 
Q 5825 275 5625 100 
Q 5375 450 4600 1275 
Q 4750 1375 4950 1575 
z
M 3350 575 
Q 2975 1175 2675 1500 
Q 2825 1650 3000 1800 
Q 3225 1575 3750 875 
Q 3525 775 3350 575 
z
" transform="scale(0.015625)"/>
        <path id="SimHei-5206" d="M 1000 -650 
Q 825 -375 575 -225 
Q 975 -75 1300 137 
Q 1625 350 1875 662 
Q 2125 975 2250 1350 
Q 2375 1725 2425 2275 
Q 1850 2275 1500 2250 
L 1500 2775 
Q 1900 2750 2525 2750 
L 5025 2750 
Q 4975 2375 4950 2100 
L 4750 250 
Q 4700 -200 4350 -350 
Q 4000 -500 3575 -525 
Q 3550 -275 3325 50 
Q 3850 25 4037 87 
Q 4225 150 4275 525 
L 4450 2275 
L 2950 2275 
Q 2875 1625 2737 1187 
Q 2600 750 2350 425 
Q 2100 100 1750 -175 
Q 1400 -450 1000 -650 
z
M 3950 5175 
Q 4125 4650 4662 3975 
Q 5200 3300 6175 2800 
Q 5975 2625 5775 2275 
Q 5325 2600 4987 2887 
Q 4650 3175 4425 3425 
Q 4200 3675 3925 4137 
Q 3650 4600 3475 5000 
Q 3750 5075 3950 5175 
z
M 2700 4825 
Q 2475 4425 2325 4125 
Q 2175 3825 2025 3587 
Q 1875 3350 1575 2950 
Q 1275 2550 850 2125 
Q 625 2350 400 2475 
Q 900 2925 1187 3300 
Q 1475 3675 1737 4112 
Q 2000 4550 2200 5075 
Q 2400 4925 2700 4825 
z
" transform="scale(0.015625)"/>
       </defs>
       <use xlink:href="#SimHei-603b"/>
       <use xlink:href="#SimHei-5206" transform="translate(100 0)"/>
      </g>
     </g>
    </g>
   </g>
   <g id="matplotlib.axis_2">
    <g id="ytick_1">
     <g id="line2d_7">
      <path d="M 43.780625 319.38275 
L 486.796625 319.38275 
" clip-path="url(#p5dcb748b3f)" style="fill: none; stroke: #eef1f6; stroke-linecap: square"/>
     </g>
     <g id="line2d_8">
      <defs>
       <path id="mfa987e5edd" d="M 0 0 
L -3.5 0 
" style="stroke: #5b6577; stroke-width: 0.8"/>
      </defs>
      <g>
       <use xlink:href="#mfa987e5edd" x="43.780625" y="319.38275" style="fill: #5b6577; stroke: #5b6577; stroke-width: 0.8"/>
      </g>
     </g>
     <g id="text_4">
      <!-- 0.0 -->
      <g style="fill: #5b6577" transform="translate(21.780625 322.82025) scale(0.1 -0.1)">
       <defs>
        <path id="SimHei-30" d="M 225 2537 
Q 250 3200 412 3587 
Q 575 3975 875 4225 
Q 1175 4475 1612 4475 
Q 2050 4475 2375 4112 
Q 2700 3750 2800 3200 
Q 2900 2650 2862 1937 
Q 2825 1225 2612 775 
Q 2400 325 1975 150 
Q 1550 -25 1125 187 
Q 700 400 525 750 
Q 350 1100 275 1487 
Q 200 1875 225 2537 
z
M 750 2687 
Q 675 2000 800 1462 
Q 925 925 1212 700 
Q 1500 475 1800 612 
Q 2100 750 2237 1162 
Q 2375 1575 2375 2062 
Q 2375 2550 2337 2950 
Q 2300 3350 2112 3675 
Q 1925 4000 1612 4012 
Q 1300 4025 1062 3700 
Q 825 3375 750 2687 
z
" transform="scale(0.015625)"/>
        <path id="SimHei-2e" d="M 1075 125 
L 500 125 
L 500 675 
L 1075 675 
L 1075 125 
z
" transform="scale(0.015625)"/>
       </defs>
       <use xlink:href="#SimHei-30"/>
       <use xlink:href="#SimHei-2e" transform="translate(50 0)"/>
       <use xlink:href="#SimHei-30" transform="translate(100 0)"/>
      </g>
     </g>
    </g>
    <g id="ytick_2">
     <g id="line2d_9">
      <path d="M 43.780625 283.537571 
L 486.796625 283.537571 
" clip-path="url(#p5dcb748b3f)" style="fill: none; stroke: #eef1f6; stroke-linecap: square"/>
     </g>
     <g id="line2d_10">
      <g>
       <use xlink:href="#mfa987e5edd" x="43.780625" y="283.537571" style="fill: #5b6577; stroke: #5b6577; stroke-width: 0.8"/>
      </g>
     </g>
     <g id="text_5">
      <!-- 0.1 -->
      <g style="fill: #5b6577" transform="translate(21.780625 286.975071) scale(0.1 -0.1)">
       <defs>
        <path id="SimHei-31" d="M 1400 3600 
Q 1075 3275 575 2975 
L 575 3450 
Q 1200 3875 1600 4450 
L 1900 4450 
L 1900 150 
L 1400 150 
L 1400 3600 
z
" transform="scale(0.015625)"/>
       </defs>
       <use xlink:href="#SimHei-30"/>
       <use xlink:href="#SimHei-2e" transform="translate(50 0)"/>
       <use xlink:href="#SimHei-31" transform="translate(100 0)"/>
      </g>
     </g>
    </g>
    <g id="ytick_3">
     <g id="line2d_11">
      <path d="M 43.780625 247.692393 
L 486.796625 247.692393 
" clip-path="url(#p5dcb748b3f)" style="fill: none; stroke: #eef1f6; stroke-linecap: square"/>
     </g>
     <g id="line2d_12">
      <g>
       <use xlink:href="#mfa987e5edd" x="43.780625" y="247.692393" style="fill: #5b6577; stroke: #5b6577; stroke-width: 0.8"/>
      </g>
     </g>
     <g id="text_6">
      <!-- 0.2 -->
      <g style="fill: #5b6577" transform="translate(21.780625 251.129893) scale(0.1 -0.1)">
       <defs>
        <path id="SimHei-32" d="M 300 250 
Q 325 625 650 925 
Q 975 1225 1475 1862 
Q 1975 2500 2125 2850 
Q 2275 3200 2237 3450 
Q 2200 3700 2000 3862 
Q 1800 4025 1537 4000 
Q 1275 3975 1037 3800 
Q 800 3625 675 3275 
L 200 3350 
Q 400 3925 712 4187 
Q 1025 4450 1450 4475 
Q 1700 4500 1900 4462 
Q 2100 4425 2312 4287 
Q 2525 4150 2662 3875 
Q 2800 3600 2762 3212 
Q 2725 2825 2375 2287 
Q 2025 1750 1025 600 
L 2825 600 
L 2825 150 
L 300 150 
L 300 250 
z
" transform="scale(0.015625)"/>
       </defs>
       <use xlink:href="#SimHei-30"/>
       <use xlink:href="#SimHei-2e" transform="translate(50 0)"/>
       <use xlink:href="#SimHei-32" transform="translate(100 0)"/>
      </g>
     </g>
    </g>
    <g id="ytick_4">
     <g id="line2d_13">
      <path d="M 43.780625 211.847214 
L 486.796625 211.847214 
" clip-path="url(#p5dcb748b3f)" style="fill: none; stroke: #eef1f6; stroke-linecap: square"/>
     </g>
     <g id="line2d_14">
      <g>
       <use xlink:href="#mfa987e5edd" x="43.780625" y="211.847214" style="fill: #5b6577; stroke: #5b6577; stroke-width: 0.8"/>
      </g>
     </g>
     <g id="text_7">
      <!-- 0.3 -->
      <g style="fill: #5b6577" transform="translate(21.780625 215.284714) scale(0.1 -0.1)">
       <defs>
        <path id="SimHei-33" d="M 250 1225 
L 700 1300 
Q 800 975 1025 762 
Q 1250 550 1587 562 
Q 1925 575 2125 837 
Q 2325 1100 2300 1437 
Q 2275 1775 2037 1962 
Q 1800 2150 1275 2225 
L 1275 2550 
Q 1800 2600 2037 2825 
Q 2275 3050 2250 3412 
Q 2225 3775 1925 3937 
Q 1625 4100 1287 3975 
Q 950 3850 750 3275 
L 300 3350 
Q 450 3800 712 4100 
Q 975 4400 1425 4450 
Q 1875 4500 2212 4337 
Q 2550 4175 2687 3837 
Q 2825 3500 2725 3100 
Q 2625 2700 2150 2400 
Q 2500 2250 2687 1950 
Q 2875 1650 2812 1162 
Q 2750 675 2375 375 
Q 2000 75 1525 87 
Q 1050 100 700 387 
Q 350 675 250 1225 
z
" transform="scale(0.015625)"/>
       </defs>
       <use xlink:href="#SimHei-30"/>
       <use xlink:href="#SimHei-2e" transform="translate(50 0)"/>
       <use xlink:href="#SimHei-33" transform="translate(100 0)"/>
      </g>
     </g>
    </g>
    <g id="ytick_5">
     <g id="line2d_15">
      <path d="M 43.780625 176.002036 
L 486.796625 176.002036 
" clip-path="url(#p5dcb748b3f)" style="fill: none; stroke: #eef1f6; stroke-linecap: square"/>
     </g>
     <g id="line2d_16">
      <g>
       <use xlink:href="#mfa987e5edd" x="43.780625" y="176.002036" style="fill: #5b6577; stroke: #5b6577; stroke-width: 0.8"/>
      </g>
     </g>
     <g id="text_8">
      <!-- 0.4 -->
      <g style="fill: #5b6577" transform="translate(21.780625 179.439536) scale(0.1 -0.1)">
       <defs>
        <path id="SimHei-34" d="M 2000 1100 
L 75 1100 
L 75 1525 
L 2100 4450 
L 2475 4450 
L 2475 1525 
L 3075 1525 
L 3075 1100 
L 2475 1100 
L 2475 150 
L 2000 150 
L 2000 1100 
z
M 2000 1525 
L 2000 3500 
L 600 1525 
L 2000 1525 
z
" transform="scale(0.015625)"/>
       </defs>
       <use xlink:href="#SimHei-30"/>
       <use xlink:href="#SimHei-2e" transform="translate(50 0)"/>
       <use xlink:href="#SimHei-34" transform="translate(100 0)"/>
      </g>
     </g>
    </g>
    <g id="ytick_6">
     <g id="line2d_17">
      <path d="M 43.780625 140.156857 
L 486.796625 140.156857 
" clip-path="url(#p5dcb748b3f)" style="fill: none; stroke: #eef1f6; stroke-linecap: square"/>
     </g>
     <g id="line2d_18">
      <g>
       <use xlink:href="#mfa987e5edd" x="43.780625" y="140.156857" style="fill: #5b6577; stroke: #5b6577; stroke-width: 0.8"/>
      </g>
     </g>
     <g id="text_9">
      <!-- 0.5 -->
      <g style="fill: #5b6577" transform="translate(21.780625 143.594357) scale(0.1 -0.1)">
       <defs>
        <path id="SimHei-35" d="M 550 1325 
Q 725 650 1150 575 
Q 1575 500 1837 662 
Q 2100 825 2212 1087 
Q 2325 1350 2312 1675 
Q 2300 2000 2137 2225 
Q 1975 2450 1725 2525 
Q 1475 2600 1162 2525 
Q 850 2450 650 2175 
L 225 2225 
Q 275 2375 700 4375 
L 2675 4375 
L 2675 3925 
L 1075 3925 
Q 950 3250 825 2850 
Q 1200 3025 1525 3012 
Q 1850 3000 2150 2862 
Q 2450 2725 2587 2487 
Q 2725 2250 2787 2012 
Q 2850 1775 2837 1500 
Q 2825 1225 2725 937 
Q 2625 650 2425 462 
Q 2225 275 1937 162 
Q 1650 50 1275 75 
Q 900 100 562 350 
Q 225 600 100 1200 
L 550 1325 
z
" transform="scale(0.015625)"/>
       </defs>
       <use xlink:href="#SimHei-30"/>
       <use xlink:href="#SimHei-2e" transform="translate(50 0)"/>
       <use xlink:href="#SimHei-35" transform="translate(100 0)"/>
      </g>
     </g>
    </g>
    <g id="ytick_7">
     <g id="line2d_19">
      <path d="M 43.780625 104.311679 
L 486.796625 104.311679 
" clip-path="url(#p5dcb748b3f)" style="fill: none; stroke: #eef1f6; stroke-linecap: square"/>
     </g>
     <g id="line2d_20">
      <g>
       <use xlink:href="#mfa987e5edd" x="43.780625" y="104.311679" style="fill: #5b6577; stroke: #5b6577; stroke-width: 0.8"/>
      </g>
     </g>
     <g id="text_10">
      <!-- 0.6 -->
      <g style="fill: #5b6577" transform="translate(21.780625 107.749179) scale(0.1 -0.1)">
       <defs>
        <path id="SimHei-36" d="M 250 1612 
Q 275 1975 387 2225 
Q 500 2475 725 2850 
L 1750 4450 
L 2325 4450 
L 1275 2800 
Q 1950 2975 2350 2750 
Q 2750 2525 2887 2237 
Q 3025 1950 3037 1612 
Q 3050 1275 2937 950 
Q 2825 625 2537 362 
Q 2250 100 1737 75 
Q 1225 50 862 262 
Q 500 475 362 862 
Q 225 1250 250 1612 
z
M 1025 787 
Q 1250 550 1625 525 
Q 2000 500 2250 775 
Q 2500 1050 2500 1575 
Q 2500 2100 2187 2300 
Q 1875 2500 1487 2450 
Q 1100 2400 925 2075 
Q 750 1750 775 1387 
Q 800 1025 1025 787 
z
" transform="scale(0.015625)"/>
       </defs>
       <use xlink:href="#SimHei-30"/>
       <use xlink:href="#SimHei-2e" transform="translate(50 0)"/>
       <use xlink:href="#SimHei-36" transform="translate(100 0)"/>
      </g>
     </g>
    </g>
    <g id="ytick_8">
     <g id="line2d_21">
      <path d="M 43.780625 68.4665 
L 486.796625 68.4665 
" clip-path="url(#p5dcb748b3f)" style="fill: none; stroke: #eef1f6; stroke-linecap: square"/>
     </g>
     <g id="line2d_22">
      <g>
       <use xlink:href="#mfa987e5edd" x="43.780625" y="68.4665" style="fill: #5b6577; stroke: #5b6577; stroke-width: 0.8"/>
      </g>
     </g>
     <g id="text_11">
      <!-- 0.7 -->
      <g style="fill: #5b6577" transform="translate(21.780625 71.904) scale(0.1 -0.1)">
       <defs>
        <path id="SimHei-37" d="M 850 150 
Q 1300 2050 2425 3925 
L 275 3925 
L 275 4375 
L 2950 4375 
L 2950 3950 
Q 1775 2050 1400 150 
L 850 150 
z
" transform="scale(0.015625)"/>
       </defs>
       <use xlink:href="#SimHei-30"/>
       <use xlink:href="#SimHei-2e" transform="translate(50 0)"/>
       <use xlink:href="#SimHei-37" transform="translate(100 0)"/>
      </g>
     </g>
    </g>
    <g id="text_12">
     <!-- 分数（越高越好） -->
     <g style="fill: #1b2432" transform="translate(16.530625 233.924625) rotate(-90) scale(0.1 -0.1)">
      <defs>
       <path id="SimHei-6570" d="M 4525 4925 
Q 4475 4800 4400 4587 
Q 4325 4375 4175 3825 
L 5325 3825 
Q 5575 3825 5925 3850 
L 5925 3400 
Q 5650 3425 5500 3425 
Q 5500 3025 5362 2162 
Q 5225 1300 4875 675 
Q 5125 375 5437 137 
Q 5750 -100 6025 -200 
Q 5725 -425 5625 -625 
Q 5325 -450 5075 -225 
Q 4825 0 4575 325 
Q 4300 25 3987 -187 
Q 3675 -400 3200 -650 
Q 3075 -425 2850 -300 
Q 3225 -150 3650 125 
Q 4075 400 4300 675 
Q 4125 1025 3962 1425 
Q 3800 1825 3675 2475 
Q 3600 2275 3425 1950 
Q 3250 2050 3000 2150 
Q 3400 2850 3650 3675 
Q 3900 4500 3975 5100 
Q 4275 4975 4525 4925 
z
M 2100 2250 
Q 2000 2150 1875 1925 
L 3250 1925 
Q 3100 1300 2725 675 
Q 3125 525 3350 400 
Q 3225 225 3125 25 
Q 2900 175 2450 325 
Q 1950 -225 725 -650 
Q 600 -375 400 -275 
Q 1575 0 2000 475 
Q 1300 650 850 775 
Q 1000 1000 1250 1525 
Q 1000 1525 425 1500 
L 425 1950 
Q 900 1925 1400 1925 
Q 1500 2150 1550 2425 
Q 1825 2325 2100 2250 
z
M 1775 3950 
Q 1775 4550 1750 5100 
L 2250 5100 
Q 2225 4575 2225 3950 
Q 3075 3950 3425 3975 
L 3425 3525 
Q 3075 3550 2225 3550 
Q 2225 2825 2250 2425 
L 1750 2425 
Q 1775 2775 1775 3300 
Q 1650 3100 1300 2787 
Q 950 2475 650 2300 
Q 525 2525 275 2625 
Q 500 2700 875 2975 
Q 1250 3250 1450 3550 
Q 950 3550 500 3525 
L 500 3975 
Q 925 3950 1775 3950 
z
M 3975 3175 
Q 4200 1700 4600 1125 
Q 4850 1700 4937 2287 
Q 5025 2875 5050 3425 
L 4075 3425 
L 3975 3175 
z
M 1450 1000 
Q 1750 925 2275 800 
Q 2475 1050 2650 1525 
L 1725 1525 
Q 1600 1275 1450 1000 
z
M 3325 4825 
Q 3200 4625 3125 4450 
Q 3050 4275 2925 4025 
Q 2725 4125 2525 4175 
Q 2725 4500 2900 5000 
Q 3150 4875 3325 4825 
z
M 2575 3375 
Q 2900 3050 3200 2725 
Q 3050 2600 2875 2425 
Q 2525 2850 2300 3100 
Q 2450 3225 2575 3375 
z
M 925 5000 
Q 1275 4650 1500 4300 
L 1125 4075 
Q 950 4425 600 4725 
Q 825 4875 925 5000 
z
" transform="scale(0.015625)"/>
       <path id="SimHei-ff08" d="M 5425 5100 
L 5700 4775 
Q 4275 3725 4325 2350 
Q 4350 1025 5675 50 
L 5400 -275 
Q 3875 825 3925 2500 
Q 3925 3875 5425 5100 
z
" transform="scale(0.015625)"/>
       <path id="SimHei-8d8a" d="M 1275 1875 
Q 1225 1525 1175 1125 
Q 1400 825 1750 600 
L 1750 2550 
Q 975 2550 500 2525 
L 500 2925 
Q 975 2900 1625 2900 
L 1625 3850 
Q 1075 3850 700 3825 
L 700 4225 
Q 1075 4200 1625 4200 
Q 1625 4700 1600 5125 
L 2075 5125 
Q 2050 4750 2050 4200 
Q 2475 4200 2850 4225 
L 2850 3825 
Q 2475 3850 2050 3850 
L 2050 2900 
Q 2450 2900 2900 2925 
L 2900 2525 
Q 2475 2550 2175 2550 
L 2175 1700 
Q 2450 1700 2800 1725 
L 2800 1350 
Q 2450 1375 2175 1375 
L 2175 350 
Q 2925 0 4162 -25 
Q 5400 -50 6025 50 
Q 5850 -250 5825 -475 
Q 4900 -475 4137 -462 
Q 3375 -450 2825 -312 
Q 2275 -175 1850 50 
Q 1425 275 1100 650 
Q 925 -75 675 -525 
Q 450 -325 350 -250 
Q 575 175 662 537 
Q 750 900 787 1287 
Q 825 1675 825 2000 
Q 1075 1900 1275 1875 
z
M 4600 5000 
Q 4550 4725 4550 4500 
L 4550 3975 
Q 5350 3975 5825 4000 
L 5825 3625 
Q 5350 3650 4575 3650 
Q 4600 3400 4650 2837 
Q 4700 2275 4800 1875 
Q 5100 2550 5225 3200 
Q 5425 3050 5675 2950 
Q 5550 2800 5400 2387 
Q 5250 1975 5000 1375 
Q 5100 1125 5300 937 
Q 5500 750 5600 1425 
Q 5800 1200 6000 1125 
Q 5800 500 5525 350 
Q 5250 200 4725 1025 
Q 4375 600 4000 225 
Q 3825 400 3625 475 
Q 3850 625 4087 850 
Q 4325 1075 4500 1425 
Q 4300 2075 4175 3650 
L 3550 3650 
L 3550 1525 
Q 3750 1650 4025 1900 
Q 4075 1675 4175 1475 
Q 3975 1325 3737 1150 
Q 3500 975 3250 775 
Q 3150 950 3000 1150 
Q 3150 1250 3150 1475 
L 3150 3200 
Q 3150 3525 3125 3975 
L 4150 3975 
Q 4125 4650 4100 5075 
Q 4375 5000 4600 5000 
z
M 5100 4975 
Q 5300 4800 5750 4425 
Q 5600 4325 5475 4125 
Q 5150 4475 4825 4700 
Q 4975 4825 5100 4975 
z
" transform="scale(0.015625)"/>
       <path id="SimHei-9ad8" d="M 5825 -25 
Q 5850 -400 5550 -500 
Q 5250 -600 4975 -625 
Q 4875 -325 4725 -100 
Q 4975 -100 5175 -87 
Q 5375 -75 5350 250 
L 5350 1825 
L 1100 1825 
L 1100 -575 
L 600 -575 
Q 625 -225 625 850 
Q 625 1950 600 2200 
L 5850 2200 
Q 5825 1850 5825 1425 
L 5825 -25 
z
M 4925 3800 
Q 4900 3475 4900 3175 
Q 4900 2900 4925 2600 
L 1400 2600 
Q 1425 2825 1425 3175 
Q 1425 3525 1400 3800 
L 4925 3800 
z
M 4500 1400 
Q 4475 1125 4475 800 
Q 4475 500 4500 200 
L 1950 200 
Q 2000 500 2000 800 
Q 2000 1125 1950 1400 
L 4500 1400 
z
M 425 4600 
Q 750 4575 1125 4575 
L 2925 4575 
Q 2850 4875 2750 5100 
Q 3050 5125 3350 5200 
Q 3400 4950 3525 4575 
L 5250 4575 
Q 5600 4575 5975 4600 
L 5975 4150 
Q 5600 4175 5050 4175 
L 1150 4175 
Q 750 4175 425 4150 
L 425 4600 
z
M 4450 2975 
L 4450 3425 
L 1900 3425 
L 1900 2975 
L 4450 2975 
z
M 4025 550 
L 4025 1050 
L 2400 1050 
L 2400 550 
L 4025 550 
z
" transform="scale(0.015625)"/>
       <path id="SimHei-597d" d="M 2025 5050 
Q 1875 4775 1800 4437 
Q 1725 4100 1650 3775 
L 2900 3775 
Q 2775 3025 2625 2425 
Q 2475 1825 2150 1175 
Q 2550 825 3075 325 
Q 2850 150 2675 -50 
Q 2300 425 1900 775 
Q 1575 375 1250 62 
Q 925 -250 575 -525 
Q 475 -350 200 -150 
Q 575 75 912 362 
Q 1250 650 1550 1075 
Q 1100 1425 575 1750 
Q 900 2500 1100 3375 
Q 700 3375 400 3350 
L 400 3800 
Q 700 3775 1200 3775 
Q 1350 4375 1450 5200 
Q 1700 5125 2025 5050 
z
M 5900 4600 
L 5900 4150 
Q 5650 3950 5350 3712 
Q 5050 3475 4725 3200 
L 4725 2425 
L 5400 2425 
Q 5725 2425 6125 2450 
L 6125 1975 
Q 5725 2000 5400 2000 
L 4725 2000 
L 4725 200 
Q 4725 -275 4437 -400 
Q 4150 -525 3650 -600 
Q 3575 -325 3425 -25 
Q 3975 -25 4112 37 
Q 4250 100 4250 400 
L 4250 2000 
L 3875 2000 
Q 3350 2000 2850 1975 
L 2850 2450 
Q 3350 2425 3800 2425 
L 4250 2425 
Q 4250 2800 4237 3012 
Q 4225 3225 4175 3350 
Q 4400 3500 4700 3737 
Q 5000 3975 5225 4200 
L 3725 4200 
Q 3475 4200 3050 4175 
L 3050 4625 
Q 3475 4600 3725 4600 
L 5900 4600 
z
M 1125 1925 
Q 1500 1675 1775 1475 
Q 1950 1775 2100 2275 
Q 2250 2775 2350 3375 
L 1575 3375 
Q 1350 2550 1125 1925 
z
" transform="scale(0.015625)"/>
       <path id="SimHei-ff09" d="M 1000 5100 
Q 2500 3875 2500 2500 
Q 2550 825 1025 -275 
L 750 50 
Q 2075 1025 2100 2350 
Q 2150 3725 725 4775 
L 1000 5100 
z
" transform="scale(0.015625)"/>
      </defs>
      <use xlink:href="#SimHei-5206"/>
      <use xlink:href="#SimHei-6570" transform="translate(100 0)"/>
      <use xlink:href="#SimHei-ff08" transform="translate(200 0)"/>
      <use xlink:href="#SimHei-8d8a" transform="translate(300 0)"/>
      <use xlink:href="#SimHei-9ad8" transform="translate(400 0)"/>
      <use xlink:href="#SimHei-8d8a" transform="translate(500 0)"/>
      <use xlink:href="#SimHei-597d" transform="translate(600 0)"/>
      <use xlink:href="#SimHei-ff09" transform="translate(700 0)"/>
     </g>
    </g>
   </g>
   <g id="patch_3">
    <path d="M 63.917716 319.38275 
L 102.27408 319.38275 
L 102.27408 255.699117 
L 63.917716 255.699117 
z
" clip-path="url(#p5dcb748b3f)" style="fill: #54606f; stroke: #ffffff; stroke-width: 0.8; stroke-linejoin: miter"/>
   </g>
   <g id="patch_4">
    <path d="M 207.75408 319.38275 
L 246.110443 319.38275 
L 246.110443 188.332259 
L 207.75408 188.332259 
z
" clip-path="url(#p5dcb748b3f)" style="fill: #54606f; stroke: #ffffff; stroke-width: 0.8; stroke-linejoin: miter"/>
   </g>
   <g id="patch_5">
    <path d="M 351.590443 319.38275 
L 389.946807 319.38275 
L 389.946807 215.279002 
L 351.590443 215.279002 
z
" clip-path="url(#p5dcb748b3f)" style="fill: #54606f; stroke: #ffffff; stroke-width: 0.8; stroke-linejoin: miter"/>
   </g>
   <g id="patch_6">
    <path d="M 102.27408 319.38275 
L 140.630443 319.38275 
L 140.630443 216.204851 
L 102.27408 216.204851 
z
" clip-path="url(#p5dcb748b3f)" style="fill: #2f6fd0; stroke: #ffffff; stroke-width: 0.8; stroke-linejoin: miter"/>
   </g>
   <g id="patch_7">
    <path d="M 246.110443 319.38275 
L 284.466807 319.38275 
L 284.466807 143.279862 
L 246.110443 143.279862 
z
" clip-path="url(#p5dcb748b3f)" style="fill: #2f6fd0; stroke: #ffffff; stroke-width: 0.8; stroke-linejoin: miter"/>
   </g>
   <g id="patch_8">
    <path d="M 389.946807 319.38275 
L 428.30317 319.38275 
L 428.30317 172.449857 
L 389.946807 172.449857 
z
" clip-path="url(#p5dcb748b3f)" style="fill: #2f6fd0; stroke: #ffffff; stroke-width: 0.8; stroke-linejoin: miter"/>
   </g>
   <g id="patch_9">
    <path d="M 140.630443 319.38275 
L 178.986807 319.38275 
L 178.986807 207.887631 
L 140.630443 207.887631 
z
" clip-path="url(#p5dcb748b3f)" style="fill: #c04f72; stroke: #ffffff; stroke-width: 0.8; stroke-linejoin: miter"/>
   </g>
   <g id="patch_10">
    <path d="M 284.466807 319.38275 
L 322.82317 319.38275 
L 322.82317 131.191136 
L 284.466807 131.191136 
z
" clip-path="url(#p5dcb748b3f)" style="fill: #c04f72; stroke: #ffffff; stroke-width: 0.8; stroke-linejoin: miter"/>
   </g>
   <g id="patch_11">
    <path d="M 428.30317 319.38275 
L 466.659534 319.38275 
L 466.659534 161.869734 
L 428.30317 161.869734 
z
" clip-path="url(#p5dcb748b3f)" style="fill: #c04f72; stroke: #ffffff; stroke-width: 0.8; stroke-linejoin: miter"/>
   </g>
   <g id="patch_12">
    <path d="M 43.780625 319.38275 
L 43.780625 68.4665 
" style="fill: none; stroke: #c4ccd8; stroke-linejoin: miter; stroke-linecap: square"/>
   </g>
   <g id="patch_13">
    <path d="M 43.780625 319.38275 
L 486.796625 319.38275 
" style="fill: none; stroke: #c4ccd8; stroke-linejoin: miter; stroke-linecap: square"/>
   </g>
   <g id="text_13">
    <!-- 0.18 -->
    <g style="fill: #5b6577" transform="translate(75.595898 252.761617) scale(0.075 -0.075)">
     <defs>
      <path id="SimHei-38" d="M 175 1375 
Q 175 1675 325 1962 
Q 475 2250 825 2425 
Q 525 2600 425 2812 
Q 325 3025 312 3300 
Q 300 3575 387 3775 
Q 475 3975 650 4150 
Q 825 4325 1037 4387 
Q 1250 4450 1500 4450 
Q 1750 4450 1950 4400 
Q 2150 4350 2375 4187 
Q 2600 4025 2700 3725 
Q 2800 3425 2687 3025 
Q 2575 2625 2100 2400 
Q 2525 2275 2700 2012 
Q 2875 1750 2875 1375 
Q 2875 1000 2762 775 
Q 2650 550 2512 400 
Q 2375 250 2137 162 
Q 1900 75 1537 75 
Q 1175 75 912 162 
Q 650 250 475 425 
Q 300 600 237 837 
Q 175 1075 175 1375 
z
M 687 1400 
Q 675 1100 787 875 
Q 900 650 1200 587 
Q 1500 525 1825 600 
Q 2150 675 2275 950 
Q 2400 1225 2362 1500 
Q 2325 1775 2050 1962 
Q 1775 2150 1450 2125 
Q 1125 2100 912 1900 
Q 700 1700 687 1400 
z
M 775 3350 
Q 775 3100 950 2875 
Q 1125 2650 1500 2650 
Q 1875 2650 2062 2875 
Q 2250 3100 2237 3412 
Q 2225 3725 2012 3875 
Q 1800 4025 1437 4000 
Q 1075 3975 925 3787 
Q 775 3600 775 3350 
z
" transform="scale(0.015625)"/>
     </defs>
     <use xlink:href="#SimHei-30"/>
     <use xlink:href="#SimHei-2e" transform="translate(50 0)"/>
     <use xlink:href="#SimHei-31" transform="translate(100 0)"/>
     <use xlink:href="#SimHei-38" transform="translate(150 0)"/>
    </g>
   </g>
   <g id="text_14">
    <!-- 0.37 -->
    <g style="fill: #5b6577" transform="translate(219.432261 185.394759) scale(0.075 -0.075)">
     <use xlink:href="#SimHei-30"/>
     <use xlink:href="#SimHei-2e" transform="translate(50 0)"/>
     <use xlink:href="#SimHei-33" transform="translate(100 0)"/>
     <use xlink:href="#SimHei-37" transform="translate(150 0)"/>
    </g>
   </g>
   <g id="text_15">
    <!-- 0.29 -->
    <g style="fill: #5b6577" transform="translate(363.268625 212.341502) scale(0.075 -0.075)">
     <defs>
      <path id="SimHei-39" d="M 800 75 
Q 1350 1000 1700 1750 
Q 1075 1650 662 1912 
Q 250 2175 162 2625 
Q 75 3075 175 3437 
Q 275 3800 487 4037 
Q 700 4275 1000 4375 
Q 1300 4475 1537 4475 
Q 1775 4475 2025 4375 
Q 2275 4275 2475 4075 
Q 2675 3875 2750 3662 
Q 2825 3450 2825 3112 
Q 2825 2775 2575 2250 
Q 2325 1725 1350 75 
L 800 75 
z
M 662 2875 
Q 700 2550 937 2337 
Q 1175 2125 1450 2150 
Q 1725 2175 1887 2300 
Q 2050 2425 2200 2725 
Q 2300 3100 2250 3362 
Q 2200 3625 1987 3800 
Q 1775 3975 1525 3975 
Q 1375 4000 1137 3900 
Q 900 3800 762 3500 
Q 625 3200 662 2875 
z
" transform="scale(0.015625)"/>
     </defs>
     <use xlink:href="#SimHei-30"/>
     <use xlink:href="#SimHei-2e" transform="translate(50 0)"/>
     <use xlink:href="#SimHei-32" transform="translate(100 0)"/>
     <use xlink:href="#SimHei-39" transform="translate(150 0)"/>
    </g>
   </g>
   <g id="text_16">
    <!-- 0.29 -->
    <g style="fill: #5b6577" transform="translate(113.952261 213.267351) scale(0.075 -0.075)">
     <use xlink:href="#SimHei-30"/>
     <use xlink:href="#SimHei-2e" transform="translate(50 0)"/>
     <use xlink:href="#SimHei-32" transform="translate(100 0)"/>
     <use xlink:href="#SimHei-39" transform="translate(150 0)"/>
    </g>
   </g>
   <g id="text_17">
    <!-- 0.49 -->
    <g style="fill: #5b6577" transform="translate(257.788625 140.342362) scale(0.075 -0.075)">
     <use xlink:href="#SimHei-30"/>
     <use xlink:href="#SimHei-2e" transform="translate(50 0)"/>
     <use xlink:href="#SimHei-34" transform="translate(100 0)"/>
     <use xlink:href="#SimHei-39" transform="translate(150 0)"/>
    </g>
   </g>
   <g id="text_18">
    <!-- 0.41 -->
    <g style="fill: #5b6577" transform="translate(401.624989 169.512357) scale(0.075 -0.075)">
     <use xlink:href="#SimHei-30"/>
     <use xlink:href="#SimHei-2e" transform="translate(50 0)"/>
     <use xlink:href="#SimHei-34" transform="translate(100 0)"/>
     <use xlink:href="#SimHei-31" transform="translate(150 0)"/>
    </g>
   </g>
   <g id="text_19">
    <!-- 0.31 -->
    <g style="fill: #5b6577" transform="translate(152.308625 204.950131) scale(0.075 -0.075)">
     <use xlink:href="#SimHei-30"/>
     <use xlink:href="#SimHei-2e" transform="translate(50 0)"/>
     <use xlink:href="#SimHei-33" transform="translate(100 0)"/>
     <use xlink:href="#SimHei-31" transform="translate(150 0)"/>
    </g>
   </g>
   <g id="text_20">
    <!-- 0.53 -->
    <g style="fill: #5b6577" transform="translate(296.144989 128.253636) scale(0.075 -0.075)">
     <use xlink:href="#SimHei-30"/>
     <use xlink:href="#SimHei-2e" transform="translate(50 0)"/>
     <use xlink:href="#SimHei-35" transform="translate(100 0)"/>
     <use xlink:href="#SimHei-33" transform="translate(150 0)"/>
    </g>
   </g>
   <g id="text_21">
    <!-- 0.44 -->
    <g style="fill: #5b6577" transform="translate(439.981352 158.932234) scale(0.075 -0.075)">
     <use xlink:href="#SimHei-30"/>
     <use xlink:href="#SimHei-2e" transform="translate(50 0)"/>
     <use xlink:href="#SimHei-34" transform="translate(100 0)"/>
     <use xlink:href="#SimHei-34" transform="translate(150 0)"/>
    </g>
   </g>
   <g id="text_22">
    <!-- 潜维度 n_latent -->
    <g style="fill: #1b2432" transform="translate(220.288625 60.4665) scale(0.12 -0.12)">
     <defs>
      <path id="SimHei-6f5c" d="M 5475 1975 
Q 5450 1350 5450 575 
Q 5450 -200 5475 -600 
L 5000 -600 
L 5000 -250 
L 2775 -250 
L 2775 -650 
L 2275 -650 
Q 2300 -200 2300 525 
Q 2300 1275 2275 1975 
L 4025 1975 
Q 3925 2125 3650 2275 
Q 4325 2625 4575 3350 
Q 4200 3350 3850 3325 
L 3850 3725 
Q 4225 3700 4650 3700 
Q 4675 3900 4675 4225 
Q 4350 4225 3975 4200 
L 3975 4600 
Q 4325 4575 4675 4575 
Q 4675 4900 4650 5225 
Q 4900 5200 5150 5200 
Q 5075 4900 5075 4575 
Q 5450 4575 5850 4600 
L 5850 4200 
Q 5500 4225 5075 4225 
Q 5050 3750 5050 3700 
Q 5525 3700 5975 3725 
L 5975 3325 
Q 5650 3350 5150 3350 
Q 5475 2700 6200 2350 
Q 5975 2225 5850 1975 
Q 5200 2375 4900 3025 
Q 4650 2475 4100 1975 
L 5475 1975 
z
M 3350 2275 
Q 3175 2600 2850 2925 
Q 2525 2350 2000 1925 
Q 1875 2050 1575 2200 
Q 2250 2625 2550 3350 
L 1775 3350 
L 1775 3700 
L 2625 3700 
Q 2625 3925 2650 4225 
L 2000 4225 
L 2000 4575 
L 2650 4575 
Q 2650 4900 2625 5225 
Q 2825 5175 3125 5175 
Q 3050 4900 3050 4575 
L 3600 4575 
L 3600 4225 
L 3050 4225 
Q 3050 3925 3025 3700 
L 3625 3700 
L 3625 3350 
L 3000 3350 
Q 3475 2900 3725 2600 
Q 3525 2475 3350 2275 
z
M 5000 125 
L 5000 675 
L 2775 675 
L 2775 125 
L 5000 125 
z
M 5000 1075 
L 5000 1600 
L 2775 1600 
L 2775 1075 
L 5000 1075 
z
M 1625 1450 
Q 1525 1300 1237 625 
Q 950 -50 750 -550 
Q 525 -375 225 -200 
Q 525 175 812 762 
Q 1100 1350 1250 1775 
Q 1425 1600 1625 1450 
z
M 1400 4050 
Q 1050 4375 475 4675 
Q 625 4850 750 5050 
Q 1325 4775 1700 4475 
Q 1525 4300 1400 4050 
z
M 575 3500 
Q 1100 3225 1525 2875 
Q 1350 2675 1250 2450 
Q 950 2775 325 3125 
Q 475 3300 575 3500 
z
" transform="scale(0.015625)"/>
      <path id="SimHei-7ef4" d="M 3700 5075 
Q 3575 4900 3475 4637 
Q 3375 4375 3300 4150 
L 4900 4150 
Q 5400 4150 5800 4175 
L 5800 3725 
Q 5375 3750 4900 3750 
L 4650 3750 
L 4650 2900 
Q 5250 2900 5625 2925 
L 5625 2475 
Q 5250 2500 4650 2500 
L 4650 1600 
Q 5275 1600 5650 1625 
L 5650 1200 
Q 5275 1225 4650 1225 
L 4650 325 
L 5050 325 
Q 5550 325 6050 350 
L 6050 -75 
Q 5550 -50 5050 -50 
L 3250 -50 
L 3250 -625 
L 2775 -625 
Q 2800 -150 2800 650 
L 2800 3075 
Q 2650 2700 2475 2375 
Q 2225 2550 2050 2650 
Q 2275 2975 2450 3312 
Q 2625 3650 2837 4250 
Q 3050 4850 3100 5250 
Q 3375 5150 3700 5075 
z
M 1750 5000 
Q 1525 4775 1300 4225 
Q 1075 3675 825 3150 
Q 1175 3200 1525 3225 
Q 1775 3775 1825 4100 
L 2375 3900 
Q 2225 3725 1950 3200 
Q 1675 2675 1125 1575 
L 2250 1725 
Q 2150 1425 2125 1250 
Q 1800 1250 1387 1187 
Q 975 1125 575 1000 
Q 475 1300 425 1525 
Q 650 1625 875 1987 
Q 1100 2350 1325 2800 
Q 1050 2775 812 2737 
Q 575 2700 400 2625 
Q 325 2825 200 3125 
Q 425 3275 687 3875 
Q 950 4475 1150 5175 
Q 1425 5075 1750 5000 
z
M 2475 650 
Q 2450 400 2450 200 
Q 2000 125 1450 12 
Q 900 -100 450 -275 
Q 350 0 250 300 
Q 750 350 1187 412 
Q 1625 475 2475 650 
z
M 4200 1600 
L 4200 2500 
L 3250 2500 
L 3250 1600 
L 4200 1600 
z
M 4200 325 
L 4200 1225 
L 3250 1225 
L 3250 325 
L 4200 325 
z
M 4200 2900 
L 4200 3750 
L 3250 3750 
L 3250 2900 
L 4200 2900 
z
M 4500 5225 
Q 4600 5075 4900 4475 
Q 4700 4400 4475 4275 
Q 4350 4575 4100 4975 
L 4500 5225 
z
" transform="scale(0.015625)"/>
      <path id="SimHei-5ea6" d="M 1750 1675 
Q 2450 1650 2875 1650 
L 5200 1650 
Q 4975 1250 4650 850 
Q 4325 450 4025 200 
Q 4350 50 4950 -50 
Q 5550 -150 6100 -150 
Q 5950 -300 5825 -650 
Q 5100 -550 4550 -412 
Q 4000 -275 3625 -100 
Q 3100 -325 2587 -462 
Q 2075 -600 1525 -675 
Q 1450 -475 1225 -250 
Q 1675 -250 2250 -125 
Q 2825 0 3250 200 
Q 2825 550 2400 1275 
L 1750 1250 
L 1750 1675 
z
M 2975 5075 
Q 3250 5150 3475 5250 
Q 3625 4975 3775 4525 
L 4700 4525 
Q 4975 4525 5700 4550 
L 5700 4100 
Q 5000 4125 4650 4125 
L 1375 4125 
Q 1375 3000 1350 2312 
Q 1325 1625 1212 950 
Q 1100 275 725 -525 
Q 500 -375 250 -300 
Q 650 400 762 1075 
Q 875 1750 887 2800 
Q 900 3850 875 4525 
L 3200 4525 
Q 3100 4850 2975 5075 
z
M 2475 3300 
Q 2475 3700 2450 3925 
L 2975 3925 
Q 2950 3725 2950 3300 
L 4300 3300 
Q 4300 3700 4275 3950 
L 4800 3950 
Q 4775 3650 4775 3300 
Q 5325 3300 5725 3325 
L 5725 2900 
Q 5350 2925 4775 2925 
Q 4775 2250 4800 1950 
L 2450 1950 
Q 2475 2350 2475 2925 
Q 2175 2925 1600 2900 
L 1600 3325 
Q 2175 3300 2475 3300 
z
M 4300 2350 
L 4300 2925 
L 2950 2925 
L 2950 2350 
L 4300 2350 
z
M 2875 1275 
Q 3200 775 3650 425 
Q 4025 700 4425 1275 
L 2900 1275 
L 2875 1275 
z
" transform="scale(0.015625)"/>
      <path id="SimHei-20" transform="scale(0.015625)"/>
      <path id="SimHei-6e" d="M 2800 125 
L 2300 125 
L 2300 1925 
Q 2300 2225 2150 2400 
Q 2000 2575 1750 2575 
Q 1425 2575 1137 2237 
Q 850 1900 850 1400 
L 850 125 
L 350 125 
L 350 2925 
L 850 2925 
L 850 2400 
Q 1050 2675 1287 2825 
Q 1525 2975 1900 2975 
Q 2350 2975 2575 2725 
Q 2800 2475 2800 2100 
L 2800 125 
z
" transform="scale(0.015625)"/>
      <path id="SimHei-5f" d="M 3150 -850 
L 0 -850 
L 0 -550 
L 3150 -550 
L 3150 -850 
z
" transform="scale(0.015625)"/>
      <path id="SimHei-6c" d="M 1825 125 
L 1325 125 
L 1325 4400 
L 1825 4400 
L 1825 125 
z
" transform="scale(0.015625)"/>
      <path id="SimHei-61" d="M 2875 125 
L 2275 125 
Q 2225 175 2200 262 
Q 2175 350 2175 475 
Q 2000 275 1750 175 
Q 1500 75 1225 75 
Q 825 75 550 275 
Q 275 475 275 850 
Q 275 1225 525 1450 
Q 775 1675 1300 1750 
Q 1650 1800 1912 1875 
Q 2175 1950 2175 2075 
Q 2175 2225 2062 2375 
Q 1950 2525 1575 2525 
Q 1275 2525 1137 2412 
Q 1000 2300 950 2100 
L 400 2100 
Q 450 2500 762 2737 
Q 1075 2975 1575 2975 
Q 2125 2975 2400 2725 
Q 2675 2475 2675 2025 
L 2675 650 
Q 2675 500 2725 375 
Q 2775 250 2875 125 
z
M 2175 1050 
L 2175 1550 
Q 2025 1500 1887 1462 
Q 1750 1425 1425 1375 
Q 1050 1325 937 1200 
Q 825 1075 825 900 
Q 825 750 937 637 
Q 1050 525 1275 525 
Q 1500 525 1762 650 
Q 2025 775 2175 1050 
z
" transform="scale(0.015625)"/>
      <path id="SimHei-74" d="M 2750 200 
Q 2625 150 2462 112 
Q 2300 75 2025 75 
Q 1575 75 1300 325 
Q 1025 575 1025 1025 
L 1025 2525 
L 175 2525 
L 175 2925 
L 1025 2925 
L 1025 3900 
L 1525 3900 
L 1525 2925 
L 2550 2925 
L 2550 2525 
L 1525 2525 
L 1525 1000 
Q 1525 800 1625 662 
Q 1725 525 2000 525 
Q 2275 525 2450 575 
Q 2625 625 2750 700 
L 2750 200 
z
" transform="scale(0.015625)"/>
      <path id="SimHei-65" d="M 2850 1075 
Q 2800 625 2450 350 
Q 2100 75 1625 75 
Q 1025 75 637 462 
Q 250 850 250 1525 
Q 250 2200 637 2587 
Q 1025 2975 1625 2975 
Q 2150 2975 2487 2637 
Q 2825 2300 2825 1525 
L 800 1525 
Q 800 975 1037 750 
Q 1275 525 1625 525 
Q 1900 525 2075 662 
Q 2250 800 2300 1075 
L 2850 1075 
z
M 2250 1925 
Q 2200 2275 2025 2412 
Q 1850 2550 1575 2550 
Q 1325 2550 1125 2412 
Q 925 2275 825 1925 
L 2250 1925 
z
" transform="scale(0.015625)"/>
     </defs>
     <use xlink:href="#SimHei-6f5c"/>
     <use xlink:href="#SimHei-7ef4" transform="translate(100 0)"/>
     <use xlink:href="#SimHei-5ea6" transform="translate(200 0)"/>
     <use xlink:href="#SimHei-20" transform="translate(300 0)"/>
     <use xlink:href="#SimHei-6e" transform="translate(350 0)"/>
     <use xlink:href="#SimHei-5f" transform="translate(400 0)"/>
     <use xlink:href="#SimHei-6c" transform="translate(450 0)"/>
     <use xlink:href="#SimHei-61" transform="translate(500 0)"/>
     <use xlink:href="#SimHei-74" transform="translate(550 0)"/>
     <use xlink:href="#SimHei-65" transform="translate(600 0)"/>
     <use xlink:href="#SimHei-6e" transform="translate(650 0)"/>
     <use xlink:href="#SimHei-74" transform="translate(700 0)"/>
    </g>
   </g>
   <g id="legend_1">
    <g id="patch_14">
     <path d="M 51.880625 82.8665 
L 69.880625 82.8665 
L 69.880625 76.5665 
L 51.880625 76.5665 
z
" style="fill: #54606f; stroke: #ffffff; stroke-width: 0.8; stroke-linejoin: miter"/>
    </g>
    <g id="text_23">
     <!-- n=2 -->
     <g style="fill: #1b2432" transform="translate(77.080625 82.8665) scale(0.09 -0.09)">
      <defs>
       <path id="SimHei-3d" d="M 2975 2900 
L 125 2900 
L 125 3300 
L 2975 3300 
L 2975 2900 
z
M 2975 1375 
L 125 1375 
L 125 1775 
L 2975 1775 
L 2975 1375 
z
" transform="scale(0.015625)"/>
      </defs>
      <use xlink:href="#SimHei-6e"/>
      <use xlink:href="#SimHei-3d" transform="translate(50 0)"/>
      <use xlink:href="#SimHei-32" transform="translate(100 0)"/>
     </g>
    </g>
    <g id="patch_15">
     <path d="M 51.880625 95.452438 
L 69.880625 95.452438 
L 69.880625 89.152438 
L 51.880625 89.152438 
z
" style="fill: #2f6fd0; stroke: #ffffff; stroke-width: 0.8; stroke-linejoin: miter"/>
    </g>
    <g id="text_24">
     <!-- n=10(默认) -->
     <g style="fill: #1b2432" transform="translate(77.080625 95.452438) scale(0.09 -0.09)">
      <defs>
       <path id="SimHei-28" d="M 2975 -200 
L 2700 -475 
Q 2075 125 1762 775 
Q 1450 1425 1450 2250 
Q 1450 3075 1762 3725 
Q 2075 4375 2700 5000 
L 2975 4725 
Q 2400 4175 2112 3587 
Q 1825 3000 1825 2250 
Q 1825 1500 2112 912 
Q 2400 325 2975 -200 
z
" transform="scale(0.015625)"/>
       <path id="SimHei-9ed8" d="M 325 1450 
Q 550 1450 1625 1550 
L 1625 2075 
L 1200 2075 
Q 825 2075 550 2050 
L 550 2425 
Q 825 2400 1125 2400 
L 1625 2400 
L 1625 2825 
L 450 2825 
Q 475 3300 475 3650 
L 475 4150 
Q 475 4500 450 4925 
L 3175 4925 
Q 3150 4500 3150 4150 
L 3150 3650 
Q 3150 3300 3175 2825 
L 2025 2825 
L 2025 2400 
L 2425 2400 
Q 2725 2400 3075 2425 
L 3075 2050 
Q 2800 2075 2450 2075 
L 2025 2075 
L 2025 1575 
Q 2525 1625 2700 1650 
L 3225 1725 
L 3200 1375 
Q 2550 1300 1625 1175 
Q 700 1050 475 975 
L 325 1450 
z
M 5750 -575 
Q 5350 -50 5050 537 
Q 4750 1125 4550 1900 
Q 4300 975 3925 387 
Q 3550 -200 3075 -625 
Q 2875 -400 2675 -325 
Q 3300 125 3662 775 
Q 4025 1425 4137 1962 
Q 4250 2500 4275 2950 
L 3850 2950 
Q 3650 2950 3325 2925 
L 3325 3350 
Q 3600 3325 4000 3325 
L 4300 3325 
Q 4300 4400 4275 5075 
L 4750 5050 
Q 4725 4750 4725 4425 
L 4725 3325 
L 5150 3325 
Q 5275 3325 5925 3350 
L 5925 2925 
Q 5250 2950 5150 2950 
L 4750 2950 
Q 4750 2800 4837 2350 
Q 4925 1900 5050 1550 
Q 5175 1200 5462 700 
Q 5750 200 6175 -250 
Q 5950 -325 5750 -575 
z
M 900 4600 
L 900 3150 
L 1625 3150 
L 1625 4600 
L 900 4600 
z
M 2750 3150 
L 2750 4600 
L 2025 4600 
L 2025 3150 
L 2750 3150 
z
M 1000 800 
Q 975 675 900 362 
Q 825 50 700 -300 
Q 475 -225 300 -175 
Q 550 475 600 875 
Q 800 825 1000 800 
z
M 5150 4700 
Q 5500 4325 5900 3875 
Q 5750 3750 5575 3600 
Q 5150 4150 4850 4450 
Q 5000 4550 5150 4700 
z
M 1375 -200 
Q 1350 350 1225 775 
Q 1400 800 1600 850 
Q 1725 325 1775 -75 
Q 1625 -125 1375 -200 
z
M 2225 25 
Q 2100 500 1925 825 
Q 2050 850 2275 975 
Q 2475 525 2600 125 
Q 2450 100 2225 25 
z
M 2950 200 
Q 2850 525 2600 1000 
Q 2750 1050 2925 1175 
Q 3050 950 3300 400 
Q 3100 300 2950 200 
z
M 2075 3575 
Q 2250 3850 2400 4300 
Q 2500 4225 2725 4150 
L 2575 3800 
Q 2500 3625 2400 3400 
Q 2250 3500 2075 3575 
z
M 1250 3450 
Q 1175 3725 950 4100 
Q 1100 4175 1250 4275 
Q 1475 3875 1600 3625 
Q 1425 3525 1250 3450 
z
" transform="scale(0.015625)"/>
       <path id="SimHei-8ba4" d="M 5650 -600 
Q 4975 -25 4612 600 
Q 4250 1225 4000 2225 
Q 3725 1125 3212 437 
Q 2700 -250 2250 -625 
Q 2150 -450 1775 -275 
Q 2325 100 2762 687 
Q 3200 1275 3412 1862 
Q 3625 2450 3662 3037 
Q 3700 3625 3700 4075 
Q 3700 4525 3675 5125 
Q 3975 5100 4325 5100 
Q 4250 5000 4225 4550 
Q 4200 4100 4250 3412 
Q 4300 2725 4500 2100 
Q 4700 1475 5075 850 
Q 5450 225 6150 -200 
Q 5750 -350 5650 -600 
z
M 1000 250 
Q 1175 450 1175 675 
L 1175 2775 
Q 600 2775 325 2750 
L 325 3225 
Q 600 3200 925 3200 
L 1700 3200 
Q 1675 2750 1675 2350 
L 1675 875 
Q 1875 1075 2450 1725 
Q 2550 1500 2725 1275 
Q 2350 900 2000 525 
Q 1650 150 1425 -150 
Q 1175 100 1000 250 
z
M 1900 3800 
Q 1500 4350 1000 4750 
Q 1225 4900 1350 5100 
Q 1750 4775 2300 4150 
Q 2050 4000 1900 3800 
z
" transform="scale(0.015625)"/>
       <path id="SimHei-29" d="M 1675 2250 
Q 1675 1425 1362 775 
Q 1050 125 425 -475 
L 150 -200 
Q 725 325 1012 912 
Q 1300 1500 1300 2250 
Q 1300 3000 1012 3587 
Q 725 4175 150 4725 
L 425 5000 
Q 1050 4375 1362 3725 
Q 1675 3075 1675 2250 
z
" transform="scale(0.015625)"/>
      </defs>
      <use xlink:href="#SimHei-6e"/>
      <use xlink:href="#SimHei-3d" transform="translate(50 0)"/>
      <use xlink:href="#SimHei-31" transform="translate(100 0)"/>
      <use xlink:href="#SimHei-30" transform="translate(150 0)"/>
      <use xlink:href="#SimHei-28" transform="translate(200 0)"/>
      <use xlink:href="#SimHei-9ed8" transform="translate(250 0)"/>
      <use xlink:href="#SimHei-8ba4" transform="translate(350 0)"/>
      <use xlink:href="#SimHei-29" transform="translate(450 0)"/>
     </g>
    </g>
    <g id="patch_16">
     <path d="M 51.880625 107.377438 
L 69.880625 107.377438 
L 69.880625 101.077438 
L 51.880625 101.077438 
z
" style="fill: #c04f72; stroke: #ffffff; stroke-width: 0.8; stroke-linejoin: miter"/>
    </g>
    <g id="text_25">
     <!-- n=50 -->
     <g style="fill: #1b2432" transform="translate(77.080625 107.377438) scale(0.09 -0.09)">
      <use xlink:href="#SimHei-6e"/>
      <use xlink:href="#SimHei-3d" transform="translate(50 0)"/>
      <use xlink:href="#SimHei-35" transform="translate(100 0)"/>
      <use xlink:href="#SimHei-30" transform="translate(150 0)"/>
     </g>
    </g>
   </g>
  </g>
  <g id="axes_2">
   <g id="patch_17">
    <path d="M 519.536625 319.38275 
L 814.880625 319.38275 
L 814.880625 68.4665 
L 519.536625 68.4665 
z
" style="fill: #ffffff"/>
   </g>
   <g id="matplotlib.axis_3">
    <g id="xtick_4">
     <g id="line2d_23">
      <path d="M 571.317716 319.38275 
L 571.317716 68.4665 
" clip-path="url(#p88675479f2)" style="fill: none; stroke: #eef1f6; stroke-linecap: square"/>
     </g>
     <g id="line2d_24">
      <g>
       <use xlink:href="#m1b56fc1eb3" x="571.317716" y="319.38275" style="fill: #5b6577; stroke: #5b6577; stroke-width: 0.8"/>
      </g>
     </g>
     <g id="text_26">
      <!-- 批次校正 -->
      <g style="fill: #5b6577" transform="translate(551.317716 334.3515) scale(0.1 -0.1)">
       <use xlink:href="#SimHei-6279"/>
       <use xlink:href="#SimHei-6b21" transform="translate(100 0)"/>
       <use xlink:href="#SimHei-6821" transform="translate(200 0)"/>
       <use xlink:href="#SimHei-6b63" transform="translate(300 0)"/>
      </g>
     </g>
    </g>
    <g id="xtick_5">
     <g id="line2d_25">
      <path d="M 667.208625 319.38275 
L 667.208625 68.4665 
" clip-path="url(#p88675479f2)" style="fill: none; stroke: #eef1f6; stroke-linecap: square"/>
     </g>
     <g id="line2d_26">
      <g>
       <use xlink:href="#m1b56fc1eb3" x="667.208625" y="319.38275" style="fill: #5b6577; stroke: #5b6577; stroke-width: 0.8"/>
      </g>
     </g>
     <g id="text_27">
      <!-- 生物保留 -->
      <g style="fill: #5b6577" transform="translate(647.208625 334.390563) scale(0.1 -0.1)">
       <use xlink:href="#SimHei-751f"/>
       <use xlink:href="#SimHei-7269" transform="translate(100 0)"/>
       <use xlink:href="#SimHei-4fdd" transform="translate(200 0)"/>
       <use xlink:href="#SimHei-7559" transform="translate(300 0)"/>
      </g>
     </g>
    </g>
    <g id="xtick_6">
     <g id="line2d_27">
      <path d="M 763.099534 319.38275 
L 763.099534 68.4665 
" clip-path="url(#p88675479f2)" style="fill: none; stroke: #eef1f6; stroke-linecap: square"/>
     </g>
     <g id="line2d_28">
      <g>
       <use xlink:href="#m1b56fc1eb3" x="763.099534" y="319.38275" style="fill: #5b6577; stroke: #5b6577; stroke-width: 0.8"/>
      </g>
     </g>
     <g id="text_28">
      <!-- 总分 -->
      <g style="fill: #5b6577" transform="translate(753.099534 334.234313) scale(0.1 -0.1)">
       <use xlink:href="#SimHei-603b"/>
       <use xlink:href="#SimHei-5206" transform="translate(100 0)"/>
      </g>
     </g>
    </g>
   </g>
   <g id="matplotlib.axis_4">
    <g id="ytick_9">
     <g id="line2d_29">
      <path d="M 519.536625 319.38275 
L 814.880625 319.38275 
" clip-path="url(#p88675479f2)" style="fill: none; stroke: #eef1f6; stroke-linecap: square"/>
     </g>
     <g id="line2d_30">
      <g>
       <use xlink:href="#mfa987e5edd" x="519.536625" y="319.38275" style="fill: #5b6577; stroke: #5b6577; stroke-width: 0.8"/>
      </g>
     </g>
     <g id="text_29">
      <!-- 0.0 -->
      <g style="fill: #5b6577" transform="translate(497.536625 322.82025) scale(0.1 -0.1)">
       <use xlink:href="#SimHei-30"/>
       <use xlink:href="#SimHei-2e" transform="translate(50 0)"/>
       <use xlink:href="#SimHei-30" transform="translate(100 0)"/>
      </g>
     </g>
    </g>
    <g id="ytick_10">
     <g id="line2d_31">
      <path d="M 519.536625 283.537571 
L 814.880625 283.537571 
" clip-path="url(#p88675479f2)" style="fill: none; stroke: #eef1f6; stroke-linecap: square"/>
     </g>
     <g id="line2d_32">
      <g>
       <use xlink:href="#mfa987e5edd" x="519.536625" y="283.537571" style="fill: #5b6577; stroke: #5b6577; stroke-width: 0.8"/>
      </g>
     </g>
     <g id="text_30">
      <!-- 0.1 -->
      <g style="fill: #5b6577" transform="translate(497.536625 286.975071) scale(0.1 -0.1)">
       <use xlink:href="#SimHei-30"/>
       <use xlink:href="#SimHei-2e" transform="translate(50 0)"/>
       <use xlink:href="#SimHei-31" transform="translate(100 0)"/>
      </g>
     </g>
    </g>
    <g id="ytick_11">
     <g id="line2d_33">
      <path d="M 519.536625 247.692393 
L 814.880625 247.692393 
" clip-path="url(#p88675479f2)" style="fill: none; stroke: #eef1f6; stroke-linecap: square"/>
     </g>
     <g id="line2d_34">
      <g>
       <use xlink:href="#mfa987e5edd" x="519.536625" y="247.692393" style="fill: #5b6577; stroke: #5b6577; stroke-width: 0.8"/>
      </g>
     </g>
     <g id="text_31">
      <!-- 0.2 -->
      <g style="fill: #5b6577" transform="translate(497.536625 251.129893) scale(0.1 -0.1)">
       <use xlink:href="#SimHei-30"/>
       <use xlink:href="#SimHei-2e" transform="translate(50 0)"/>
       <use xlink:href="#SimHei-32" transform="translate(100 0)"/>
      </g>
     </g>
    </g>
    <g id="ytick_12">
     <g id="line2d_35">
      <path d="M 519.536625 211.847214 
L 814.880625 211.847214 
" clip-path="url(#p88675479f2)" style="fill: none; stroke: #eef1f6; stroke-linecap: square"/>
     </g>
     <g id="line2d_36">
      <g>
       <use xlink:href="#mfa987e5edd" x="519.536625" y="211.847214" style="fill: #5b6577; stroke: #5b6577; stroke-width: 0.8"/>
      </g>
     </g>
     <g id="text_32">
      <!-- 0.3 -->
      <g style="fill: #5b6577" transform="translate(497.536625 215.284714) scale(0.1 -0.1)">
       <use xlink:href="#SimHei-30"/>
       <use xlink:href="#SimHei-2e" transform="translate(50 0)"/>
       <use xlink:href="#SimHei-33" transform="translate(100 0)"/>
      </g>
     </g>
    </g>
    <g id="ytick_13">
     <g id="line2d_37">
      <path d="M 519.536625 176.002036 
L 814.880625 176.002036 
" clip-path="url(#p88675479f2)" style="fill: none; stroke: #eef1f6; stroke-linecap: square"/>
     </g>
     <g id="line2d_38">
      <g>
       <use xlink:href="#mfa987e5edd" x="519.536625" y="176.002036" style="fill: #5b6577; stroke: #5b6577; stroke-width: 0.8"/>
      </g>
     </g>
     <g id="text_33">
      <!-- 0.4 -->
      <g style="fill: #5b6577" transform="translate(497.536625 179.439536) scale(0.1 -0.1)">
       <use xlink:href="#SimHei-30"/>
       <use xlink:href="#SimHei-2e" transform="translate(50 0)"/>
       <use xlink:href="#SimHei-34" transform="translate(100 0)"/>
      </g>
     </g>
    </g>
    <g id="ytick_14">
     <g id="line2d_39">
      <path d="M 519.536625 140.156857 
L 814.880625 140.156857 
" clip-path="url(#p88675479f2)" style="fill: none; stroke: #eef1f6; stroke-linecap: square"/>
     </g>
     <g id="line2d_40">
      <g>
       <use xlink:href="#mfa987e5edd" x="519.536625" y="140.156857" style="fill: #5b6577; stroke: #5b6577; stroke-width: 0.8"/>
      </g>
     </g>
     <g id="text_34">
      <!-- 0.5 -->
      <g style="fill: #5b6577" transform="translate(497.536625 143.594357) scale(0.1 -0.1)">
       <use xlink:href="#SimHei-30"/>
       <use xlink:href="#SimHei-2e" transform="translate(50 0)"/>
       <use xlink:href="#SimHei-35" transform="translate(100 0)"/>
      </g>
     </g>
    </g>
    <g id="ytick_15">
     <g id="line2d_41">
      <path d="M 519.536625 104.311679 
L 814.880625 104.311679 
" clip-path="url(#p88675479f2)" style="fill: none; stroke: #eef1f6; stroke-linecap: square"/>
     </g>
     <g id="line2d_42">
      <g>
       <use xlink:href="#mfa987e5edd" x="519.536625" y="104.311679" style="fill: #5b6577; stroke: #5b6577; stroke-width: 0.8"/>
      </g>
     </g>
     <g id="text_35">
      <!-- 0.6 -->
      <g style="fill: #5b6577" transform="translate(497.536625 107.749179) scale(0.1 -0.1)">
       <use xlink:href="#SimHei-30"/>
       <use xlink:href="#SimHei-2e" transform="translate(50 0)"/>
       <use xlink:href="#SimHei-36" transform="translate(100 0)"/>
      </g>
     </g>
    </g>
    <g id="ytick_16">
     <g id="line2d_43">
      <path d="M 519.536625 68.4665 
L 814.880625 68.4665 
" clip-path="url(#p88675479f2)" style="fill: none; stroke: #eef1f6; stroke-linecap: square"/>
     </g>
     <g id="line2d_44">
      <g>
       <use xlink:href="#mfa987e5edd" x="519.536625" y="68.4665" style="fill: #5b6577; stroke: #5b6577; stroke-width: 0.8"/>
      </g>
     </g>
     <g id="text_36">
      <!-- 0.7 -->
      <g style="fill: #5b6577" transform="translate(497.536625 71.904) scale(0.1 -0.1)">
       <use xlink:href="#SimHei-30"/>
       <use xlink:href="#SimHei-2e" transform="translate(50 0)"/>
       <use xlink:href="#SimHei-37" transform="translate(100 0)"/>
      </g>
     </g>
    </g>
   </g>
   <g id="patch_18">
    <path d="M 532.961352 319.38275 
L 571.317716 319.38275 
L 571.317716 216.204851 
L 532.961352 216.204851 
z
" clip-path="url(#p88675479f2)" style="fill: #54606f; stroke: #ffffff; stroke-width: 0.8; stroke-linejoin: miter"/>
   </g>
   <g id="patch_19">
    <path d="M 628.852261 319.38275 
L 667.208625 319.38275 
L 667.208625 143.279862 
L 628.852261 143.279862 
z
" clip-path="url(#p88675479f2)" style="fill: #54606f; stroke: #ffffff; stroke-width: 0.8; stroke-linejoin: miter"/>
   </g>
   <g id="patch_20">
    <path d="M 724.74317 319.38275 
L 763.099534 319.38275 
L 763.099534 172.449857 
L 724.74317 172.449857 
z
" clip-path="url(#p88675479f2)" style="fill: #54606f; stroke: #ffffff; stroke-width: 0.8; stroke-linejoin: miter"/>
   </g>
   <g id="patch_21">
    <path d="M 571.317716 319.38275 
L 609.67408 319.38275 
L 609.67408 215.895643 
L 571.317716 215.895643 
z
" clip-path="url(#p88675479f2)" style="fill: #2f6fd0; stroke: #ffffff; stroke-width: 0.8; stroke-linejoin: miter"/>
   </g>
   <g id="patch_22">
    <path d="M 667.208625 319.38275 
L 705.564989 319.38275 
L 705.564989 145.958706 
L 667.208625 145.958706 
z
" clip-path="url(#p88675479f2)" style="fill: #2f6fd0; stroke: #ffffff; stroke-width: 0.8; stroke-linejoin: miter"/>
   </g>
   <g id="patch_23">
    <path d="M 763.099534 319.38275 
L 801.455898 319.38275 
L 801.455898 173.933481 
L 763.099534 173.933481 
z
" clip-path="url(#p88675479f2)" style="fill: #2f6fd0; stroke: #ffffff; stroke-width: 0.8; stroke-linejoin: miter"/>
   </g>
   <g id="patch_24">
    <path d="M 519.536625 319.38275 
L 519.536625 68.4665 
" style="fill: none; stroke: #c4ccd8; stroke-linejoin: miter; stroke-linecap: square"/>
   </g>
   <g id="patch_25">
    <path d="M 519.536625 319.38275 
L 814.880625 319.38275 
" style="fill: none; stroke: #c4ccd8; stroke-linejoin: miter; stroke-linecap: square"/>
   </g>
   <g id="text_37">
    <!-- 0.29 -->
    <g style="fill: #5b6577" transform="translate(544.639534 213.267351) scale(0.075 -0.075)">
     <use xlink:href="#SimHei-30"/>
     <use xlink:href="#SimHei-2e" transform="translate(50 0)"/>
     <use xlink:href="#SimHei-32" transform="translate(100 0)"/>
     <use xlink:href="#SimHei-39" transform="translate(150 0)"/>
    </g>
   </g>
   <g id="text_38">
    <!-- 0.49 -->
    <g style="fill: #5b6577" transform="translate(640.530443 140.342362) scale(0.075 -0.075)">
     <use xlink:href="#SimHei-30"/>
     <use xlink:href="#SimHei-2e" transform="translate(50 0)"/>
     <use xlink:href="#SimHei-34" transform="translate(100 0)"/>
     <use xlink:href="#SimHei-39" transform="translate(150 0)"/>
    </g>
   </g>
   <g id="text_39">
    <!-- 0.41 -->
    <g style="fill: #5b6577" transform="translate(736.421352 169.512357) scale(0.075 -0.075)">
     <use xlink:href="#SimHei-30"/>
     <use xlink:href="#SimHei-2e" transform="translate(50 0)"/>
     <use xlink:href="#SimHei-34" transform="translate(100 0)"/>
     <use xlink:href="#SimHei-31" transform="translate(150 0)"/>
    </g>
   </g>
   <g id="text_40">
    <!-- 0.29 -->
    <g style="fill: #5b6577" transform="translate(582.995898 212.958143) scale(0.075 -0.075)">
     <use xlink:href="#SimHei-30"/>
     <use xlink:href="#SimHei-2e" transform="translate(50 0)"/>
     <use xlink:href="#SimHei-32" transform="translate(100 0)"/>
     <use xlink:href="#SimHei-39" transform="translate(150 0)"/>
    </g>
   </g>
   <g id="text_41">
    <!-- 0.48 -->
    <g style="fill: #5b6577" transform="translate(678.886807 143.021206) scale(0.075 -0.075)">
     <use xlink:href="#SimHei-30"/>
     <use xlink:href="#SimHei-2e" transform="translate(50 0)"/>
     <use xlink:href="#SimHei-34" transform="translate(100 0)"/>
     <use xlink:href="#SimHei-38" transform="translate(150 0)"/>
    </g>
   </g>
   <g id="text_42">
    <!-- 0.41 -->
    <g style="fill: #5b6577" transform="translate(774.777716 170.995981) scale(0.075 -0.075)">
     <use xlink:href="#SimHei-30"/>
     <use xlink:href="#SimHei-2e" transform="translate(50 0)"/>
     <use xlink:href="#SimHei-34" transform="translate(100 0)"/>
     <use xlink:href="#SimHei-31" transform="translate(150 0)"/>
    </g>
   </g>
   <g id="text_43">
    <!-- KL 预热 -->
    <g style="fill: #1b2432" transform="translate(646.208625 60.4665) scale(0.12 -0.12)">
     <defs>
      <path id="SimHei-4b" d="M 3050 125 
L 2400 125 
L 1250 2250 
L 850 1725 
L 850 125 
L 275 125 
L 275 4400 
L 850 4400 
L 850 2550 
L 2275 4400 
L 2950 4400 
L 1625 2725 
L 3050 125 
z
" transform="scale(0.015625)"/>
      <path id="SimHei-4c" d="M 2900 125 
L 300 125 
L 300 4400 
L 875 4400 
L 875 600 
L 2900 600 
L 2900 125 
z
" transform="scale(0.015625)"/>
      <path id="SimHei-9884" d="M 5200 4800 
Q 5575 4800 5950 4825 
L 5950 4400 
Q 5575 4425 5200 4425 
L 4500 4425 
Q 4425 4050 4350 3600 
L 5725 3600 
Q 5700 3225 5700 2800 
L 5700 1725 
Q 5700 1300 5725 850 
L 5250 850 
L 5250 3225 
L 3550 3225 
L 3550 800 
L 3075 800 
Q 3100 1375 3100 1725 
L 3100 2775 
Q 3100 3175 3075 3600 
L 3900 3600 
Q 4000 4150 4000 4425 
L 3725 4425 
Q 3300 4425 2850 4400 
L 2850 4825 
Q 3325 4800 3725 4800 
L 5200 4800 
z
M 2600 1775 
Q 2350 1825 2150 1825 
Q 2250 2250 2300 2450 
L 1750 2450 
L 1750 125 
Q 1725 -300 1425 -400 
Q 1125 -500 750 -500 
Q 700 -225 575 25 
Q 1125 -25 1212 37 
Q 1300 100 1300 350 
L 1300 2450 
L 1025 2450 
Q 700 2450 350 2425 
L 350 2850 
Q 700 2825 1000 2825 
L 2850 2825 
Q 2725 2325 2600 1775 
z
M 4725 2875 
Q 4625 2575 4600 2100 
Q 4575 1625 4462 1037 
Q 4350 450 3962 62 
Q 3575 -325 2925 -675 
Q 2700 -500 2475 -350 
Q 3075 -125 3437 200 
Q 3800 525 3950 937 
Q 4100 1350 4137 1850 
Q 4175 2350 4175 2925 
L 4725 2875 
z
M 1625 2900 
Q 1275 3275 800 3650 
Q 925 3775 1075 3950 
Q 1250 3825 1425 3675 
Q 1750 4150 1950 4375 
L 1400 4375 
Q 900 4375 450 4350 
L 450 4775 
Q 900 4750 1375 4750 
L 2575 4750 
L 2575 4375 
Q 2200 4100 1725 3400 
L 1950 3200 
Q 1750 3025 1625 2900 
z
M 4775 725 
Q 5725 0 6075 -325 
Q 5850 -500 5725 -650 
Q 5400 -325 5137 -87 
Q 4875 150 4525 350 
Q 4650 525 4775 725 
z
" transform="scale(0.015625)"/>
      <path id="SimHei-70ed" d="M 2350 1175 
Q 3050 1700 3350 2400 
Q 3175 2575 2750 2825 
Q 2900 3025 3000 3200 
Q 3300 3025 3500 2875 
Q 3600 3200 3600 3775 
Q 3300 3775 2875 3725 
L 2850 4125 
Q 3250 4150 3600 4150 
Q 3600 4750 3575 5175 
Q 3750 5100 4125 5075 
Q 4050 4700 4050 4150 
L 5150 4200 
Q 5075 3800 5050 3087 
Q 5025 2375 5175 1975 
Q 5325 1575 5462 1600 
Q 5600 1625 5675 2250 
Q 5900 2100 6150 2050 
Q 5950 1425 5812 1262 
Q 5675 1100 5500 1100 
Q 5325 1100 5075 1287 
Q 4825 1475 4700 2100 
Q 4575 2725 4625 3800 
L 4050 3775 
Q 4025 3175 3875 2600 
Q 4400 2200 4650 2000 
Q 4500 1775 4375 1575 
Q 3950 2025 3725 2150 
Q 3425 1475 2775 850 
Q 2625 1075 2350 1175 
z
M 750 1525 
Q 1275 1500 1350 1550 
Q 1425 1600 1425 1800 
L 1425 2475 
Q 1025 2375 550 2225 
Q 500 2450 375 2725 
Q 750 2750 1425 2900 
L 1425 3725 
Q 925 3725 500 3700 
L 500 4125 
Q 900 4100 1425 4100 
Q 1425 4775 1400 5175 
L 1875 5175 
Q 1850 4850 1850 4100 
Q 2150 4100 2575 4125 
L 2575 3700 
Q 2150 3725 1850 3725 
L 1850 3000 
Q 2200 3075 2575 3175 
L 2575 2775 
Q 2200 2675 1850 2575 
L 1850 1825 
Q 1850 1300 1675 1200 
Q 1500 1100 975 1000 
Q 900 1275 750 1525 
z
M 5525 -550 
Q 5350 -125 4825 775 
Q 5025 850 5225 975 
Q 5775 75 5975 -325 
L 5525 -550 
z
M 1450 575 
Q 1275 350 775 -650 
Q 550 -500 300 -425 
Q 600 0 975 825 
Q 1200 675 1450 575 
z
M 3875 -525 
Q 3675 75 3425 600 
Q 3675 675 3850 775 
Q 4150 150 4350 -350 
Q 4075 -425 3875 -525 
z
M 2400 -575 
Q 2300 -150 2000 500 
Q 2225 575 2425 675 
Q 2775 -100 2850 -425 
Q 2600 -500 2400 -575 
z
" transform="scale(0.015625)"/>
     </defs>
     <use xlink:href="#SimHei-4b"/>
     <use xlink:href="#SimHei-4c" transform="translate(50 0)"/>
     <use xlink:href="#SimHei-20" transform="translate(100 0)"/>
     <use xlink:href="#SimHei-9884" transform="translate(150 0)"/>
     <use xlink:href="#SimHei-70ed" transform="translate(250 0)"/>
    </g>
   </g>
   <g id="legend_2">
    <g id="patch_26">
     <path d="M 527.636625 83.738375 
L 545.636625 83.738375 
L 545.636625 77.438375 
L 527.636625 77.438375 
z
" style="fill: #54606f; stroke: #ffffff; stroke-width: 0.8; stroke-linejoin: miter"/>
    </g>
    <g id="text_44">
     <!-- 有预热(0→1) -->
     <g style="fill: #1b2432" transform="translate(552.836625 83.738375) scale(0.09 -0.09)">
      <defs>
       <path id="SimHei-6709" d="M 275 1625 
Q 850 1975 1400 2537 
Q 1950 3100 2400 3925 
L 1500 3925 
Q 1150 3925 625 3900 
L 625 4375 
Q 1275 4350 1600 4350 
L 2550 4350 
Q 2750 4950 2775 5225 
Q 3150 5125 3375 5075 
Q 3300 5000 3125 4350 
L 5150 4350 
Q 5575 4350 6025 4375 
L 6025 3900 
Q 5575 3925 5225 3925 
L 2975 3925 
Q 2800 3600 2600 3275 
L 5475 3275 
Q 5450 2650 5450 2150 
L 5450 125 
Q 5450 -225 5250 -387 
Q 5050 -550 4400 -600 
Q 4375 -325 4225 0 
Q 4600 -50 4775 -25 
Q 4950 0 4950 250 
L 4950 750 
L 2350 750 
L 2350 -575 
L 1800 -575 
Q 1825 50 1825 500 
L 1825 2275 
Q 1300 1675 725 1225 
Q 625 1400 275 1625 
z
M 4950 2175 
L 4950 2875 
L 2350 2875 
L 2350 2175 
L 4950 2175 
z
M 4950 1150 
L 4950 1775 
L 2350 1775 
L 2350 1150 
L 4950 1150 
z
" transform="scale(0.015625)"/>
       <path id="SimHei-2192" d="M 3900 4275 
L 5475 2300 
L 3900 400 
L 3900 1900 
L 400 1900 
L 400 2725 
L 3900 2725 
L 3900 4275 
z
" transform="scale(0.015625)"/>
      </defs>
      <use xlink:href="#SimHei-6709"/>
      <use xlink:href="#SimHei-9884" transform="translate(100 0)"/>
      <use xlink:href="#SimHei-70ed" transform="translate(200 0)"/>
      <use xlink:href="#SimHei-28" transform="translate(300 0)"/>
      <use xlink:href="#SimHei-30" transform="translate(350 0)"/>
      <use xlink:href="#SimHei-2192" transform="translate(400 0)"/>
      <use xlink:href="#SimHei-31" transform="translate(500 0)"/>
      <use xlink:href="#SimHei-29" transform="translate(550 0)"/>
     </g>
    </g>
    <g id="patch_27">
     <path d="M 527.636625 96.324313 
L 545.636625 96.324313 
L 545.636625 90.024313 
L 527.636625 90.024313 
z
" style="fill: #2f6fd0; stroke: #ffffff; stroke-width: 0.8; stroke-linejoin: miter"/>
    </g>
    <g id="text_45">
     <!-- 关(恒1.0) -->
     <g style="fill: #1b2432" transform="translate(552.836625 96.324313) scale(0.09 -0.09)">
      <defs>
       <path id="SimHei-5173" d="M 4675 4850 
Q 4525 4675 4362 4375 
Q 4200 4075 4075 3825 
L 4625 3825 
Q 5150 3825 5550 3850 
L 5550 3375 
Q 5225 3400 4700 3400 
L 3400 3400 
L 3400 2150 
L 4975 2150 
Q 5475 2150 5875 2175 
L 5875 1700 
Q 5475 1725 5025 1725 
L 3500 1725 
Q 4250 450 6000 75 
Q 5775 -175 5600 -525 
Q 4025 0 3225 1300 
Q 2800 200 875 -600 
Q 775 -350 500 -150 
Q 2425 375 2875 1725 
L 1550 1725 
Q 975 1725 600 1700 
L 600 2150 
Q 875 2125 1450 2125 
L 2925 2125 
L 2925 3400 
L 1750 3400 
Q 1275 3400 900 3375 
L 900 3850 
Q 1275 3825 1775 3825 
L 3575 3825 
Q 3925 4625 4075 5150 
Q 4325 5000 4675 4850 
z
M 2125 5125 
Q 2450 4725 2800 4175 
Q 2500 4025 2325 3875 
Q 2025 4450 1725 4825 
Q 1950 4975 2125 5125 
z
" transform="scale(0.015625)"/>
       <path id="SimHei-6052" d="M 5650 3725 
Q 5625 3150 5625 2225 
Q 5625 1300 5650 675 
L 5150 675 
L 5150 975 
L 3300 975 
L 3300 600 
L 2825 600 
Q 2850 1175 2850 2225 
Q 2850 3275 2825 3725 
L 5650 3725 
z
M 1725 5150 
Q 1700 4700 1700 4325 
L 1700 525 
Q 1700 0 1725 -500 
L 1225 -500 
Q 1250 0 1250 525 
L 1250 4250 
Q 1250 4650 1225 5150 
L 1725 5150 
z
M 5325 175 
Q 5725 175 6100 200 
L 6100 -250 
Q 5725 -225 5325 -225 
L 3175 -225 
Q 2725 -225 2275 -250 
L 2275 200 
Q 2750 175 3175 175 
L 5325 175 
z
M 5150 2525 
L 5150 3350 
L 3300 3350 
L 3300 2525 
L 5150 2525 
z
M 5150 1350 
L 5150 2150 
L 3300 2150 
L 3300 1350 
L 5150 1350 
z
M 5025 4825 
Q 5350 4825 5950 4875 
L 5950 4400 
Q 5350 4425 5050 4425 
L 3400 4425 
Q 3125 4425 2550 4400 
L 2550 4875 
Q 3100 4825 3400 4825 
L 5025 4825 
z
M 975 3725 
Q 850 2825 775 2125 
Q 500 2175 300 2200 
Q 375 2550 500 3825 
Q 700 3800 975 3725 
z
M 2300 3950 
Q 2450 3325 2575 2900 
Q 2350 2850 2150 2750 
Q 2075 3250 1900 3825 
Q 2050 3875 2300 3950 
z
" transform="scale(0.015625)"/>
      </defs>
      <use xlink:href="#SimHei-5173"/>
      <use xlink:href="#SimHei-28" transform="translate(100 0)"/>
      <use xlink:href="#SimHei-6052" transform="translate(150 0)"/>
      <use xlink:href="#SimHei-31" transform="translate(250 0)"/>
      <use xlink:href="#SimHei-2e" transform="translate(300 0)"/>
      <use xlink:href="#SimHei-30" transform="translate(350 0)"/>
      <use xlink:href="#SimHei-29" transform="translate(400 0)"/>
     </g>
    </g>
   </g>
  </g>
  <g id="text_46">
   <!-- 消融：潜维度 与 KL 预热（真实，scib-metrics） -->
   <g style="fill: #1b2432" transform="translate(259.805625 19.714219) scale(0.135 -0.135)">
    <defs>
     <path id="SimHei-6d88" d="M 3850 3350 
Q 3850 4825 3825 5225 
L 4425 5225 
Q 4400 4825 4400 3350 
L 5875 3350 
Q 5850 2700 5850 2325 
L 5850 -100 
Q 5850 -275 5687 -412 
Q 5525 -550 4975 -650 
Q 4950 -400 4675 -75 
Q 5050 -100 5187 -75 
Q 5325 -50 5325 125 
L 5325 700 
L 2950 700 
L 2950 -600 
L 2425 -600 
Q 2450 100 2450 625 
L 2450 2350 
Q 2450 2950 2425 3350 
L 3850 3350 
z
M 5325 2250 
L 5325 2925 
L 2950 2925 
L 2950 2250 
L 5325 2250 
z
M 5325 1125 
L 5325 1800 
L 2950 1800 
L 2950 1125 
L 5325 1125 
z
M 1750 1500 
Q 1600 1275 1387 662 
Q 1175 50 1000 -600 
Q 700 -350 300 -250 
Q 550 25 800 550 
Q 1050 1075 1250 1875 
Q 1500 1650 1750 1500 
z
M 950 5025 
Q 1400 4700 1900 4200 
Q 1625 4000 1475 3800 
Q 1050 4300 550 4700 
Q 725 4775 950 5025 
z
M 525 3400 
Q 1125 3100 1650 2750 
Q 1475 2550 1300 2300 
Q 825 2675 250 3000 
Q 375 3150 525 3400 
z
M 6175 4675 
Q 6025 4575 5775 4262 
Q 5525 3950 5350 3650 
L 4900 3900 
Q 5250 4300 5600 5000 
Q 5900 4800 6175 4675 
z
M 2625 4975 
Q 2950 4575 3300 3950 
Q 3025 3825 2825 3675 
Q 2575 4200 2150 4700 
Q 2375 4800 2625 4975 
z
" transform="scale(0.015625)"/>
     <path id="SimHei-878d" d="M 5200 975 
Q 5400 1025 5650 1125 
Q 5775 775 5887 475 
Q 6000 175 6150 -350 
Q 5925 -425 5675 -500 
Q 5575 -175 5500 50 
Q 4825 -100 4362 -212 
Q 3900 -325 3400 -500 
Q 3325 -225 3200 0 
Q 3575 25 4350 175 
L 4350 1750 
L 3850 1750 
L 3850 1225 
L 3375 1225 
Q 3400 1975 3400 2675 
Q 3400 3400 3375 3925 
L 4350 3925 
Q 4350 4925 4325 5200 
L 4825 5200 
Q 4800 4875 4800 3925 
L 5775 3925 
Q 5750 3325 5750 2700 
Q 5750 2100 5775 1550 
L 5300 1550 
L 5300 1750 
L 4800 1750 
L 4800 250 
Q 5075 325 5400 400 
Q 5325 650 5200 975 
z
M 2025 -50 
Q 2425 -50 2475 -12 
Q 2525 25 2550 150 
L 2550 1975 
L 825 1975 
L 825 -500 
L 350 -500 
Q 375 100 375 475 
L 375 1400 
Q 375 1850 350 2350 
L 3000 2350 
Q 2975 1950 2975 1450 
L 2975 -25 
Q 2975 -325 2787 -387 
Q 2600 -450 2225 -525 
Q 2125 -225 2025 -50 
z
M 625 2725 
Q 650 3050 650 3350 
Q 650 3675 625 3975 
L 2850 3975 
Q 2825 3675 2825 3350 
Q 2825 3050 2850 2725 
L 625 2725 
z
M 3000 4450 
Q 2650 4475 2175 4475 
L 1200 4475 
Q 625 4475 250 4450 
L 250 4875 
Q 550 4850 1125 4850 
L 2175 4850 
Q 2700 4850 3000 4875 
L 3000 4450 
z
M 2325 1675 
Q 2175 1475 2000 1025 
L 2325 1025 
L 2325 675 
L 1850 675 
L 1850 -125 
L 1425 -125 
L 1425 675 
L 1025 675 
L 1025 1025 
L 1700 1025 
Q 1875 1500 1925 1825 
Q 2100 1700 2325 1675 
z
M 5300 2125 
L 5300 3550 
L 4800 3550 
L 4800 2125 
L 5300 2125 
z
M 4350 2125 
L 4350 3550 
L 3850 3550 
L 3850 2125 
L 4350 2125 
z
M 2350 3100 
L 2350 3600 
L 1100 3600 
L 1100 3100 
L 2350 3100 
z
M 1575 1275 
Q 1400 1225 1225 1150 
Q 1150 1425 1025 1675 
L 1325 1825 
Q 1425 1550 1575 1275 
z
" transform="scale(0.015625)"/>
     <path id="SimHei-ff1a" d="M 1200 2425 
L 2025 2425 
L 2025 1600 
L 1200 1600 
L 1200 2425 
z
M 1200 825 
L 2025 825 
L 2025 0 
L 1200 0 
L 1200 825 
z
" transform="scale(0.015625)"/>
     <path id="SimHei-4e0e" d="M 5350 100 
Q 5275 -300 4925 -425 
Q 4575 -550 3900 -600 
Q 3875 -375 3650 -25 
Q 4375 -50 4575 0 
Q 4775 50 4837 225 
Q 4900 400 5100 2350 
L 1125 2350 
Q 1450 4350 1475 5200 
Q 1800 5150 2075 5125 
Q 1975 4825 1900 4275 
L 4900 4275 
Q 5400 4275 5800 4300 
L 5800 3825 
Q 5400 3850 4950 3850 
L 1850 3850 
L 1700 2750 
L 5675 2750 
Q 5625 2450 5575 2050 
L 5350 100 
z
M 3675 1350 
Q 4125 1350 4500 1375 
L 4500 875 
Q 4125 900 3850 900 
L 1450 900 
Q 1000 900 500 875 
L 500 1375 
Q 1000 1350 1450 1350 
L 3675 1350 
z
" transform="scale(0.015625)"/>
     <path id="SimHei-771f" d="M 3550 5100 
Q 3450 4925 3400 4625 
L 4850 4625 
Q 5175 4625 5725 4650 
L 5725 4250 
Q 5200 4275 4850 4275 
L 3350 4275 
L 3300 3850 
L 5050 3850 
Q 5025 3550 5025 3150 
L 5025 1075 
L 5400 1075 
Q 5800 1075 6075 1100 
L 6075 625 
Q 5575 650 4900 650 
L 1450 650 
Q 775 650 350 625 
L 350 1100 
Q 725 1075 1100 1075 
L 1425 1075 
L 1425 3075 
Q 1425 3450 1400 3850 
L 2825 3850 
L 2850 4275 
L 1400 4275 
Q 1050 4275 625 4250 
L 625 4650 
Q 1175 4625 1375 4625 
L 2925 4625 
Q 2950 4875 2950 5125 
Q 3300 5100 3550 5100 
z
M 4075 525 
Q 4500 425 4925 250 
Q 5350 75 5825 -150 
Q 5550 -425 5450 -575 
Q 5025 -300 4550 -100 
Q 4075 100 3800 175 
Q 3925 350 4075 525 
z
M 4525 3150 
L 4525 3475 
L 1925 3475 
L 1925 3150 
L 4525 3150 
z
M 4525 1075 
L 4525 1400 
L 1925 1400 
L 1925 1075 
L 4525 1075 
z
M 2775 200 
Q 2375 -25 1875 -225 
Q 1375 -425 950 -575 
Q 775 -400 600 -250 
Q 1225 -50 1625 137 
Q 2025 325 2350 525 
Q 2550 350 2775 200 
z
M 4525 1775 
L 4525 2075 
L 1925 2075 
L 1925 1775 
L 4525 1775 
z
M 4525 2475 
L 4525 2775 
L 1925 2775 
L 1925 2475 
L 4525 2475 
z
" transform="scale(0.015625)"/>
     <path id="SimHei-5b9e" d="M 4125 3500 
Q 4050 3200 4000 2675 
Q 3950 2150 3850 1550 
L 5025 1550 
Q 5475 1550 5975 1575 
L 5975 1100 
Q 5450 1125 5000 1125 
L 3725 1125 
Q 3500 625 3050 250 
Q 2600 -125 2000 -337 
Q 1400 -550 925 -675 
Q 825 -375 500 -200 
Q 1225 -125 2050 212 
Q 2875 550 3200 1125 
L 1425 1125 
Q 975 1125 425 1100 
L 425 1575 
Q 1000 1550 1425 1550 
L 3375 1550 
Q 3450 1975 3487 2462 
Q 3525 2950 3500 3650 
Q 3800 3550 4125 3500 
z
M 3250 5250 
Q 3450 4850 3600 4375 
L 5775 4375 
Q 5750 4100 5750 3825 
Q 5750 3575 5775 3275 
L 5200 3275 
L 5200 3975 
L 1225 3975 
L 1225 3225 
L 675 3225 
Q 700 3525 700 3800 
Q 700 4100 675 4375 
L 2975 4375 
Q 2900 4675 2700 5075 
Q 2900 5150 3250 5250 
z
M 4000 825 
Q 4550 525 5050 262 
Q 5550 0 5925 -225 
Q 5750 -425 5550 -650 
Q 5100 -325 4575 -37 
Q 4050 250 3675 400 
Q 3875 650 4000 825 
z
M 1175 2750 
Q 1600 2550 2350 2050 
Q 2250 1900 2050 1650 
Q 1350 2175 925 2350 
Q 1075 2500 1175 2750 
z
M 3150 2825 
Q 2975 2625 2850 2425 
Q 2050 3000 1675 3125 
Q 1800 3300 1950 3525 
L 3150 2825 
z
" transform="scale(0.015625)"/>
     <path id="SimHei-ff0c" d="M 875 950 
L 1775 950 
L 1775 -50 
Q 1700 -675 1150 -975 
L 900 -750 
Q 1350 -500 1350 0 
L 875 0 
L 875 950 
z
" transform="scale(0.015625)"/>
     <path id="SimHei-73" d="M 2750 900 
Q 2750 500 2437 287 
Q 2125 75 1650 75 
Q 1050 75 725 312 
Q 400 550 400 1000 
L 900 1000 
Q 900 700 1112 600 
Q 1325 500 1625 500 
Q 1925 500 2075 612 
Q 2225 725 2225 900 
Q 2225 1025 2100 1150 
Q 1975 1275 1475 1350 
Q 900 1425 687 1637 
Q 475 1850 475 2200 
Q 475 2500 762 2737 
Q 1050 2975 1600 2975 
Q 2100 2975 2387 2750 
Q 2675 2525 2675 2150 
L 2175 2150 
Q 2175 2375 2012 2462 
Q 1850 2550 1600 2550 
Q 1275 2550 1137 2437 
Q 1000 2325 1000 2175 
Q 1000 2000 1125 1900 
Q 1250 1800 1650 1750 
Q 2300 1650 2525 1437 
Q 2750 1225 2750 900 
z
" transform="scale(0.015625)"/>
     <path id="SimHei-63" d="M 2850 1250 
Q 2850 725 2487 400 
Q 2125 75 1575 75 
Q 1025 75 625 462 
Q 225 850 225 1525 
Q 225 2200 625 2587 
Q 1025 2975 1575 2975 
Q 2125 2975 2450 2687 
Q 2775 2400 2775 2000 
L 2225 2000 
Q 2200 2300 2012 2412 
Q 1825 2525 1575 2525 
Q 1275 2525 1025 2287 
Q 775 2050 775 1525 
Q 775 1000 1025 762 
Q 1275 525 1575 525 
Q 1900 525 2100 700 
Q 2300 875 2300 1250 
L 2850 1250 
z
" transform="scale(0.015625)"/>
     <path id="SimHei-69" d="M 1800 3725 
L 1300 3725 
L 1300 4375 
L 1800 4375 
L 1800 3725 
z
M 1800 125 
L 1300 125 
L 1300 2925 
L 1800 2925 
L 1800 125 
z
" transform="scale(0.015625)"/>
     <path id="SimHei-62" d="M 2825 1525 
Q 2825 800 2475 437 
Q 2125 75 1625 75 
Q 1350 75 1150 175 
Q 950 275 800 500 
L 800 125 
L 300 125 
L 300 4400 
L 800 4400 
L 800 2550 
Q 950 2775 1150 2887 
Q 1350 3000 1625 3000 
Q 2125 3000 2475 2625 
Q 2825 2250 2825 1525 
z
M 2275 1525 
Q 2275 2000 2087 2275 
Q 1900 2550 1525 2550 
Q 1225 2550 1012 2275 
Q 800 2000 800 1525 
Q 800 1050 1012 787 
Q 1225 525 1525 525 
Q 1900 525 2087 787 
Q 2275 1050 2275 1525 
z
" transform="scale(0.015625)"/>
     <path id="SimHei-2d" d="M 2975 2125 
L 125 2125 
L 125 2525 
L 2975 2525 
L 2975 2125 
z
" transform="scale(0.015625)"/>
     <path id="SimHei-6d" d="M 3050 125 
L 2550 125 
L 2550 2150 
Q 2550 2300 2500 2400 
Q 2450 2500 2300 2500 
Q 2125 2500 1975 2312 
Q 1825 2125 1825 1825 
L 1825 125 
L 1325 125 
L 1325 2150 
Q 1325 2300 1275 2400 
Q 1225 2500 1075 2500 
Q 900 2500 750 2312 
Q 600 2125 600 1825 
L 600 125 
L 100 125 
L 100 2925 
L 600 2925 
L 600 2550 
Q 725 2750 900 2862 
Q 1075 2975 1275 2975 
Q 1475 2975 1612 2862 
Q 1750 2750 1800 2550 
Q 1925 2750 2087 2862 
Q 2250 2975 2450 2975 
Q 2750 2975 2900 2812 
Q 3050 2650 3050 2350 
L 3050 125 
z
" transform="scale(0.015625)"/>
     <path id="SimHei-72" d="M 2500 2425 
Q 2025 2500 1700 2287 
Q 1375 2075 1150 1550 
L 1150 125 
L 650 125 
L 650 2925 
L 1150 2925 
L 1150 2200 
Q 1375 2600 1712 2787 
Q 2050 2975 2500 2975 
L 2500 2425 
z
" transform="scale(0.015625)"/>
    </defs>
    <use xlink:href="#SimHei-6d88"/>
    <use xlink:href="#SimHei-878d" transform="translate(100 0)"/>
    <use xlink:href="#SimHei-ff1a" transform="translate(200 0)"/>
    <use xlink:href="#SimHei-6f5c" transform="translate(300 0)"/>
    <use xlink:href="#SimHei-7ef4" transform="translate(400 0)"/>
    <use xlink:href="#SimHei-5ea6" transform="translate(500 0)"/>
    <use xlink:href="#SimHei-20" transform="translate(600 0)"/>
    <use xlink:href="#SimHei-4e0e" transform="translate(650 0)"/>
    <use xlink:href="#SimHei-20" transform="translate(750 0)"/>
    <use xlink:href="#SimHei-4b" transform="translate(800 0)"/>
    <use xlink:href="#SimHei-4c" transform="translate(850 0)"/>
    <use xlink:href="#SimHei-20" transform="translate(900 0)"/>
    <use xlink:href="#SimHei-9884" transform="translate(950 0)"/>
    <use xlink:href="#SimHei-70ed" transform="translate(1050 0)"/>
    <use xlink:href="#SimHei-ff08" transform="translate(1150 0)"/>
    <use xlink:href="#SimHei-771f" transform="translate(1250 0)"/>
    <use xlink:href="#SimHei-5b9e" transform="translate(1350 0)"/>
    <use xlink:href="#SimHei-ff0c" transform="translate(1450 0)"/>
    <use xlink:href="#SimHei-73" transform="translate(1550 0)"/>
    <use xlink:href="#SimHei-63" transform="translate(1600 0)"/>
    <use xlink:href="#SimHei-69" transform="translate(1650 0)"/>
    <use xlink:href="#SimHei-62" transform="translate(1700 0)"/>
    <use xlink:href="#SimHei-2d" transform="translate(1750 0)"/>
    <use xlink:href="#SimHei-6d" transform="translate(1800 0)"/>
    <use xlink:href="#SimHei-65" transform="translate(1850 0)"/>
    <use xlink:href="#SimHei-74" transform="translate(1900 0)"/>
    <use xlink:href="#SimHei-72" transform="translate(1950 0)"/>
    <use xlink:href="#SimHei-69" transform="translate(2000 0)"/>
    <use xlink:href="#SimHei-63" transform="translate(2050 0)"/>
    <use xlink:href="#SimHei-73" transform="translate(2100 0)"/>
    <use xlink:href="#SimHei-ff09" transform="translate(2150 0)"/>
   </g>
  </g>
 </g>
 <defs>
  <clipPath id="p5dcb748b3f">
   <rect x="43.780625" y="68.4665" width="443.016" height="250.91625"/>
  </clipPath>
  <clipPath id="p88675479f2">
   <rect x="519.536625" y="68.4665" width="295.344" height="250.91625"/>
  </clipPath>
 </defs>
</svg>
